<mxfile host="app.diagrams.net" agent="Mozilla/5.0 (Macintosh; Intel Mac OS X 10_15_7) AppleWebKit/537.36 (KHTML, like Gecko) Chrome/137.0.0.0 Safari/537.36" version="27.2.0">
  <diagram name="ページ1" id="F8m_DqG-KnEFC1IgKoAQ">
    <mxGraphModel dx="1783" dy="1000" grid="1" gridSize="10" guides="1" tooltips="1" connect="1" arrows="1" fold="1" page="1" pageScale="1" pageWidth="827" pageHeight="1169" math="0" shadow="0">
      <root>
        <mxCell id="0" />
        <mxCell id="1" parent="0" />
        <mxCell id="oIj8O1oQHdGCjc1uspGj-63" value="" style="rounded=0;whiteSpace=wrap;html=1;" vertex="1" parent="1">
          <mxGeometry x="1080" y="80" width="290" height="230" as="geometry" />
        </mxCell>
        <mxCell id="oIj8O1oQHdGCjc1uspGj-56" value="" style="rounded=0;whiteSpace=wrap;html=1;" vertex="1" parent="1">
          <mxGeometry x="200" y="80" width="830" height="560" as="geometry" />
        </mxCell>
        <mxCell id="oIj8O1oQHdGCjc1uspGj-11" value="" style="group" vertex="1" connectable="0" parent="1">
          <mxGeometry x="630" y="170" width="80" height="138" as="geometry" />
        </mxCell>
        <mxCell id="oIj8O1oQHdGCjc1uspGj-8" value="" style="sketch=0;points=[[0,0,0],[0.25,0,0],[0.5,0,0],[0.75,0,0],[1,0,0],[0,1,0],[0.25,1,0],[0.5,1,0],[0.75,1,0],[1,1,0],[0,0.25,0],[0,0.5,0],[0,0.75,0],[1,0.25,0],[1,0.5,0],[1,0.75,0]];outlineConnect=0;fontColor=#232F3E;fillColor=#ED7100;strokeColor=#ffffff;dashed=0;verticalLabelPosition=bottom;verticalAlign=top;align=center;html=1;fontSize=12;fontStyle=0;aspect=fixed;shape=mxgraph.aws4.resourceIcon;resIcon=mxgraph.aws4.lambda;" vertex="1" parent="oIj8O1oQHdGCjc1uspGj-11">
          <mxGeometry x="1" y="30" width="78" height="78" as="geometry" />
        </mxCell>
        <mxCell id="oIj8O1oQHdGCjc1uspGj-9" value="Lambda" style="text;html=1;align=center;verticalAlign=middle;resizable=0;points=[];autosize=1;strokeColor=none;fillColor=none;" vertex="1" parent="oIj8O1oQHdGCjc1uspGj-11">
          <mxGeometry x="5" y="108" width="70" height="30" as="geometry" />
        </mxCell>
        <mxCell id="oIj8O1oQHdGCjc1uspGj-10" value="unzip処理" style="text;html=1;align=center;verticalAlign=middle;resizable=0;points=[];autosize=1;strokeColor=none;fillColor=none;" vertex="1" parent="oIj8O1oQHdGCjc1uspGj-11">
          <mxGeometry width="80" height="30" as="geometry" />
        </mxCell>
        <mxCell id="oIj8O1oQHdGCjc1uspGj-12" value="" style="group" vertex="1" connectable="0" parent="1">
          <mxGeometry x="370" y="120" width="120" height="140" as="geometry" />
        </mxCell>
        <mxCell id="oIj8O1oQHdGCjc1uspGj-1" value="" style="sketch=0;points=[[0,0,0],[0.25,0,0],[0.5,0,0],[0.75,0,0],[1,0,0],[0,1,0],[0.25,1,0],[0.5,1,0],[0.75,1,0],[1,1,0],[0,0.25,0],[0,0.5,0],[0,0.75,0],[1,0.25,0],[1,0.5,0],[1,0.75,0]];outlineConnect=0;fontColor=#232F3E;fillColor=#7AA116;strokeColor=#ffffff;dashed=0;verticalLabelPosition=bottom;verticalAlign=top;align=center;html=1;fontSize=12;fontStyle=0;aspect=fixed;shape=mxgraph.aws4.resourceIcon;resIcon=mxgraph.aws4.s3;" vertex="1" parent="oIj8O1oQHdGCjc1uspGj-12">
          <mxGeometry x="21" y="30.434782608695656" width="78" height="78" as="geometry" />
        </mxCell>
        <mxCell id="oIj8O1oQHdGCjc1uspGj-2" value="S3" style="text;html=1;align=center;verticalAlign=middle;resizable=0;points=[];autosize=1;strokeColor=none;fillColor=none;" vertex="1" parent="oIj8O1oQHdGCjc1uspGj-12">
          <mxGeometry x="40" y="109.56521739130436" width="40" height="30" as="geometry" />
        </mxCell>
        <mxCell id="oIj8O1oQHdGCjc1uspGj-6" value="連携データ格納用" style="text;html=1;align=center;verticalAlign=middle;resizable=0;points=[];autosize=1;strokeColor=none;fillColor=none;" vertex="1" parent="oIj8O1oQHdGCjc1uspGj-12">
          <mxGeometry width="120" height="30" as="geometry" />
        </mxCell>
        <mxCell id="oIj8O1oQHdGCjc1uspGj-13" value="" style="group" vertex="1" connectable="0" parent="1">
          <mxGeometry x="410" y="470" width="80" height="138" as="geometry" />
        </mxCell>
        <mxCell id="oIj8O1oQHdGCjc1uspGj-4" value="" style="sketch=0;points=[[0,0,0],[0.25,0,0],[0.5,0,0],[0.75,0,0],[1,0,0],[0,1,0],[0.25,1,0],[0.5,1,0],[0.75,1,0],[1,1,0],[0,0.25,0],[0,0.5,0],[0,0.75,0],[1,0.25,0],[1,0.5,0],[1,0.75,0]];outlineConnect=0;fontColor=#232F3E;fillColor=#7AA116;strokeColor=#ffffff;dashed=0;verticalLabelPosition=bottom;verticalAlign=top;align=center;html=1;fontSize=12;fontStyle=0;aspect=fixed;shape=mxgraph.aws4.resourceIcon;resIcon=mxgraph.aws4.s3;" vertex="1" parent="oIj8O1oQHdGCjc1uspGj-13">
          <mxGeometry x="1" y="30" width="78" height="78" as="geometry" />
        </mxCell>
        <mxCell id="oIj8O1oQHdGCjc1uspGj-5" value="S3" style="text;html=1;align=center;verticalAlign=middle;resizable=0;points=[];autosize=1;strokeColor=none;fillColor=none;" vertex="1" parent="oIj8O1oQHdGCjc1uspGj-13">
          <mxGeometry x="20" y="108" width="40" height="30" as="geometry" />
        </mxCell>
        <mxCell id="oIj8O1oQHdGCjc1uspGj-7" value="ログ格納用" style="text;html=1;align=center;verticalAlign=middle;resizable=0;points=[];autosize=1;strokeColor=none;fillColor=none;" vertex="1" parent="oIj8O1oQHdGCjc1uspGj-13">
          <mxGeometry width="80" height="30" as="geometry" />
        </mxCell>
        <mxCell id="oIj8O1oQHdGCjc1uspGj-14" value="" style="group" vertex="1" connectable="0" parent="1">
          <mxGeometry x="530" y="320" width="100" height="138" as="geometry" />
        </mxCell>
        <mxCell id="oIj8O1oQHdGCjc1uspGj-15" value="" style="sketch=0;points=[[0,0,0],[0.25,0,0],[0.5,0,0],[0.75,0,0],[1,0,0],[0,1,0],[0.25,1,0],[0.5,1,0],[0.75,1,0],[1,1,0],[0,0.25,0],[0,0.5,0],[0,0.75,0],[1,0.25,0],[1,0.5,0],[1,0.75,0]];outlineConnect=0;fontColor=#232F3E;fillColor=#ED7100;strokeColor=#ffffff;dashed=0;verticalLabelPosition=bottom;verticalAlign=top;align=center;html=1;fontSize=12;fontStyle=0;aspect=fixed;shape=mxgraph.aws4.resourceIcon;resIcon=mxgraph.aws4.lambda;" vertex="1" parent="oIj8O1oQHdGCjc1uspGj-14">
          <mxGeometry x="1" y="30" width="78" height="78" as="geometry" />
        </mxCell>
        <mxCell id="oIj8O1oQHdGCjc1uspGj-16" value="Lambda" style="text;html=1;align=center;verticalAlign=middle;resizable=0;points=[];autosize=1;strokeColor=none;fillColor=none;" vertex="1" parent="oIj8O1oQHdGCjc1uspGj-14">
          <mxGeometry x="5" y="108" width="70" height="30" as="geometry" />
        </mxCell>
        <mxCell id="oIj8O1oQHdGCjc1uspGj-17" value="ファイル削除処理" style="text;html=1;align=center;verticalAlign=middle;resizable=0;points=[];autosize=1;strokeColor=none;fillColor=none;" vertex="1" parent="oIj8O1oQHdGCjc1uspGj-14">
          <mxGeometry x="-20" width="120" height="30" as="geometry" />
        </mxCell>
        <mxCell id="oIj8O1oQHdGCjc1uspGj-20" value="" style="group" vertex="1" connectable="0" parent="1">
          <mxGeometry x="5.21" y="60" width="154.79" height="100" as="geometry" />
        </mxCell>
        <mxCell id="oIj8O1oQHdGCjc1uspGj-19" value="ユニットワン社AWS環境" style="rounded=0;whiteSpace=wrap;html=1;" vertex="1" parent="oIj8O1oQHdGCjc1uspGj-20">
          <mxGeometry y="20" width="154.79" height="80" as="geometry" />
        </mxCell>
        <mxCell id="oIj8O1oQHdGCjc1uspGj-18" value="" style="shape=image;verticalLabelPosition=bottom;labelBackgroundColor=default;verticalAlign=top;aspect=fixed;imageAspect=0;image=data:image/png,iVBORw0KGgoAAAANSUhEUgAAAH0AAABHCAYAAAAqYUjuAAAAAXNSR0IArs4c6QAAAIRlWElmTU0AKgAAAAgABQESAAMAAAABAAEAAAEaAAUAAAABAAAASgEbAAUAAAABAAAAUgEoAAMAAAABAAIAAIdpAAQAAAABAAAAWgAAAAAAAABIAAAAAQAAAEgAAAABAAOgAQADAAAAAQABAACgAgAEAAAAAQAAAH2gAwAEAAAAAQAAAEcAAAAALAf7NgAAAAlwSFlzAAALEwAACxMBAJqcGAAAFxVJREFUeAHtXQd8VMX2/mb3pkAIvQWMdAIiAiIqBlSQ8hBUpKog6rMiggo+ffb8FN4TQTqi/6c+sCB/EBQFQYoFVLALiiAqRZAmPaSQ3ey878zd3WQhWTZts0EO7L1zp898M2fOOTP3BjhDf7keUKdzi/UUVIQnJgHZnvJw6nh4dCW214LGcWh1FNpxFHCkomLmXnUn0k/nvsjdttMGdK2hMAWJgLMDAb2ewHZCLOLoC3j4y/bepfXi5+DP6b1L+HH9J/2WMd1suLN/UKOwg76nJZVp0A3Q41EDlvUI0RmOGMJ2nC5dBKykR2L5y2ROCqPhdr+gHsD+IuQYcUnLJOg6heBWdPaEUq8jiiw8K79+JfoeTmMt01qa6muub1QwzEG38oXnkU8M/VzYCYe7F4fVeqWKNKTyKCD8Xr5eCH/JhSxRT4y6EZZ+CW5En9T9HvJwt4au3gRoPhho2BOo1hzKGU1gfU2Vuxd0sgq40qH/XAf96ztQG9+EOrobHEiMbwXWUJJZOIos1V2Ncq0NDCxbT76eiPha67ExSYjN/oLrcyUfZqbSHjeBpqv1bdAXPQRV4SyCI/y5kOTmIDiyHfjsMaifFgDR5AKGE3jzM0xB/waVfb4awUFQBqlMgK4nR70OpQcZcH2d7CLSlc8GerwKJFxIoMv5QorvnkUBf+sHUEtvNhwBzlyz38mh58E4db/7oeIrMDw5RTToegwSEG99w+6l2uXtEDfBrlQf6PkaULdDeHpJSiH7x+JB5CrU7Bxe8EX6B75X97rbGFcZuUQs6HqiswecahGFKIdf/hLAr5wFtBhSSt1LGWDtv4FPHgViuPCLTCBk4RjSrJbq4cxt5jnCLxEJup4UdQ+i9VSqTTZlE+yEZKD/Eq6x8aXfpUe3A3O7AEd/43pvT3eqi1TzVPuyIOSJWBJRpCdaDwYALrP7gpHAoE8jA3DprYr1gNt+ARr1ptGH9RMS+0AFvUY/a3U0zxF8iaiZTnVsGAGfZjpQOk1UsF5vAkkDI7cLV5PVf/mvnHW+Aquaptqq+13fRmqlIwZ0Pd7qSkvYMr+hRWbQDZ8BdS6J1L7Lqdc3E7nOj8ph9aJIZLnrqXvxe06kyHFFBHvXYxFPg8hSP+Cijg36vGwALli2vR+47DkKdl4VI4N+2voxcmAOrElEgI5y1jaqZHZdstzQfd+l4NY+sKaR/iTAtx5mL0lSVw/i9WSLkmfkUamDrp+zFhLwqqZryNJ152ehGl0VeT0VSo06TyV36sBZTpu+kAN/0+Oj7rIfIudaqmu6nhhbH8q91Wx9yk5GnY5QA1ZGTu8UtibTa3FNP8TU1OOdHNKH3NEqxbSysDkWa7pSm+nsDgXL/b2/K467oK6hrft0oIHLabZ12S3xEPbK1nuR1KxSm+l6gvNa7nwtMJsn3DTRV78F1aRvJPVN0eqy5GZg46u2RC9Ty4OJbG9NbuVW5tznkQ91kPsJu3ng41e6v1T3Za0vWoGhpy4V0HUKDZdVLZd/A6VcDeCuXaHXuizElN2/yeVZU/I0IQFenN5H//a+mPHFqCfGHSdWw6Xmw+Gao+7DXvqUCJUOe69kXc7RbpNY3PqRHZ5uxE0Z3WkSN2jYPiGR7QzgXuTlJn5yAERUPNvdkWf5JiHG2qOnWEspBLZlSLFT6cz0CdZhtkQOKfJoEgX3oSU2qE0RpXnRsymcHtxME3IcN2n4s7yzn4c3kJlK0NkVrqP2gHDKlPdCIoNCjDxufEtDTx8e2dpeXO0IO+hGYo+hxG42UzzQ162FSmhXXO0pk/noTEr6618CNrwCdWiLQTrg4IaAn4Xx1AIephbgZR2Fb2opgG6NI5t7wFRZWN8o8jcHtynPUE4PrBkNfJ5iywG+mS+hDqQhw52oHobog4Wm0ljTbcBZZX3uTWcAzwu69o9xMnBCJI/hDM81sT080l3JOqgnR5+bV7JQ/Up0pnObNJnQDuE6lcwBW4cjNYrMSfahKLiQtQ/dDVW+Zqh1/WvG45EtvEGT9OGf2X4vXNF0ZqG7GuleVphOKXbQ9WTnDaxcCut3Ntl4jJFYvQJrQAVFWh1J1u4/pRoQmufDzl278cnnX+GPXXsQFRWFFs0ao1unjnnGLWnPJSs+wdff/4AsGmGaNWmErpcno2b1aiVX7JqneFjzSap1ouORBHgXuvKM3grzXIBLsYHOWf0k9cz7WHblfEUNY5Mm2vyv63WB6n9qVc3FTh3x8Ggs/+gzHE5N5VjiPwerzYHkIbewLCe6d+6IWdPH+pvdIrknDh85guxsjd0/fcpxFdjMBYuX4fZ7H0VMTAxaNm+KD956xZ/W5xj+z6cxb+ESHEtLx2dL5qBVi2Ym6Klx0/HirDk4fjwLTqesjsrUgzdUrVwJ77z2PJo3beTLpnjvG98AFg2mBuAFXkShdHczPITNdo+EVlyR13TuJP1NT7X2EnCRK3MAF+NEJn88P67rXArdkvsOlz4LfcUMaJ5gDQVwacLiZR9j/qJlOHD4CC2bblSvVgVn101AXFw5M8ssdsCSlasw5O4H/S0e3O9qAu2Ag4Pj2/Ub/P4+h+QZGxtrBsOmX7b4vAPui5d/TFCdiGL+PhAfHTMRk16cZY7GuSiENqiXiFbnJqHeWXWojmfj4KEjeG3ewoB8ivWh+SD7QKhP9yejRKy1tiCAS328Q6ZwVSMrn0Y2M8wYF3xZiOBRuT5BvoUnXvpDycsGvjDec7tzeefrrFAhDhdf0Ap3DBmITh0uQlx50XNtWr/hZ/QecjdnvcbCJSuwa89e1KldC9f16Ylx019GudgYvDBzDv4zcbQvibl/u+4nc/d4NI5lpmPzb1vRtFGDgDjp6ZmGi/TqfjmiuZTs3bcfkwl4pYrxOKtOLax8exYqxFHv9lJWVhbeXrwcVatU9nmVzP2cwcCRrcCnT9gzXqMyJ94CnsjtE2qBhZrpOoWHmiZZ3xHCHMBl9FVqCj1gKXDnVqhLnjCAh1qR/OJ1uewSvPv6C+jVrVMA4BL/vBZJePjeO5HJDo+yogi8vUNXN6EmWa5t8luyYpXNfr0FCLcQ2UA4ROMGiVwinXjr3Q8Civ/4sy+MqCFA3jZ4gAn7/KvvKEdYyDx+HMNuHRwAuESIjo7GwGt7mrU9ILOSeGj/ONCgGwc710n+59S9Vo+jlTNEKjDoAjiqOH/hmtrKb0pl4brLVODvG6AadA+x6OKJ1qnjRXBluQyI237/w2QqAPTserlxp6Vn4DjDfbRy1Rq+lJqNhNo1cNN11xoWLn65acYrfL2JcoCs5+eda6/lsTHRHDzasPsvvvk+d/TScffjQHWK1YYkhq5Y/apxh3ApMOiowmNAHpVI0MmpKU1FV4e+5yhUm3tCKK7oUUSAysw8boCT3IT9m2nJ2sg666MHhv3dzPBYCmubNv/m88ZSrv8xHBQXn9+KnKIZMjgofINFImkuFZ9+8bUBvW3rFqhSqaJJ2/WyZLJ5ywySuQuX4sahD2D33n1mLfdnHm5Hl+nSaO+aqRJpq78xlCoUCHSy9PfJTpoYwOWgf3x9YBh1bbErlyBlcaaO5xrd8PwrUDOpPWo2a4+E5slo2/lajJvyEkEUMTaQkqhGySwXYe6VN+b5A7/8bj0FQDcuS77QCGjubI+Z0Wnp6SaOaAQuF5cGNm/k0Fv86SwCPvlfjyEjI9Os8R+u/gItknsh4Zxk/OPJsdj35wEzYPwJwuFocRNQvaldkjCzGM+YUIoNGXSOouGU0HtIZxiq1JBnv38NpYwixdl/4BBqJF2EiTNmkk1nwYpyGlXJzaNV23b8gdnz3zM6+4mFlC8XiyYN6hnvd95f6Qdkx849kLX64gtaI55cIqlJfTZJ4+1Fy03cVWu+Nmv3kWPH0OGiCwKyvaHfVfjkvde5fkeZuoigKO7Z8xehZcdeaNOpNzLIhcJKHf9tz3YplBxYj4sNlEjzqEzIoCNKT6QxwCaLRrVbN+eRXfF7Xdi1nxGaPOQsdwwZgB3rP8HejWuwZ+Pn2PnDaqMXy+zLi/4x4jbjffjoMRzh78eNm5GemYGEWjXMTwKv6tYZFlWzee9SACVNf/kNc69VvSpq8HcitTwnCVu+WYmt336IlIdGmIGTzvJFMPxz/0G0uyJkIfrErAv33ITllbOXICPUOV3PnyqjkEAnW1/BDGXfj5v9POUSpnNs6zZswoFDh80sbd64AZ58cDjKlytnZpesyzLTGjc8m5+SERH2ZOp9ZRczqytQp/9t23YsoL5v0aIlrN1HYkmT5ePHTb8Yr1W0+AmNuHOIued1ESFPuMTtN/bHprVLzc821AA7aC1c9+OmvJKVmJ8+nzYx6QPhwtHq4lMVdErQ9XRjK7/CZCjr+Pm3QdU6/1T5Fkv49t93GWBFau7R5bI889y4eQsHhS3LuEWoyUUyMESQczgcmE+1bPVavgDLyN0ItI+aNKyHtIwMiF4uJtVsSvailg3qe7UvyinvtWpUw7SxT5i0Ut4OqoThJNWkN23x3oFPA5keVyuokHVK0JFlzTWASytodYKcBgkTlS8fa9QkMbv+QNacF6WMnUr2X94Au/fP/QFRZEZe3/cqA/Si5R9j6/YdFO7S0brlOf54NQlYQs3qRgF4etw0mmaj4WC6ypW9LNMfM7jDaABM53K7UKPayctC8NRFDK3RWo5a5ZBz/3U5Dye7Tg26BdpQJSEvF47kpzmCDqKTSyiCT1LjhjiaesyA8MFHn8LHesXkuZa6cufeQ/DNug1+48uX3/1wUmlGdePsFoFQhKw4DpCmjeoHxOtJw49wg/97da5R1Qb0vtKs87kjjR4/Hck9rsPMNxdgy7YdlPBtAefI0VTMpY1+zIQZJo1wnVZe3T53+hJ1c7DpWgReSLDSKuiLA0HNsHpC1IXI1jbKmZzlrYeafMN1SaxbG7cP6Y85C9436/hVN9zFmcjdWbJgAV44wFSqUcu4GfMRrWgC7Lx3l6D/1T38VZSZLPzfYY4icYu63clLU99eXY0gJ3b2bKpsDw63BUB/JuJgx276dQvVs2chglt0tGUMNTKQxEwbS/kiNS0Ny+a9bJaUgLTheKhNOeXAjzboDtUmWJFBQWdnPe5n7dUSaVNvHCyvEgmb+swTRviSTRdRj0SKl7W6acO6mDE+BW3OOwfXUGBr16UvRtxxYwDgvgoN7n8Nln/ymeEId9w80Oftv4uRpiIFMwFOgE/khs6J9NiouwlqOt5f9jH2HzxINp5tlh5ZDkx9yD1mTnsG9RLrnpg0LM+qWhLLkWlOKxV0lWCFSox8iVJ7KqV26mfMpt0/oTo8nW/ccAT8eYCdTbYqmyqlTb9t3Y5DR1LNdmrD+pwQpUyaZ+zUijuJOVfsKKSr4e581+HgM50czBzRpSFEcf+7tCnsAlKQBjfyGn6CRAlrkLLkVIXMdNIpJLXgwTyjYDIRmSWupnGeuURmD2h3JivmZdzc/wpWy3xnun7GfK/NHhSSRUzQZSJYGad3mBhFfnkd+H0xcGybaauObwzVlMadxO7ha3vmYSNsmgLdfttpnuXnCzrKcwuVArI/le8zWn6PknPozTxZk76H2sKDJVdIUXPO2Au8fQmQuk3Obdm5SW9xmqh9XwKbZwMdpwDnDi9qSaGl30/J3QeXVhwB+VP+oOefpsRDVIM+0HOaQa2fAt1hElTDfiVeZkEL0F+n8NNmQ6Eq8TxcbA17b9udBv37Eqjvn7HXVW3r8gXNu1Dxd39hJ5OBp/lOXBDKH/R4pPIjmNo/27PDuHsUVQFq8HZgKc+6Le7P77s25hemHgOa3hSkKeENUh1n5FmgSriU7P5Nfm6M9a/YJM84xe7J9Vztp8WStgNbY/PMD1ZGvoKcuoXnMRzeszFi4kvfFyyf4g+T77P14DrZcSxwiFu4K28G/ktDy1ePQafvLv7yCpmj3vM5sKwv9H/r0EydbufiOmIL0rU7FDLXAibb+3VOAoVsNTJ7YY7Hya58QTdRlfcws0WecTC8O0f+qsq6fj3Xq/h63FQ4CHw3BoodrGU95doPWfvDTYc2AN8+DbxWB2p+Mj8hugCqfhey+FjWZxd3IrkzWJuWvzAJv/onbgfLLBdSCLqeSxRvTHHmQVmaOxjqLNowybLeAZpdn0ekMHhVbQEM3sZPdD7AF/0m0fhACXP/GuBD/twsX9h/0i22tFyxATu7avFWKo1AHuag30quuXkWgU1jJ7MI0Wqoyuour7GXutllriNnYp1U28eLtw5BclPrX6QMQYxkCrv1u0GimiBO4fxJT7DGMKNHzOa8nGMfJa0sZZIdjfe7A398yIpwPyB3C2QA0Atx8TxrfwWB6MrjRG2A8jSryleiZSY6iJYsHf7PeVPylrZ5spiWuq6bL4unboPeS8Fox1Kovas4c1mmTA8mMyTd4ChPyXwocPF4r6f39tpZDGOlBu0I9C+pp/UvAB+wHjQfG9APu+NVCo4FKy53l50UT79IxS3dokjKINmrluPN9dnhkUAeSsYraEffxnVfzIb5tUTqLgOB2Jp2SDyZEb74En5imIDrC6fTTwbsOOhW90G1G+339juO/U65ox5PBfMel+j3LlHHNMo58n67kBMbef49Z9/Y9j3pKs3Pl8xfMHJ6P4PBg4FY/Xi+ccMeIK83d1sA3EGt4or/55Gh2gSXSAkwuUnAk1kq7DjGe5dnAVZ+eYWdCLibW5fV20H34VH/247lDTiz0ptnAjdtCR/ga5/i8WfKOULsDg7uO437FJcTm3dSdG6v3sVPYswws4VHpTDoQ66dnU6KV/oeRJuzX+9eDbWOLHcnuRKra2a1gBsKyYDxcYU4/gGJxoOhWt5nn/oNo3EqlKoiKxWYwoMevhcanfz7Mve6W4WS9pSgSyZ8V+0ADXu2dFSBbOt2juZIJ/lkp4tLm7zqe+gn7jXz77Qc2URT6Q6oLKpUMkCcnPoxPDVTsT43I1tCVWefxTe0D4pY+W5SRUbL/9OUbdlq10W4WFpUonooY2colQsN9AlRt/I07EvGoitCT9tRwOUnCDChlHYmTvH0wIKrKcssotxBFibLkwfPqfvcD4SaeUigS2b88P4mnmBIMhnLmyR9qBmU1c95hto7kRhvxTBg3fNctog2RQ0uXz+SrZ9XkKoGFeQCMspwteeoklXSVg/e7g3sXhMQ5cxDCffAynv4F2O8gIv84eT7wpabVqqCUcigm4/bZOn+RgKWMuSF/Ndpjdq5qmAlnold8B7g9q2efyUBn24LbgI4T47xoGArvjccVCfPq7CQ2bsvsflzGxbG+ndsRX/vMpnn4Uf4opy5F2cP7P4Sem5nKA9VUx8Jx3W7m6uR+NXnVZB7gUGXzGmpe4QjbYwfeHkXvBpNpX1pKIk/uyDln4mbXw+k7eYmE/fif6LpN0akNZKgJX8F0uVuQMAPGr9CXAoFupTDD/pehyj1BoHPWSJEj2/UhX9G61WaPnl40W/qLETN/opJqBnp1B0GbPUzJ1CsWFyEl5MEKUfourhJk8+l0KBLfnylsTKlyD00aFDhzUWU7rW8vtzqLv540KByfQb6ipK7tyG5kvw1nXxf1k22ve977h5Og/qZlkU5fuUzuPg6JZrs/Li+QY3KnufzKsrdh0Sh8+D+h8Jk61GaOZ/2/x213LmJkUSzGE2d0lnk4nLnXLbd/PKVMforgiwbNLkYpr9hMpXcahYSXLeqAcZW6A8qiqPYUDAvOnqsUVQjUsxaT6zPUCF6QDi6kIeTyHI/Wxjp3M4g/2uxge4rwrsz14Yfs7+bL8kP5D6d02j3ouFzUJ8hbw+IJCQ/37J93GxszaTnbBzO2qRSzBsH3sjFeyt20E+snp6Auvzgbx2eGOU2GKqfGP4Xfj5Mtn4Absc+RGftKqt/lvsvjF/Zavr/ANZ0cxNIl50kAAAAAElFTkSuQmCC;" vertex="1" parent="oIj8O1oQHdGCjc1uspGj-20">
          <mxGeometry x="8.881784197001252e-16" width="70.42" height="40" as="geometry" />
        </mxCell>
        <mxCell id="oIj8O1oQHdGCjc1uspGj-21" style="edgeStyle=orthogonalEdgeStyle;rounded=0;orthogonalLoop=1;jettySize=auto;html=1;fillColor=#dae8fc;strokeColor=#6c8ebf;strokeWidth=4;endArrow=openThin;endFill=0;" edge="1" parent="1" source="oIj8O1oQHdGCjc1uspGj-19" target="oIj8O1oQHdGCjc1uspGj-1">
          <mxGeometry relative="1" as="geometry" />
        </mxCell>
        <mxCell id="oIj8O1oQHdGCjc1uspGj-22" style="edgeStyle=orthogonalEdgeStyle;rounded=0;orthogonalLoop=1;jettySize=auto;html=1;strokeWidth=3;endArrow=openThin;endFill=0;fillColor=#dae8fc;strokeColor=#6c8ebf;" edge="1" parent="1" source="oIj8O1oQHdGCjc1uspGj-8" target="oIj8O1oQHdGCjc1uspGj-1">
          <mxGeometry relative="1" as="geometry">
            <mxPoint x="500" y="239" as="targetPoint" />
            <Array as="points">
              <mxPoint x="580" y="239" />
              <mxPoint x="580" y="180" />
            </Array>
          </mxGeometry>
        </mxCell>
        <mxCell id="oIj8O1oQHdGCjc1uspGj-29" style="edgeStyle=orthogonalEdgeStyle;rounded=0;orthogonalLoop=1;jettySize=auto;html=1;entryX=0.45;entryY=0.881;entryDx=0;entryDy=0;entryPerimeter=0;strokeWidth=3;" edge="1" parent="1" source="oIj8O1oQHdGCjc1uspGj-15" target="oIj8O1oQHdGCjc1uspGj-2">
          <mxGeometry relative="1" as="geometry" />
        </mxCell>
        <mxCell id="oIj8O1oQHdGCjc1uspGj-41" value="" style="group" vertex="1" connectable="0" parent="1">
          <mxGeometry x="790" y="230" width="100" height="140" as="geometry" />
        </mxCell>
        <mxCell id="oIj8O1oQHdGCjc1uspGj-38" value="" style="sketch=0;points=[[0,0,0],[0.25,0,0],[0.5,0,0],[0.75,0,0],[1,0,0],[0,1,0],[0.25,1,0],[0.5,1,0],[0.75,1,0],[1,1,0],[0,0.25,0],[0,0.5,0],[0,0.75,0],[1,0.25,0],[1,0.5,0],[1,0.75,0]];points=[[0,0,0],[0.25,0,0],[0.5,0,0],[0.75,0,0],[1,0,0],[0,1,0],[0.25,1,0],[0.5,1,0],[0.75,1,0],[1,1,0],[0,0.25,0],[0,0.5,0],[0,0.75,0],[1,0.25,0],[1,0.5,0],[1,0.75,0]];outlineConnect=0;fontColor=#232F3E;fillColor=#E7157B;strokeColor=#ffffff;dashed=0;verticalLabelPosition=bottom;verticalAlign=top;align=center;html=1;fontSize=12;fontStyle=0;aspect=fixed;shape=mxgraph.aws4.resourceIcon;resIcon=mxgraph.aws4.cloudwatch_2;" vertex="1" parent="oIj8O1oQHdGCjc1uspGj-41">
          <mxGeometry x="10" y="30" width="78" height="78" as="geometry" />
        </mxCell>
        <mxCell id="oIj8O1oQHdGCjc1uspGj-39" value="処理ログ収集" style="text;html=1;align=center;verticalAlign=middle;resizable=0;points=[];autosize=1;strokeColor=none;fillColor=none;" vertex="1" parent="oIj8O1oQHdGCjc1uspGj-41">
          <mxGeometry width="100" height="30" as="geometry" />
        </mxCell>
        <mxCell id="oIj8O1oQHdGCjc1uspGj-40" value="Cloud Watch" style="text;html=1;align=center;verticalAlign=middle;resizable=0;points=[];autosize=1;strokeColor=none;fillColor=none;" vertex="1" parent="oIj8O1oQHdGCjc1uspGj-41">
          <mxGeometry x="5" y="110" width="90" height="30" as="geometry" />
        </mxCell>
        <mxCell id="oIj8O1oQHdGCjc1uspGj-42" style="edgeStyle=orthogonalEdgeStyle;rounded=0;orthogonalLoop=1;jettySize=auto;html=1;fillColor=#fff2cc;strokeColor=#d6b656;strokeWidth=3;" edge="1" parent="1" source="oIj8O1oQHdGCjc1uspGj-8" target="oIj8O1oQHdGCjc1uspGj-38">
          <mxGeometry relative="1" as="geometry">
            <mxPoint x="780" y="340" as="targetPoint" />
            <Array as="points">
              <mxPoint x="760" y="239" />
              <mxPoint x="760" y="299" />
            </Array>
          </mxGeometry>
        </mxCell>
        <mxCell id="oIj8O1oQHdGCjc1uspGj-44" style="edgeStyle=orthogonalEdgeStyle;rounded=0;orthogonalLoop=1;jettySize=auto;html=1;entryX=0.478;entryY=0.967;entryDx=0;entryDy=0;entryPerimeter=0;fillColor=#fff2cc;strokeColor=#d6b656;strokeWidth=3;" edge="1" parent="1" source="oIj8O1oQHdGCjc1uspGj-15" target="oIj8O1oQHdGCjc1uspGj-40">
          <mxGeometry relative="1" as="geometry" />
        </mxCell>
        <mxCell id="oIj8O1oQHdGCjc1uspGj-46" style="edgeStyle=orthogonalEdgeStyle;rounded=0;orthogonalLoop=1;jettySize=auto;html=1;fillColor=#dae8fc;strokeColor=#6c8ebf;strokeWidth=3;" edge="1" parent="1" source="oIj8O1oQHdGCjc1uspGj-1" target="oIj8O1oQHdGCjc1uspGj-8">
          <mxGeometry relative="1" as="geometry">
            <Array as="points">
              <mxPoint x="550" y="200" />
              <mxPoint x="550" y="260" />
            </Array>
          </mxGeometry>
        </mxCell>
        <mxCell id="oIj8O1oQHdGCjc1uspGj-47" value="" style="group" vertex="1" connectable="0" parent="1">
          <mxGeometry x="10" y="535" width="160" height="100" as="geometry" />
        </mxCell>
        <mxCell id="oIj8O1oQHdGCjc1uspGj-59" value="" style="rounded=0;whiteSpace=wrap;html=1;" vertex="1" parent="oIj8O1oQHdGCjc1uspGj-47">
          <mxGeometry y="-5.555555555555556" width="160" height="111.11111111111111" as="geometry" />
        </mxCell>
        <mxCell id="oIj8O1oQHdGCjc1uspGj-30" value="" style="endArrow=openThin;html=1;rounded=0;strokeWidth=3;fillColor=#fff2cc;strokeColor=#d6b656;endFill=0;" edge="1" parent="oIj8O1oQHdGCjc1uspGj-47">
          <mxGeometry width="50" height="50" relative="1" as="geometry">
            <mxPoint x="75" y="16.111111111111114" as="sourcePoint" />
            <mxPoint x="135" y="16.111111111111114" as="targetPoint" />
          </mxGeometry>
        </mxCell>
        <mxCell id="oIj8O1oQHdGCjc1uspGj-31" value="" style="endArrow=openThin;html=1;rounded=0;strokeWidth=3;fillColor=#dae8fc;strokeColor=#6c8ebf;endFill=0;" edge="1" parent="oIj8O1oQHdGCjc1uspGj-47">
          <mxGeometry width="50" height="50" relative="1" as="geometry">
            <mxPoint x="75" y="71.66666666666667" as="sourcePoint" />
            <mxPoint x="135" y="71.66666666666667" as="targetPoint" />
          </mxGeometry>
        </mxCell>
        <mxCell id="oIj8O1oQHdGCjc1uspGj-32" value="" style="endArrow=openThin;html=1;rounded=0;strokeWidth=3;fillColor=#dae8fc;strokeColor=#000000;endFill=0;" edge="1" parent="oIj8O1oQHdGCjc1uspGj-47">
          <mxGeometry width="50" height="50" relative="1" as="geometry">
            <mxPoint x="75" y="44.44444444444445" as="sourcePoint" />
            <mxPoint x="135" y="44.44444444444445" as="targetPoint" />
          </mxGeometry>
        </mxCell>
        <mxCell id="oIj8O1oQHdGCjc1uspGj-33" value="個人情報" style="text;html=1;align=center;verticalAlign=middle;resizable=0;points=[];autosize=1;strokeColor=none;fillColor=none;" vertex="1" parent="oIj8O1oQHdGCjc1uspGj-47">
          <mxGeometry x="5" y="55.55555555555556" width="70" height="30" as="geometry" />
        </mxCell>
        <mxCell id="oIj8O1oQHdGCjc1uspGj-34" value="リクエスト" style="text;html=1;align=center;verticalAlign=middle;resizable=0;points=[];autosize=1;strokeColor=none;fillColor=none;" vertex="1" parent="oIj8O1oQHdGCjc1uspGj-47">
          <mxGeometry y="31.111111111111114" width="80" height="30" as="geometry" />
        </mxCell>
        <mxCell id="oIj8O1oQHdGCjc1uspGj-35" value="ログ" style="text;html=1;align=center;verticalAlign=middle;resizable=0;points=[];autosize=1;strokeColor=none;fillColor=none;" vertex="1" parent="oIj8O1oQHdGCjc1uspGj-47">
          <mxGeometry x="15" width="50" height="30" as="geometry" />
        </mxCell>
        <mxCell id="oIj8O1oQHdGCjc1uspGj-51" value="" style="group" vertex="1" connectable="0" parent="1">
          <mxGeometry x="250" y="320" width="120" height="138" as="geometry" />
        </mxCell>
        <mxCell id="oIj8O1oQHdGCjc1uspGj-48" value="" style="sketch=0;points=[[0,0,0],[0.25,0,0],[0.5,0,0],[0.75,0,0],[1,0,0],[0,1,0],[0.25,1,0],[0.5,1,0],[0.75,1,0],[1,1,0],[0,0.25,0],[0,0.5,0],[0,0.75,0],[1,0.25,0],[1,0.5,0],[1,0.75,0]];points=[[0,0,0],[0.25,0,0],[0.5,0,0],[0.75,0,0],[1,0,0],[0,1,0],[0.25,1,0],[0.5,1,0],[0.75,1,0],[1,1,0],[0,0.25,0],[0,0.5,0],[0,0.75,0],[1,0.25,0],[1,0.5,0],[1,0.75,0]];outlineConnect=0;fontColor=#232F3E;fillColor=#E7157B;strokeColor=#ffffff;dashed=0;verticalLabelPosition=bottom;verticalAlign=top;align=center;html=1;fontSize=12;fontStyle=0;aspect=fixed;shape=mxgraph.aws4.resourceIcon;resIcon=mxgraph.aws4.cloudtrail;" vertex="1" parent="oIj8O1oQHdGCjc1uspGj-51">
          <mxGeometry x="22" y="30" width="78" height="78" as="geometry" />
        </mxCell>
        <mxCell id="oIj8O1oQHdGCjc1uspGj-49" value="アクセスログ取得" style="text;html=1;align=center;verticalAlign=middle;resizable=0;points=[];autosize=1;strokeColor=none;fillColor=none;" vertex="1" parent="oIj8O1oQHdGCjc1uspGj-51">
          <mxGeometry width="120" height="30" as="geometry" />
        </mxCell>
        <mxCell id="oIj8O1oQHdGCjc1uspGj-50" value="Cloud Trail" style="text;html=1;align=center;verticalAlign=middle;resizable=0;points=[];autosize=1;strokeColor=none;fillColor=none;" vertex="1" parent="oIj8O1oQHdGCjc1uspGj-51">
          <mxGeometry x="21" y="108" width="80" height="30" as="geometry" />
        </mxCell>
        <mxCell id="oIj8O1oQHdGCjc1uspGj-57" value="" style="shape=image;verticalLabelPosition=bottom;labelBackgroundColor=default;verticalAlign=top;aspect=fixed;imageAspect=0;image=data:image/png,iVBORw0KGgoAAAANSUhEUgAAAH0AAABHCAYAAAAqYUjuAAAAAXNSR0IArs4c6QAAAIRlWElmTU0AKgAAAAgABQESAAMAAAABAAEAAAEaAAUAAAABAAAASgEbAAUAAAABAAAAUgEoAAMAAAABAAIAAIdpAAQAAAABAAAAWgAAAAAAAABIAAAAAQAAAEgAAAABAAOgAQADAAAAAQABAACgAgAEAAAAAQAAAH2gAwAEAAAAAQAAAEcAAAAALAf7NgAAAAlwSFlzAAALEwAACxMBAJqcGAAAFxVJREFUeAHtXQd8VMX2/mb3pkAIvQWMdAIiAiIqBlSQ8hBUpKog6rMiggo+ffb8FN4TQTqi/6c+sCB/EBQFQYoFVLALiiAqRZAmPaSQ3ey878zd3WQhWTZts0EO7L1zp898M2fOOTP3BjhDf7keUKdzi/UUVIQnJgHZnvJw6nh4dCW214LGcWh1FNpxFHCkomLmXnUn0k/nvsjdttMGdK2hMAWJgLMDAb2ewHZCLOLoC3j4y/bepfXi5+DP6b1L+HH9J/2WMd1suLN/UKOwg76nJZVp0A3Q41EDlvUI0RmOGMJ2nC5dBKykR2L5y2ROCqPhdr+gHsD+IuQYcUnLJOg6heBWdPaEUq8jiiw8K79+JfoeTmMt01qa6muub1QwzEG38oXnkU8M/VzYCYe7F4fVeqWKNKTyKCD8Xr5eCH/JhSxRT4y6EZZ+CW5En9T9HvJwt4au3gRoPhho2BOo1hzKGU1gfU2Vuxd0sgq40qH/XAf96ztQG9+EOrobHEiMbwXWUJJZOIos1V2Ncq0NDCxbT76eiPha67ExSYjN/oLrcyUfZqbSHjeBpqv1bdAXPQRV4SyCI/y5kOTmIDiyHfjsMaifFgDR5AKGE3jzM0xB/waVfb4awUFQBqlMgK4nR70OpQcZcH2d7CLSlc8GerwKJFxIoMv5QorvnkUBf+sHUEtvNhwBzlyz38mh58E4db/7oeIrMDw5RTToegwSEG99w+6l2uXtEDfBrlQf6PkaULdDeHpJSiH7x+JB5CrU7Bxe8EX6B75X97rbGFcZuUQs6HqiswecahGFKIdf/hLAr5wFtBhSSt1LGWDtv4FPHgViuPCLTCBk4RjSrJbq4cxt5jnCLxEJup4UdQ+i9VSqTTZlE+yEZKD/Eq6x8aXfpUe3A3O7AEd/43pvT3eqi1TzVPuyIOSJWBJRpCdaDwYALrP7gpHAoE8jA3DprYr1gNt+ARr1ptGH9RMS+0AFvUY/a3U0zxF8iaiZTnVsGAGfZjpQOk1UsF5vAkkDI7cLV5PVf/mvnHW+Aquaptqq+13fRmqlIwZ0Pd7qSkvYMr+hRWbQDZ8BdS6J1L7Lqdc3E7nOj8ph9aJIZLnrqXvxe06kyHFFBHvXYxFPg8hSP+Cijg36vGwALli2vR+47DkKdl4VI4N+2voxcmAOrElEgI5y1jaqZHZdstzQfd+l4NY+sKaR/iTAtx5mL0lSVw/i9WSLkmfkUamDrp+zFhLwqqZryNJ152ehGl0VeT0VSo06TyV36sBZTpu+kAN/0+Oj7rIfIudaqmu6nhhbH8q91Wx9yk5GnY5QA1ZGTu8UtibTa3FNP8TU1OOdHNKH3NEqxbSysDkWa7pSm+nsDgXL/b2/K467oK6hrft0oIHLabZ12S3xEPbK1nuR1KxSm+l6gvNa7nwtMJsn3DTRV78F1aRvJPVN0eqy5GZg46u2RC9Ty4OJbG9NbuVW5tznkQ91kPsJu3ng41e6v1T3Za0vWoGhpy4V0HUKDZdVLZd/A6VcDeCuXaHXuizElN2/yeVZU/I0IQFenN5H//a+mPHFqCfGHSdWw6Xmw+Gao+7DXvqUCJUOe69kXc7RbpNY3PqRHZ5uxE0Z3WkSN2jYPiGR7QzgXuTlJn5yAERUPNvdkWf5JiHG2qOnWEspBLZlSLFT6cz0CdZhtkQOKfJoEgX3oSU2qE0RpXnRsymcHtxME3IcN2n4s7yzn4c3kJlK0NkVrqP2gHDKlPdCIoNCjDxufEtDTx8e2dpeXO0IO+hGYo+hxG42UzzQ162FSmhXXO0pk/noTEr6618CNrwCdWiLQTrg4IaAn4Xx1AIephbgZR2Fb2opgG6NI5t7wFRZWN8o8jcHtynPUE4PrBkNfJ5iywG+mS+hDqQhw52oHobog4Wm0ljTbcBZZX3uTWcAzwu69o9xMnBCJI/hDM81sT080l3JOqgnR5+bV7JQ/Up0pnObNJnQDuE6lcwBW4cjNYrMSfahKLiQtQ/dDVW+Zqh1/WvG45EtvEGT9OGf2X4vXNF0ZqG7GuleVphOKXbQ9WTnDaxcCut3Ntl4jJFYvQJrQAVFWh1J1u4/pRoQmufDzl278cnnX+GPXXsQFRWFFs0ao1unjnnGLWnPJSs+wdff/4AsGmGaNWmErpcno2b1aiVX7JqneFjzSap1ouORBHgXuvKM3grzXIBLsYHOWf0k9cz7WHblfEUNY5Mm2vyv63WB6n9qVc3FTh3x8Ggs/+gzHE5N5VjiPwerzYHkIbewLCe6d+6IWdPH+pvdIrknDh85guxsjd0/fcpxFdjMBYuX4fZ7H0VMTAxaNm+KD956xZ/W5xj+z6cxb+ESHEtLx2dL5qBVi2Ym6Klx0/HirDk4fjwLTqesjsrUgzdUrVwJ77z2PJo3beTLpnjvG98AFg2mBuAFXkShdHczPITNdo+EVlyR13TuJP1NT7X2EnCRK3MAF+NEJn88P67rXArdkvsOlz4LfcUMaJ5gDQVwacLiZR9j/qJlOHD4CC2bblSvVgVn101AXFw5M8ssdsCSlasw5O4H/S0e3O9qAu2Ag4Pj2/Ub/P4+h+QZGxtrBsOmX7b4vAPui5d/TFCdiGL+PhAfHTMRk16cZY7GuSiENqiXiFbnJqHeWXWojmfj4KEjeG3ewoB8ivWh+SD7QKhP9yejRKy1tiCAS328Q6ZwVSMrn0Y2M8wYF3xZiOBRuT5BvoUnXvpDycsGvjDec7tzeefrrFAhDhdf0Ap3DBmITh0uQlx50XNtWr/hZ/QecjdnvcbCJSuwa89e1KldC9f16Ylx019GudgYvDBzDv4zcbQvibl/u+4nc/d4NI5lpmPzb1vRtFGDgDjp6ZmGi/TqfjmiuZTs3bcfkwl4pYrxOKtOLax8exYqxFHv9lJWVhbeXrwcVatU9nmVzP2cwcCRrcCnT9gzXqMyJ94CnsjtE2qBhZrpOoWHmiZZ3xHCHMBl9FVqCj1gKXDnVqhLnjCAh1qR/OJ1uewSvPv6C+jVrVMA4BL/vBZJePjeO5HJDo+yogi8vUNXN6EmWa5t8luyYpXNfr0FCLcQ2UA4ROMGiVwinXjr3Q8Civ/4sy+MqCFA3jZ4gAn7/KvvKEdYyDx+HMNuHRwAuESIjo7GwGt7mrU9ILOSeGj/ONCgGwc710n+59S9Vo+jlTNEKjDoAjiqOH/hmtrKb0pl4brLVODvG6AadA+x6OKJ1qnjRXBluQyI237/w2QqAPTserlxp6Vn4DjDfbRy1Rq+lJqNhNo1cNN11xoWLn65acYrfL2JcoCs5+eda6/lsTHRHDzasPsvvvk+d/TScffjQHWK1YYkhq5Y/apxh3ApMOiowmNAHpVI0MmpKU1FV4e+5yhUm3tCKK7oUUSAysw8boCT3IT9m2nJ2sg666MHhv3dzPBYCmubNv/m88ZSrv8xHBQXn9+KnKIZMjgofINFImkuFZ9+8bUBvW3rFqhSqaJJ2/WyZLJ5ywySuQuX4sahD2D33n1mLfdnHm5Hl+nSaO+aqRJpq78xlCoUCHSy9PfJTpoYwOWgf3x9YBh1bbErlyBlcaaO5xrd8PwrUDOpPWo2a4+E5slo2/lajJvyEkEUMTaQkqhGySwXYe6VN+b5A7/8bj0FQDcuS77QCGjubI+Z0Wnp6SaOaAQuF5cGNm/k0Fv86SwCPvlfjyEjI9Os8R+u/gItknsh4Zxk/OPJsdj35wEzYPwJwuFocRNQvaldkjCzGM+YUIoNGXSOouGU0HtIZxiq1JBnv38NpYwixdl/4BBqJF2EiTNmkk1nwYpyGlXJzaNV23b8gdnz3zM6+4mFlC8XiyYN6hnvd95f6Qdkx849kLX64gtaI55cIqlJfTZJ4+1Fy03cVWu+Nmv3kWPH0OGiCwKyvaHfVfjkvde5fkeZuoigKO7Z8xehZcdeaNOpNzLIhcJKHf9tz3YplBxYj4sNlEjzqEzIoCNKT6QxwCaLRrVbN+eRXfF7Xdi1nxGaPOQsdwwZgB3rP8HejWuwZ+Pn2PnDaqMXy+zLi/4x4jbjffjoMRzh78eNm5GemYGEWjXMTwKv6tYZFlWzee9SACVNf/kNc69VvSpq8HcitTwnCVu+WYmt336IlIdGmIGTzvJFMPxz/0G0uyJkIfrErAv33ITllbOXICPUOV3PnyqjkEAnW1/BDGXfj5v9POUSpnNs6zZswoFDh80sbd64AZ58cDjKlytnZpesyzLTGjc8m5+SERH2ZOp9ZRczqytQp/9t23YsoL5v0aIlrN1HYkmT5ePHTb8Yr1W0+AmNuHOIued1ESFPuMTtN/bHprVLzc821AA7aC1c9+OmvJKVmJ8+nzYx6QPhwtHq4lMVdErQ9XRjK7/CZCjr+Pm3QdU6/1T5Fkv49t93GWBFau7R5bI889y4eQsHhS3LuEWoyUUyMESQczgcmE+1bPVavgDLyN0ItI+aNKyHtIwMiF4uJtVsSvailg3qe7UvyinvtWpUw7SxT5i0Ut4OqoThJNWkN23x3oFPA5keVyuokHVK0JFlzTWASytodYKcBgkTlS8fa9QkMbv+QNacF6WMnUr2X94Au/fP/QFRZEZe3/cqA/Si5R9j6/YdFO7S0brlOf54NQlYQs3qRgF4etw0mmaj4WC6ypW9LNMfM7jDaABM53K7UKPayctC8NRFDK3RWo5a5ZBz/3U5Dye7Tg26BdpQJSEvF47kpzmCDqKTSyiCT1LjhjiaesyA8MFHn8LHesXkuZa6cufeQ/DNug1+48uX3/1wUmlGdePsFoFQhKw4DpCmjeoHxOtJw49wg/97da5R1Qb0vtKs87kjjR4/Hck9rsPMNxdgy7YdlPBtAefI0VTMpY1+zIQZJo1wnVZe3T53+hJ1c7DpWgReSLDSKuiLA0HNsHpC1IXI1jbKmZzlrYeafMN1SaxbG7cP6Y85C9436/hVN9zFmcjdWbJgAV44wFSqUcu4GfMRrWgC7Lx3l6D/1T38VZSZLPzfYY4icYu63clLU99eXY0gJ3b2bKpsDw63BUB/JuJgx276dQvVs2chglt0tGUMNTKQxEwbS/kiNS0Ny+a9bJaUgLTheKhNOeXAjzboDtUmWJFBQWdnPe5n7dUSaVNvHCyvEgmb+swTRviSTRdRj0SKl7W6acO6mDE+BW3OOwfXUGBr16UvRtxxYwDgvgoN7n8Nln/ymeEId9w80Oftv4uRpiIFMwFOgE/khs6J9NiouwlqOt5f9jH2HzxINp5tlh5ZDkx9yD1mTnsG9RLrnpg0LM+qWhLLkWlOKxV0lWCFSox8iVJ7KqV26mfMpt0/oTo8nW/ccAT8eYCdTbYqmyqlTb9t3Y5DR1LNdmrD+pwQpUyaZ+zUijuJOVfsKKSr4e581+HgM50czBzRpSFEcf+7tCnsAlKQBjfyGn6CRAlrkLLkVIXMdNIpJLXgwTyjYDIRmSWupnGeuURmD2h3JivmZdzc/wpWy3xnun7GfK/NHhSSRUzQZSJYGad3mBhFfnkd+H0xcGybaauObwzVlMadxO7ha3vmYSNsmgLdfttpnuXnCzrKcwuVArI/le8zWn6PknPozTxZk76H2sKDJVdIUXPO2Au8fQmQuk3Obdm5SW9xmqh9XwKbZwMdpwDnDi9qSaGl30/J3QeXVhwB+VP+oOefpsRDVIM+0HOaQa2fAt1hElTDfiVeZkEL0F+n8NNmQ6Eq8TxcbA17b9udBv37Eqjvn7HXVW3r8gXNu1Dxd39hJ5OBp/lOXBDKH/R4pPIjmNo/27PDuHsUVQFq8HZgKc+6Le7P77s25hemHgOa3hSkKeENUh1n5FmgSriU7P5Nfm6M9a/YJM84xe7J9Vztp8WStgNbY/PMD1ZGvoKcuoXnMRzeszFi4kvfFyyf4g+T77P14DrZcSxwiFu4K28G/ktDy1ePQafvLv7yCpmj3vM5sKwv9H/r0EydbufiOmIL0rU7FDLXAibb+3VOAoVsNTJ7YY7Hya58QTdRlfcws0WecTC8O0f+qsq6fj3Xq/h63FQ4CHw3BoodrGU95doPWfvDTYc2AN8+DbxWB2p+Mj8hugCqfhey+FjWZxd3IrkzWJuWvzAJv/onbgfLLBdSCLqeSxRvTHHmQVmaOxjqLNowybLeAZpdn0ekMHhVbQEM3sZPdD7AF/0m0fhACXP/GuBD/twsX9h/0i22tFyxATu7avFWKo1AHuag30quuXkWgU1jJ7MI0Wqoyuour7GXutllriNnYp1U28eLtw5BclPrX6QMQYxkCrv1u0GimiBO4fxJT7DGMKNHzOa8nGMfJa0sZZIdjfe7A398yIpwPyB3C2QA0Atx8TxrfwWB6MrjRG2A8jSryleiZSY6iJYsHf7PeVPylrZ5spiWuq6bL4unboPeS8Fox1Kovas4c1mmTA8mMyTd4ChPyXwocPF4r6f39tpZDGOlBu0I9C+pp/UvAB+wHjQfG9APu+NVCo4FKy53l50UT79IxS3dokjKINmrluPN9dnhkUAeSsYraEffxnVfzIb5tUTqLgOB2Jp2SDyZEb74En5imIDrC6fTTwbsOOhW90G1G+339juO/U65ox5PBfMel+j3LlHHNMo58n67kBMbef49Z9/Y9j3pKs3Pl8xfMHJ6P4PBg4FY/Xi+ccMeIK83d1sA3EGt4or/55Gh2gSXSAkwuUnAk1kq7DjGe5dnAVZ+eYWdCLibW5fV20H34VH/247lDTiz0ptnAjdtCR/ga5/i8WfKOULsDg7uO437FJcTm3dSdG6v3sVPYswws4VHpTDoQ66dnU6KV/oeRJuzX+9eDbWOLHcnuRKra2a1gBsKyYDxcYU4/gGJxoOhWt5nn/oNo3EqlKoiKxWYwoMevhcanfz7Mve6W4WS9pSgSyZ8V+0ADXu2dFSBbOt2juZIJ/lkp4tLm7zqe+gn7jXz77Qc2URT6Q6oLKpUMkCcnPoxPDVTsT43I1tCVWefxTe0D4pY+W5SRUbL/9OUbdlq10W4WFpUonooY2colQsN9AlRt/I07EvGoitCT9tRwOUnCDChlHYmTvH0wIKrKcssotxBFibLkwfPqfvcD4SaeUigS2b88P4mnmBIMhnLmyR9qBmU1c95hto7kRhvxTBg3fNctog2RQ0uXz+SrZ9XkKoGFeQCMspwteeoklXSVg/e7g3sXhMQ5cxDCffAynv4F2O8gIv84eT7wpabVqqCUcigm4/bZOn+RgKWMuSF/Ndpjdq5qmAlnold8B7g9q2efyUBn24LbgI4T47xoGArvjccVCfPq7CQ2bsvsflzGxbG+ndsRX/vMpnn4Uf4opy5F2cP7P4Sem5nKA9VUx8Jx3W7m6uR+NXnVZB7gUGXzGmpe4QjbYwfeHkXvBpNpX1pKIk/uyDln4mbXw+k7eYmE/fif6LpN0akNZKgJX8F0uVuQMAPGr9CXAoFupTDD/pehyj1BoHPWSJEj2/UhX9G61WaPnl40W/qLETN/opJqBnp1B0GbPUzJ1CsWFyEl5MEKUfourhJk8+l0KBLfnylsTKlyD00aFDhzUWU7rW8vtzqLv540KByfQb6ipK7tyG5kvw1nXxf1k22ve977h5Og/qZlkU5fuUzuPg6JZrs/Li+QY3KnufzKsrdh0Sh8+D+h8Jk61GaOZ/2/x213LmJkUSzGE2d0lnk4nLnXLbd/PKVMforgiwbNLkYpr9hMpXcahYSXLeqAcZW6A8qiqPYUDAvOnqsUVQjUsxaT6zPUCF6QDi6kIeTyHI/Wxjp3M4g/2uxge4rwrsz14Yfs7+bL8kP5D6d02j3ouFzUJ8hbw+IJCQ/37J93GxszaTnbBzO2qRSzBsH3sjFeyt20E+snp6Auvzgbx2eGOU2GKqfGP4Xfj5Mtn4Absc+RGftKqt/lvsvjF/Zavr/ANZ0cxNIl50kAAAAAElFTkSuQmCC;" vertex="1" parent="1">
          <mxGeometry x="200" y="60" width="70.42" height="40" as="geometry" />
        </mxCell>
        <mxCell id="oIj8O1oQHdGCjc1uspGj-60" style="edgeStyle=orthogonalEdgeStyle;rounded=0;orthogonalLoop=1;jettySize=auto;html=1;fillColor=#fff2cc;strokeColor=#d6b656;strokeWidth=3;" edge="1" parent="1" source="oIj8O1oQHdGCjc1uspGj-2" target="oIj8O1oQHdGCjc1uspGj-49">
          <mxGeometry relative="1" as="geometry" />
        </mxCell>
        <mxCell id="oIj8O1oQHdGCjc1uspGj-61" style="edgeStyle=orthogonalEdgeStyle;rounded=0;orthogonalLoop=1;jettySize=auto;html=1;entryX=0;entryY=0.5;entryDx=0;entryDy=0;entryPerimeter=0;fillColor=#fff2cc;strokeColor=#d6b656;strokeWidth=3;" edge="1" parent="1" source="oIj8O1oQHdGCjc1uspGj-50" target="oIj8O1oQHdGCjc1uspGj-4">
          <mxGeometry relative="1" as="geometry">
            <Array as="points">
              <mxPoint x="311" y="539" />
            </Array>
          </mxGeometry>
        </mxCell>
        <mxCell id="oIj8O1oQHdGCjc1uspGj-62" value="" style="shape=image;verticalLabelPosition=bottom;labelBackgroundColor=default;verticalAlign=top;aspect=fixed;imageAspect=0;image=data:image/png,iVBORw0KGgoAAAANSUhEUgAAAqYAAAL3CAIAAADXyxCaAAAAAXNSR0IArs4c6QAAAERlWElmTU0AKgAAAAgAAYdpAAQAAAABAAAAGgAAAAAAA6ABAAMAAAABAAEAAKACAAQAAAABAAACpqADAAQAAAABAAAC9wAAAADC93fSAABAAElEQVR4Aey9V5skSZnvaa5DpSjRoqpFtULDwDAwzBkOM2efvdmLvdkvsN9w926fZ/ccmGGgUYMYztCCpoGG1qJEqhCu9/eaRURlZbp1V0JWV2b6a10d6WFubm72Nw//m73KgrZtjSZFQBFQBBQBRUARuOgIhBe9g9o/RUARUAQUAUVAERAElPL1OVAEFAFFQBFQBHqBgFJ+L4ZZO6kIKAKKgCKgCCjl6zOgCCgCioAioAj0AgGl/F4Ms3ZSEVAEFAFFQBFQytdnQBFQBBQBRUAR6AUCSvm9GGbtpCKgCCgCioAioJSvz4AioAgoAoqAItALBJTyezHM2klFQBFQBBQBRUApX58BRUARUAQUAUWgFwgo5fdimLWTioAioAgoAoqAUr4+A4qAIqAIKAKKQC8QUMrvxTBrJxUBRUARUAQUAaV8fQYUAUVAEVAEFIFeIKCU34th1k4qAoqAIqAIKAJK+foMKAKKgCKgCCgCvUBAKb8Xw6ydVAQUAUVAEVAElPL1GVAEFAFFQBFQBHqBgFJ+L4ZZO6kIKAKKgCKgCCjl6zOgCCgCioAioAj0AgGl/F4Ms3ZSEVAEFAFFQBFQytdnQBFQBBQBRUAR6AUCSvm9GGbtpCKgCCgCioAioJSvz4AioAgoAoqAItALBJTyezHM2klFQBFQBBQBRUApX58BRUARUAQUAUWgFwgo5fdimLWTioAioAgoAoqAUr4+A4qAIqAIKAKKQC8QUMrvxTBrJxUBRUARUAQUAaV8fQYUAUVAEVAEFIFeIKCU34th1k4qAoqAIqAIKAJK+foMKAKKgCKgCCgCvUBAKb8Xw6ydVAQUAUVAEVAElPL1GVAEFAFFQBFQBHqBgFJ+L4ZZO6kIKAKKgCKgCCjl6zOgCCgCioAioAj0AgGl/F4Ms3ZSEVAEFAFFQBFQytdnQBFQBBQBRUAR6AUCSvm9GGbtpCKgCCgCioAioJSvz4AioAgoAoqAItALBJTyezHM2klFQBFQBBQBRUApX58BRUARUAQUAUWgFwgo5fdimLWTioAioAgoAoqAUr4+A4qAIqAIKAKKQC8QUMrvxTBrJxUBRUARUAQUAaV8fQYUAUVAEVAEFIFeIKCU34th1k4qAoqAIqAIKAJK+foMKAKKgCKgCCgCvUBAKb8Xw6ydVAQUAUVAEVAElPL1GVAEFAFFQBFQBHqBgFJ+L4ZZO6kIKAKKgCKgCCjl6zOgCCgCioAioAj0AgGl/F4Ms3ZSEVAEFAFFQBFQytdnQBFQBBQBRUAR6AUCSvm9GGbtpCKgCCgCioAioJSvz4AioAgoAoqAItALBJTyezHM2klFQBFQBBQBRUApX58BRUARUAQUAUWgFwgo5fdimLWTioAioAgoAoqAUr4+A4qAIqAIKAKKQC8QUMrvxTBrJxUBRUARUAQUAaV8fQYUAUVAEVAEFIFeIKCU34th1k4qAoqAIqAIKAJK+foMKAKKgCKgCCgCvUBAKb8Xw6ydVAQUAUVAEVAElPL1GVAEFAFFQBFQBHqBgFJ+L4ZZO6kIKAKKgCKgCCjl6zOgCCgCioAioAj0AgGl/F4Ms3ZSEVAEFAFFQBFQytdnQBFQBBQBRUAR6AUCSvm9GGbtpCKgCCgCioAioJSvz4AioAgoAoqAItALBJTyezHM2klFQBFQBBQBRUApX58BRUARUAQUAUWgFwgo5fdimLWTioAioAgoAoqAUr4+A4qAIqAIKAKKQC8QUMrvxTBrJxUBRUARUAQUAaV8fQYUAUVAEVAEFIFeIKCU34th1k4qAoqAIqAIKAJK+foMKAKKgCKgCCgCvUBAKb8Xw6ydVAQUAUVAEVAElPL1GVAEFAFFQBFQBHqBgFJ+L4ZZO6kIKAKKgCKgCCjl6zOgCCgCioAioAj0AgGl/F4Ms3ZSEVAEFAFFQBFQytdnQBFQBBQBRUAR6AUCSvm9GGbtpCKgCCgCioAioJSvz4AioAgoAoqAItALBJTyezHM2klFQBFQBBQBRUApX58BRUARUAQUAUWgFwgo5fdimLWTioAioAgoAoqAUr4+A4qAIqAIKAKKQC8QUMrvxTBrJxUBRUARUAQUAaV8fQYUAUVAEVAEFIFeIKCU34th1k4qAoqAIqAIKAJK+foMKAKKgCKgCCgCvUBAKb8Xw6ydVAQUAUVAEVAElPL1GVAEFAFFQBFQBHqBgFJ+L4ZZO6kIKAKKgCKgCCjl6zOgCCgCioAioAj0AgGl/F4Ms3ZSEVAEFAFFQBFQytdnQBFQBBQBRUAR6AUCSvm9GGbtpCKgCCgCioAioJSvz4AioAgoAoqAItALBJTyezHM2klFQBFQBBQBRUApX58BRUARUAQUAUWgFwgo5fdimLWTioAioAgoAoqAUr4+A4qAIqAIKAKKQC8QUMrvxTBrJxUBRUARUAQUAaV8fQYUAUVAEVAEFIFeIKCU34th1k4qAoqAIqAIKAJK+foMKAKKgCKgCCgCvUBAKb8Xw6ydVAQUAUVAEVAElPL1GVAEFAFFQBFQBHqBgFJ+L4ZZO6kIKAKKgCKgCCjl6zOgCCgCioAioAj0AgGl/F4Ms3ZSEVAEFAFFQBFQytdnQBFQBBQBRUAR6AUCSvm9GGbtpCKgCCgCioAioJSvz4AioAgoAoqAItALBJTyezHM2klFQBFQBBQBRUApX58BRUARUAQUAUWgFwgo5fdimLWTioAioAgoAoqAUr4+A4qAIqAIKAKKQC8QUMrvxTBrJxUBRUARUAQUAaV8fQYUAUVAEVAEFIFeIKCU34th1k4qAoqAIqAIKAJK+foMKAKKgCKgCCgCvUBAKb8Xw6ydVAQUAUVAEVAElPL1GVAEFAFFQBFQBHqBgFJ+L4ZZO6kIKAKKgCKgCCjl6zOgCCgCioAioAj0AgGl/F4Ms3ZSEVAEFAFFQBFQytdnQBFQBBQBRUAR6AUCSvm9GGbtpCKgCCgCioAiECsEisBfhUCTGxOalrljIJ9uDtmaKjRNa5qmjoI2jsLANMa0hs+2ltsFwbGb2nx7zp5aTUbrUgp3lD9eg72Om5wseX4CnuqlE92p6s4WZLqSJ9vUANWVYs8Ftaf9XXVIXuBrZ/cFi6i7PT54su5qyO1uvxdOTz2NWT8n95SI7vl2+Iv/zOFSn3Rce9rvr92DczO2PwX7Q2hK0zb8bvhdLAabAJQwPm3R8LMhK8paE0R1FUdxAEzuH7WWjeH8JmU1KQInRiBo25P+6E58D73gAiNQNCayL3P3Rm8beZeFvMjcuzAgm1dazEPGW6yuTWvz+SoF2+U/8Cld/iqHCtyDOV5xyOHCHEcP+I3n+1UUnrGUl3JXSjzcWHYVJs/BePxkN9GdvPzxml2Op/nmsZnniu6ZgFmO+/GLfOU9+Byv4OPb6cPfEmpXZb4OewbAQ+DGMyOyT33XbV+JDXO0LDSD0AxDw9MNAPILkfmy/ERkEsCz38Z1mHJUlVN4n3EOTRQEUbKaVHv71XVTzVME1ggo5a+h0IO/BIFduzThncRrK2L90sCJTRi0gby/IhOkdZNMKzMtzP7CzPPmt2+WvM9Yx6wTX0llvMHtAy4MgjAM+XRpvhCyo7Artm7ifr23Pj58wLWHv66PqWF9fPig9ZAsHehMYdY916ilvx2pLLrz47S7njxHatKRoiztyJW1X/cqH+roLA+WnflMsTrz74y66/fhedDdLUisG1BPdmdbJLM03eTb3Xp5orob5Gs/z27nvRtPQ5vu4qDZPe6fDeIsCidpOMmi7SzczMJJbJLYfDmcD5N4HEfyI+LqNqgrmRaHLPUhfpkt8xOL+WdPm3FnKzVTEfgkBJTyPwkhPf+xCLAIhGNDU0Wm5p+VP8oFRTOaF+1ebm7PAv7dmprdWTtd1HuFUIhbwbuFu6t+MROqszTvPoX7pR4rFljz/Xo20Azddcc+uxlf3p6dyZNtKs+JvbJ7fc6UpLP+zEPV+7NFZ/k0W4k17j19MO9ebpehFY/cW5hvp0X5s7i7Pb7+Tj3L3tbDjY1nvHzt990XRZIndZ+oZDHdkWoPhTdOPHXsiqIbfp7wbsq/NFskcTBMg4002ErbS2kwCVsW/V8ax1uj7LHN+PGRuRwLo4tkrK1M6J4raS3KhdpEpQmZVl861hLNUATuBwGl/PtBSct4EahNFbRl2PIi4t3K+zIt2+hgUf7PD7Pp3Nzer25O29uz8M483M+DvDSXL8HoUtZ9cuCOr9rFGOp/qNN92glBk2ahmxmsKdWp9Xfm3U2qPK/s9eVHLusmalaTnhPB6EgFy6/dBGKMh6lN4qln5tEc+BQZRTejedby3W2X3O61szGb3TMNb/0+HEQ73ZVqT/trD/6eaoyfervu6h9fX/t97cm7hSDLSe3xe38Ab4cGEc8oMRux2Y7MxJhhYD5amI3EwPdPj8zzG+Yzm+apkYj9If2g5aGuTcCSn59N1AYxs+PB8ao1RxG4DwSU8u8DJC3iR6Bt90WNGvDmSxAy38zNnz40H9zJf/JWtiiqnVl1sGjnVZzXSe64PP+I5TuL9cgmDkjkvHA1sflBFLdRRAHD8pXPtrjL7az1kce6lGXbnY0qTkj5vle8Z1Fq9pm2dCXezF3ZJsu6OWHmEfhHg+5l43TRPRcow+76a59Yw6PIKD3K8D20x12p8igCQuZrXckr2O8qTF4Bw3Uln/TF2YJ0XOFZnZe+Vb6nX1BuR+VMHbrh8UqVtkwkRq6RSWOh/C1YH6V+YP6MiWppktJs1vnjaf7Z7egzV0ePbQafGYpNXwqo2LHWBQJ/Ew/EfKa7OZ1t1ExF4C4CSvl3sdCjvwCBhpczwsc23pmZP90yr75nXvvQvLdr3t8xZVWVZV03bRMmBhpnySJFZZ3mhPZ8ugNysmAG9ydpkKYJK/s0NUkqlL8dVMwN4jhAycn6nsW62AAiDKi6qcVHXUwXOntXcY+u5KO0yBkrHruk9LyCq+4ZgtfubiZK266UdE8FuomRVXt3d7tqtnndEwr/6t/X3240ISxPt3xTq9wzBfHp1H0Cec+wG1/7fdIOz0zG+KQUPqlGPm/qoC7DJozaUdxeipLtOJqEQbQhEM0LUy/qsF5sJPWlQbiRxv/HZwaXh+ax0Ir6sWQoGVjmwqmY9GlSBE6OgFL+yTHTKw4h4IzNsM77/dvtL/+w+OWb7R92R7dKs4Uln9BRA9XHcRiFOCORhTV/IoQt/nvyzx1IfbEo7wNehfZtGEaNNeUzTw3zJEkGg0GWhUkikwCptDHJUscpXw8nnAIPf10f1x7OqcSnoCPlTffL37e8Kj31MN/pqN1nRMeq0fMqrzzcBWqd9Vee/vpM6v3SkW6uLjyi/cbjTFh7JOM+qvat8huP06Nv6mMfwg6EKizhupJPx+/T5fvv211/GrcIGOZBiX0ednxbUXQ5zsahmUzfCNPNZrjJ475ozKIyGI00dfWP7RsvPLb1tWceeTYLhqZkxc9cruEnpcv8ruHTvE9EQCn/EyHSAoJAbtBCDpp6nAZxAn1DiHFhguJ2FP1hN/mXn+X/8fro1izgDc5LsKqnUdBtU+wxfBYBQGfCUoB86B/nZNb6aWYQAPDCe+YqOk6xVsfCOhUfgRpzJzwF8iZ1ollHkU58KxOLTKYXQr/WNl3cCG0Jt/oPELdKA8TTwCVnDkYRZznopBF8YqbYmXxSAZ+bvc88zUeBPqrrJmQE4z4B9aqDR3rhs9h3buNHCvPV11/fqr32TH189eCSfvym5GA20plf29E8fspnk7Ee6COX+HCoPN6Hvvt6umtmVTDheS3nJev0NA0rczWsnr0UVyuxjHsg10KpP2TRtar9Wpz/86X476/Fm/LbyxtT5U1sQhz95OcBUjE/ATMLGHZz+UiP9KsicBiBbkXg4RJ6rAhYBB7DS4wlnI0S0uBZjBkRQUN+8kr2x3eKP/4p2NltFojvxQqvsab7pwabJd0GSb4VDEQVsvjQvHbnANlBmoS4No0yXNjCAe9ADKNWlvzC1qsmcJznbRCi1w0ICyQTCLEgEE2Bk1IszQZZQlkJBJ9ubU4BS/by4ZbT3Wt/mSysbvbX/e2WCfilAie922nV7+1vN1N7m+lhcOOb+ngr8pzw9dc3VfJUc+Lx9eHjnqLlXZYPmzzYR5I8ozyFxjw5YzZavVMXP56X053Bl7eT59JhWFUpZvvYzAbiukk50TsEYnZxQviP3Fa/XnwElPIv/hifTg9Z5vBGgQuLHTPMqmD4YR7+9s+L/+e7g91F8tEsnsGnvH9YL8ObQXzSV6qvkTAz1a2M9hDpNyUy9DDYWQzh7zgKMIPCxymO5B8r8I1tsQmIkyjhXxokCfaAMhUYIPB3C3lZtwZ1a729ELEi4bV07j4xhnMv5ZIpgj1an6WFcnzs7exructngtFdwDNF8FGdj0K6K7chETpP+er3Ua/lnc6aujN99fhW/yDaWZHHPd5LvT5qRz/UXX9nLg94d3HLq12X+O7re/7Bxw2lMLrlamxSsccnzg7VW5pfS17l4Om8uRO175ronf3qnWa+UwbpdvxUTES+3M5PkZJEojRBusZ0O/BYfHS1XPP6iYBSfj/H/cS9hjHlVVXPDGwexPuN+elvzQ9/Xf/+JiLFEA00JnqY7cvSuY7CeoST/qkkrPZkzR3GTYORoLwjYV5WRbzcOEJsi8pzKq9RUkMLh/M6ipokrVOW/lnEJ8TPFGEbY0CKWYYROlmq3pkMQILMBmSmElLQqpwh+8NWd/Jytv/okc9sivlHZ389huGdZSXTR+0+OD0zB0ikO/nq91GXjzJ97fHNiHz37Uatu+2S67Ol8FG1b4rmm1L4zPR8/fXZUvjw5AnkFKPG0yiPMcat/M8TboFwi/v1El8mnUkeRhnKq72i+lNZb2Alg5Zt27xAvAcuEfFUFUncHx5AtAQy69WkCHwMAkr5HwOOnrqLgCzx4UHh2c078+SHvzXf/5V56U+XIXdeM2HSIDYX8+UqlvAhlDqld89druX9JzztlkPGWYORISwuKs0Aq2eaWzQb6JkxgDIL8pmd8BoUE73LWRHFGAAmWRIPUv5hGYAewmwMI24hhESAv6aU2USLfraNkonUbF/Erg32s0WfcReUQ0c+6nU1HCq4PPRRV3ftdqZzvBJyfOV9lOYr76MuH2X66vE16JQeB2/8AN+UwjcVOy1phw8HL/72QZHHVmaZwv20kOP1k+b43n0yvu+nRRgOJq1JF3FbxO9V1Y/D5vU6/D+HCUZ//AuwM43EE5FJnu8h7HxyNLOfCCjl93PcT9zrunwnTrcqLItb84NXzX//2eK1dwclL7bkAELFuCzA4A3btgrnIwmec1qprNBZuvi7whq8Gd26WVwAZM3HVMO+dYWe5QBhAJ/iCUhJRA2ELmlF3/n+3Ar8ozZJ6kFaJ+L4hydB8Oim1MmEJgnCOEpRE4g8Ax2/EwnYY0f5ZDa+Na994XKX44mJUGfyZHsFy9KrruSD2kdFnhnLiaULgn5X8razq/DH5Hkp3NMxHw6+W/jq97Xfp5jwja9vSsFDLCompqMQPSv+AGeWUMTxqwfCdsTJ9qWrd4JwYNiKJxoFMt3Jq+Z3+8VrRf35weT6KHh6jPVfHLA9j0zNfNMMHwaa30cElPL7OOp/QZ/RHrZm9OHc/PhV8/3/KF57vyzCbDAOckKESYCwmHi7vMN4nck6T16onnfzCe8twvzl61yU62s5+ZBj0YLGDY7/NskqR8Kcivacf7z/mIsguHdfy+YKL8WqrYvCHOS8kGvD8iho3t9P2OgvjcJhGo5Sg7gUywDU//QHmwAXFIgaXFofHO+EzEdOkryCd08lJ6UiX1N9tLAG9sj9/dS+AuXeC1bMdW8uU7Hu4lYgdLSsfPdRpqcaRrn7jA+37tInl6Z4brs0/+zqmfw4QElsUHlKMUCRqFTyMLpEw3jeeXh5mMnZqDd4jEXNhCcK/q1txLyznkc/emv67KWsfSQZbJgNOtkCGOVtDMtlTfpHEehAQCm/AxTN6kCgnRRl+NLvzL/++/Q37xQm2xyM2ONzRgwx4Xd2zrP6SITrTVi0SNXbzY5KTp4llvXyOkeeL+80eQvad2KJt9MyUULW+5znb57YCGVSRnSktQTgFSOAwEa1Y2qCRoDAQbI44wyrf9wM7PqILe+SsEkC/L6RKrSff3RhQwCJLIDwO3Jze28fZUpdJ0knXR2epG4pe1r1W5BOevNTKH/S+/r665tqnEITbRU+aYF7uo7fxfVLHmYeQDs3JdSkrPtXD9iRSx5vzUFt7sSLPK2CJB026cYiihfmpY92KHl9Ej85CjZ4ggMcWphBMEPr3hPhSLX6tbcILOeSve2/dvwIAq3ZKdqkKUds/iHiRgJ7RzMTzD80V7770+n/+6P337xzKRpfxlgP5/u23kmCJ47U4L76XrWOs49f4oti5lsu+VafvnpOel86L8usoGEFRjTA4SgYEvo0MY+NhU1ZVmH3J5IApg+iRW3m84SpApMFZAuygJMlnCxtWZ/xZhdC4lOuElkFPFFVBwICKzhAFskExeW4Wu2M5xZ5UsYmX4ih6riDlytva15efOiPi3NwKGN56NsP3tlMdJSXxnYkZC4duTIn7M73+eWjsOmux828jp0rLHrHssGz+74+BYevvz7cumtHSuE5weSzTQK2vJ8X5Sionxxljw8CNpHcX81Z3LivRx+P1PXx4VO3UEMt5o+Exd89Nv7n5+LnArPRTs1iPx884mRt3J9HiiVdJI6o/DudKfhxhDXnfCGgq/zzNV4PvLWliQl6y563xIFDc43gsQpGeTXCWO+V1/Od6cCEQ966xJENzDgJY88b+IG380HfgPADvDTxCawkbHDAlrYH+yEGgLtNgeI/S6JhEg6SdJBKsHTCFWxMRAzg/sF62AJi4CDv6JS5g7x9RdmKYaCIH0SoH2RspyLloWyJIEyCFUX+sOyZWwj+xd1cVXO/FXhXq54KVgx19LRPYXG03Oq7rHYfZPLVz0CcKHn767uBp3YZVnkIsB0xGWEs7HYS4obiSYwLzw4Phpy3H+7rkAGOE2IyvjdtXn7PpJfN84NxOiCIZckdELpRWJ4uSjMH1aW/B94eZivl93DQP67LbT0JIpZGC1POwmy7CNL3D8wrfzL/3w8Wd2bRvNyKsiEvITbz5tFJ4swXm/3j7nEezlnnQF6esldQ25ZV2VYlK896v0TX3/KmTuIwi2SncwKgMAl4bJsJUoA9IOEBUokTQAHxMJDVO4n3LwcNBZkIIMdtdq0XoDvLhWLNZVn6uIX8sox76R+DbunAcCy/Xt746AlP9pJOjpZ2kofjuR9jrsjDcZLki0Loo1gfOfqmOD6DS195Bqqz+b77+nor1N6V7MSP+V89DNrNNBmyl4Q8E8goluXd7deNoP3w/eHa3NdJy05VSdmM/nTQTOeL+UHQPJk9MxqPWdAT5FmetpDZJDXXccK3k9qadLVd8y4CAkr5F2EUT7EPYn8n8ui5+OOF8W5hfvqa+cGv5m/dGlbBIByZaCCrh4DVnN3P0yNPPcUWPZyqmNPAwdb6D0TEB9pxbhELJ/AmzdkEpbRQINA3zUfTnJDAA7ZCTyKiAWIMSDRA3uahuAsszQVsbbLzXcAmQYWQiKzBbL3iemBJorauhmu+WB/4nAN9AnPfqt1Pdd04+wTgJ63HR5k+JzoJmNSVvLYUa5K89yrv1KG7esaj+4Svnu7S9gm5tyHLbzKxa+qkqcZxtJEGE+shwiOFKQzJPgtS5bo3PGnymNjkMt1nWC7CFMdTs5uHe3Mx2kfxRAj+r7lgPCIystOIgKhTCOqU8h2E+rlSHCoSioBDAMth3NzY4QOeujULf/yK+f6vi5feqAcjsYFvWfEGLOwJd2PiYOTjgwsAZgnlo313VoErvueNTNwTkbVKYv0vBMH/yFFvtiMioSS1ISpaMud3hSWgrDAfnbC0h+ER4YaiArBaAKrdHAqJIOMXU/ka26uqqWvov05R7NqZhNQsQLpPH6Tr1eGRAj4q8m0C6yY0Ryrhq4+qfdTrs+HwTVmWIuvjN/Z0wEe9J13F+h7d41IW1zTfFMenyPCNi3giNO0gMJtJuE3gSEvGNOZwdxkLebBsWuO8znSUH9R12NRi7J+aqok/rM1LNxe3F9FjzySTxEy4Pbs7iC0qT+HdCcRxmDWnbwjoKr9vI/4J/a3K/XS8UZho2pgfv2b++y9v/e6dqI232aQbFmzqvKoX1oud7Tshqgv7/MDN68TbFt28S0ki3lTLN7Jl/CVZhhJjmDUZAvtFyQILq3+JTzBf7GLNx3YABABO4zBN8ACQhfz2hnA5SKYhsdGTJE5QGJAzXyyX+25tR45913uFKcu7r9u6OvBRmo+6fFTtkxb46veV99/3MNmtWm+d1+9+OXQkM6SutKLIrnNdeb6pgyPU41d4bised53J118eEvQ+wzDYSsIxiiE3veNxsTdwla2rdEN/uH6bI4g1AXtcyeXICZoRPn7xW/Piw1lxYzO5NjTPbJorzDSt558ojQ5Xocf9RuDQi63fQGjvHQLDjH07Nz6YmZ+9Jv73r78XEU5/PCSsZ4NuMBAT9aE4zmG4h0YfihNNwAVMCW7QK3M8usdr05JrQAxfuB+xqYTpI14fjor2BFROMV6uwj3205HQzgLvQLGCjCpsrLGkam1M/+atgyIJgxQtQBoTD2CQGRQBxAMQze1d3e1dbH0UIpKErnTS13x3LTK56ardr+PvLu2XFvgo01fPevl7pIC3nR6u9mQfqfXuV9+q3XffNW3frcIeWc42ozgap2bIfK6WADv4v6BGs8+RFFoSv/2zbucyc1Vdm44QSCR1nfIbDKI6ahdttl9HP3p79uwltpYKkBZt8tBYf32V669g078q2Ndn4F4E2B6vaJuX/hh+/xf7L7+FVfD2COW9bN2Nn3pGfDoxZcfIHLMgVrS8dE4qUb33dmf2W1nh17T0j+KNCdPIRAe7O3YutZwOfXOA5NRFP0kQpPJWFlh4FTNZkGC/FAgHGdlcwz/gIlde+iY8sFqBNMQSkF3R2ixiiz8xs/7io7DsYZqVb/aSbqh8UwGfwLm7Fn+ubzXsC5Xjq+mk1O6rx5d/WvX7+uuTgvja8zH5scR5FNtPJomY3K+l+G6g1xce+brOXx6wZwQRKBaL2BCEPy6TAaEjiyR65eYtClwbja4PzCTBjk8ePWsaevihOlqZfu8PArKo6E9vtadrBAqzU5u0bUYphCYkRJqZcP6OufL9n5jvvTh95/Y4yGx0MLSGqJrttrjry9cHPj94nyTaRxW+V6rv6fTd17dP+brBRw589RA+uDP52oMMpLO8yO670sf0lwsw+8cXgFCAw4EIAIgHsJmKPAVZAyYCRAJIRFwLls00F3ELY0iFWAXSPKEK/tnmuNc8K34mL8wd+JqzL7ulR5mZMA8RipOiZbDadfje1sr0pStVnu76LPC9+dZc8fgdZP7UlXz70/ueK58/PaYaXdWDRfeNffXXngeuYSisMohYDRLayfo4kBEW+ZVRcm0UbadN0laEiioDmFnKuva4F/L6tZxHy3knZw+fqokHcW+O+7pD3Kh5fjXMv/b4+J+fjZ4jDr/46+8VyTbTTxFDWQkNEbMCfu9tYYLL5GjqDwIq2O/PWN/TU/bigEoiTM7su4MXIPF058Xoh/9Zvfr7g9v7dRNkonaGSER2rIE870HvwX0RRm7agmlWWc3z5mAm3I+z/nSAPsUq/uMIf25ZI0b4CZrRSGQA4o4licA8kuCGILUUDjGLTSDbq8IorPlMm2WcpP3sQ+R64eQBp7W67SZSP17e+/ov6Txzavf1VHRiKcKROQugW1IfIigjxK7s0Sy/LTsN6+zQMtPis1yYrWYF8tWNGpfLWNtPLuCAUPxNkiCoe/+gfvm9KMJffzjGrzaVJ6BkRz6eA45sVWwr8XG31nMXEgGl/As5rJ/cKfzvo4j3xsLkC5Nu1W3y/tS88ob515/c/uhOc1CkwbANUyT4JeFhWLFYN/JPrlZL/JUI4MMn7FDB+yEr8rLGGJCFcLA/FSss1CiY/Yv7n50HQPlbZcPeBogSCAmQhjGBf6ATTAfmVjfMgRA8Kgn0MSJ4wStA1BKrl7579YtIgJKdyUd1Pq7yMCbmactV7JG7+FbP3no8q3M7jTlSt3wVyUZn6m6O1xzPc1ufMEvsPLgtqiCZZ0lcRpmXMQAbg3icMFIyXhKDSZRFTgDT3dA1qa874TjekTW1Hi7AqSHTxTipm+Gfp+3BfDGdBq3z1w+nMqtvkHpE+O0J7CK3IyCQpn4hoJTfr/Fe9xZDcZH/FnNrKxztVeZnvzU/+OX8rY8mJRvQZXHKxjXhoq7KoB17Xo/ryvTglBEQxT4qAXmhi6Mg+M/ZC5hj3AHZmxjJvzXvl/f2/oy9fwZx7LYFGtl4AHI1RuCW8BhnNMcECbJf2UbAqiyEg1gbysrTkbrEBexKvlA/Hgb3iMXtArSrei9ldhYm06NPsAqKrmt8lOYzx/MpXHxWqgDYmcQ3DjZ2wyTbMTcQLCO5nQWjRAI2MJrWRkQmYGIqYuuxtUmT17WK1Gc13XCZ7pPLD6W7X7IyL9M0j8xBEezM2YenwF+/Ss1XY+xR7QJf7AVlu10JLMWDdKgWPewDAjrifRjljj5ikSevW+t/f/sgZH+8H/xK/O/jIat/MSHmJVRXOYb68uKipKZPBQHmWGITKAlXdnmxO628bKS20gdzLpdVOwSInfYkJEgyAQFlT6BKNP0yYO21TTZlheijmDWltQywoRRQDciykwL4ECI8oH47NzC7Hi61t5FbHUn+J+Iu/Ry+xKcj99XjaY53iuCI8PAd3bEv1I+vvBWkH6/GO9W4l3rvXij1MNsSMOB7tmNoszBKw/BSKtM1ic+EuwdnxXVeYhbc46R3iObXUw2ZDdibuZYzLjJdszd0OfYrO+yyfXUTJtwM28DoZp2+cru4XUTX8NePzAhZDkGmkNpxLSqAu+3Vo74goJTfl5E+0k/nf1+30X4l++F+999vvvZu3CbbiIUdt9jAMPA+kmKmAJZtjlShXx8AAgMjxlwkt4wWzwj7Yg7jwk4AVre0cnhyeNFzvmoJhxiJjN9O5Li6uDWVeACEAEoidgTAasNFAbo6RjlgvQNYaCJetqwkVOJ5/fsE+yenakdPq/av/vpW1acVEqf7rkv2XDXi0F/ffVcr7UNF7aFviiBWe3d/NKJ5GcUhvnmb9o1rlfHC1IwgY8h/rv4lea9uIix+bwdsjmRZ1l6WO3yV+Os3Bo0c5jeNEHz09qL6aL54bjx6fBzcGOOvj/UngSMA3jeGq9vr34uIgFL+RRzV++jTKMtbs4H+/qevmB/+avHaeywzhpMBfJ+3TSbWQbxuCK7LW4N4Mk4kcB/VapG/EgHWf7yuoQBWfywP+evoQSzybZLFuaUKPnnXD+37HmIQ8rZaAEsS4Z35gLc6WtukiqIc7QCsA7uYnYXYbEH7GABmid0TiEmdMXZvYXeHez5FR9CVHM0cP3NSyvRNKdar2yO38N3X08wjV9/96qNqsVXtSgL6CRNNZdBQ6jMvIwbDQCLsmgHCs7YpxF6DIBcQvXC+xK/GxP9egndf1/1yHT/cfddSV2x9bYtCjrCQZYO5AHs0Vfjw1dlBFf/w7enzl7L2kWSwacZSqXiLEgXqhH3S4uceAaX8cz+Ef2EH4nxR17/5ffCvP9999U0id1zewMRbwoLM5M3TpLIKCAdYjhFLbp6bUbcP1194c73Mh0CxYEMc2U2XVaKI31nt25CpCeGN7fu+Xkr0pQJyhsHcViUUBl1h9Mc1ciol+K+s4xYMJ//wzJCg6+aD3QrDsSRuBokZJsEgabAEhNc/i8T5QSYfxfrM93xt8U0RfKtwXz2+/G7Ct7Mr3yWd+UDquoaYhkFE10J0RTBPcHhFbsNEoBWOh3WtB590Cwp3Q+wqPPL1yF0YSleYBnPgPqUMjrVElCjR5ufi0ZkNqyjMk+jld6ecvD6OnxwFY5HkEUqTqQZ2m9mRmvXrxUZAfDwudg/73rt2WtdRadhWU5DAgjsx+8ZMPzTX/u3F+rsv7r19exRm6BmJErOIUN/H407EVovMoyd9+b6nyucHj8lgZzqt+h0RHr+FL9/XzpP2y1f+1Pz4PRzlo1Jffxc2qtKQ8OyZGRPFJWNCIOEBIB5GRmwAkQ0Qd4iJoA3BSCghwKR3vD/QPlCte5HYLRjs0tXZCiztEkxdYBViTdNlQsN1DZRHDVWDZKkjwUgduSxOPR3w9Zc5UGc9ZXe2565y3+6RZCrVWX9VhsSoxlSyWLSDtnhqFD8xii5FZo8weza5F+/69Vs6X1nBUypc51fWkW6J7aoNnF1YsfyRwnwtbfl1Det6doIoWCyuhouvPzb5znPxs4EZtQf461fZlTbIHKhAYv31mUQi1tt27dTPC4aA5YEL1iftziEEmibGgosfs4iLWUmIDHGzKCcv/sK8/Pr09i5RdNHzyiohYLOP7tfXoer08KIi0LSED1zU6Hmb6bTZQdqPoZ9ptzYHfMruAFYXIDsDRWwZuFxUu8Wl5W4eICGzhcUHl7yWODNOQiFPnWlSWU3yfDlLBY6ZTNjU/cyd9FH0MLiXwr31L1vl2vbJnz7pBb3DGoMfG5vcEUdBbCmIt2Oh6KyU8o7QRbcv3hQftxgTXYCF7UhhyfekIaOYRHUzeG/avPyeSS6b5wYTJiUxdqABjrhsEi0N4DNA2u+txlO7Zp8fBJTyz89Y/UUtLQNiuLFUnkbFwiSb7MTx4Z559Q/hv/z44KPbwd4iC4cSGASzcHHO5p2k2r2/COfzfhFCft72vPTLuiGQ67QU0ibdWczhKlz8sAEU1mcvgSiA8i+NbTRAaxbAV8qIh4C4mou4hgtFI4GSQZhM2KlcS3HgFUtXjrR8uPnYi40MOy/xrfK91N5Zy9L4seOcT8ff3RqgREAiU6CWQPqbKfsp4z0hUx5fv5zFvlwg4Di+l7qtGkemR+Q7gieT5GwdpLCbHFiyB2o7e5cCRzCetEUZx0Wd/GnazPDXPzD1U4Mbw8koROCP/IX9dTHrExuehhmdjLCmi4mAUv7FHNd1r3gHSJyVGrduMRGaLswvXjIv/vzgzZuDCi3fMEgJ38aeeHkZ8nbSH/oauJ4dQCGQKXPDoI0bE0MYfIVRDnKiAsFfbVjiPs6/SojdNJcWIhxiawDMAFFRZ7FYAlJJk1JKKAqlgDipWb0AnxXOh5JsmGChKZlekPAslD/Hkgtlcyzbm+Gj9vVM48iVQsddyZfvq7+79fSTVTW6i6aYsEluGm1aX3y0+Nb7BWCFq7m/I2YOjk1ZlhW79jus7Ody9b+S37s+3G2Fk7i4kofrT8p5m24Ukdktw70ZZgTVaGyqx81XcOaTweb/UrZ/sntDAIISg0P24n3qyF68Mb2nR8tXWDhhYXCwH/70JfOjXxS/eaPGW4joWyLDi4jSutO0stFbGD5YG657WqZfzhICeVHAzmLBEODWbcXvEDbr+yGSaWkoYmqhBejcNvv2LvbgbPvbyp5AsRA/HM/KdnuM+WGQREGSYCQorgHIkFgzpgR8kxUuAWBsPADhOtwIzK5H1+4LAbS6v23EoY+7pHcok8OTUrhPpu2bOjjmvvee8o1usZ/9wDT8zrbYK4H5EI2h97ao6wXEv9KQ3HWYE2AOTQXsN5k5QcqrT+mriAxWWCwvka8C8TrZS1bfq1r4nMiM4q+ffNiEL9/Md/L4kaeSjcSwja/46zPSWBOKqEbThUVAKf/CDq3rWF3sEW+nNhmG9z952Xz3Zx/97j1WZJeW/vfI83NkuBKRLUStL6+lCw6Idq8bgRafPieDF2M8REIoelj0y+rfXuDIakUg+HvLMh2WQHxEQEAMRG3BendRssBFNiy7LiYhRgDEA4BFHsFElJISG1hoDgkBNctTJ7HgOpLPbNO32vbI++9Sacc9urJ8unkHQtcV3XnAhUADpt/MApb4bF4FjsjL723/Ek4RyK+QPUL5tAecSVKB5Xj3lfLrJh2+xNVzOIdruaQJUqQ1+OtvxDKfa+vo3Xn10WL21Gjy2Ch4dsNcdv762GYGSgrdY3oxcnV0L8Y4ensxStDVTT46CJHn/+iX899/kJbBZMiaH9/gmp30mNkPJRorfN8OZgRzVV2+F8uLfII9elz3GlnUy/LTpZKwLfCNoypZQlrvfmPGYhIqyTEQn/ARjmc32coVB0NR7WM42oSR+ATytO0PUAKw6EcwIFoAVv8cwIsSD64rrXXSR076FqCr9h4p7qX8NcUeuWDNo0fyfVOQtQ7+SHkApL+ISMZxhAEk8vaSaHuhqPgFMdvcJTHLV6ZYkjgFxu7TfXVTELnEpvUB32Q0jl0CnOsyd+tnDZ9OmM3HZS1eGOymlQaLKtmrIuevj0lGumEmMqTir88oSdWaLiICSvkXcVQP9SkK8L8vX349+P6/T197MwrSLfZeIz4X/njyarBrLF7CvNEWlcnxv9cf+yH0+nPII+Fonde+Dccrxnd0P5at16ARJgIiA2CfJSsKCM3iQLJDCfADh2AuwrSAp6hMWfO7FWiIBDm0OwPCcjtTMfGDb1D8sy1QGtfo/nFJ/8z2yV5BvlX4MV24tPrhJiY0YvZoJze4L9DZlgX0itTXbXMcv+6XI+w1bTshiCuzvoQDkb44SncHq69MHY4UXtZPMD5i7hXzqGa33hgTniKN0M28+r7EdWAz3+uDcBzLAErdMpnQF8FhvC/OMY+he3AuTpd62pN6p2nSOho5J6i2ng8i1veLO+bJ7/7A/I8fHLx3ZxKPeIMbU/DjL9rEo7b3LJd8q5y1z9UR2H3lfU+bzw/et0zzveJP677rZe6Rfvnyfe0/aX995X32VL7++vK97feM+0nLi26oK/nGC5USjgAuHgDB6TYymROQ0zBxEDk2WwY0mJJHLZ+IH5ppuCHVi6RaJNvCZ7blQSXrZJGP2+/iKmCTu68oqbmcdbb4pKHBMFXSHQ+gcJcd++TiY3mS0WCQgISDvaatFpxC2L4Ta2eUzx/ZSK5vxFcyjCGbomJr+kgasxSO2AkUDV69fonH5+p3Oev80rA1Tscpwi9T/khhvhYrsfyRU4Tn6ax/GiftrLncLr726OCfngmfZUJWz01xUA+2iNsLpiBKk9Vff4Xfuf97sin2ue/uxe0AfB8myEolfh6hUcKISKzDoqj+7Rfta7/f352xc2ctYlacqFpeqen6FXBxIdGenQME2EaoQHBQBuWiPgja2yErT4i73ZoMIZskZpUcpXHsdAHCPVYCzoHwIMEGVzv61UsluSgEnA2bmwpA4SygrY0gFyFYX7/xljz612Lk1CCrGQaVIupvmmbIbyzCHlYmJRShSTKDEfVHd5LzltrdwforpQ8fr7/SGUnuqtW1tqg7AUD2YHU/Vu6ufq6xB8uvTPzR69V1/N6seeWDML5inhsOo4zwv0xiMfBPaZT0Qnjfs0hY3VD/ngsE1j+Ac9FabaQXgSYeWb5fmHwWpVvEyb+5T7Cd8H+8+P6dvWhWEWKPn21Vl0VIaBAbp91bl55QBD4tBHgWuRXUXdRhXlcHGPY3oju4lRO7JsQRkHgAWRqhC8DYAO65anlHzAVE9IwxoMwPoNLp0vIfel2y3XIOQJA/u+BHKsBfd0wRp6+Qwvcmnw3BvaXufoPdUW2shQqwPat+FuaTQUioA5QXUD6NpYi4zyEAsI2x19894isMDLVzQN/XrM9XugnpLk/Zy1yBzsLulC3V8dF5yajO6zgpw/StebN4N5/N2vbJwdOj8aCdSq/YcJONteiTSE9Q32CWoOl8I6CUf77Hb916XiW8Ek2BZo4IqFFRm1++bP7lp3tvfThpTBamaSTRz2Z1i9UebyR8qtaX6oEi8NAQYJdXDMYstQUNPuKW4aDnnZJVplBlWJh4jn+AWPtDWjsjRP1sAUxAQDaqwTkwTFm6Q0RiE2+X0axKbW+s4N9k1QLGsloACQxEjApbSpwHOvu81qkfOWunEkfy7Fd+eDTO3pIAhji8o4Ng3rA9iEepNVEUqYNwttM5LNfeorOQtPorZTqTVUksz7jCrgY3NVnWtrpScLT1HJklcH7dryOXxOVBmG0Xsdmtwv0ZYpNiMAyLOP1yaudWlBbnDUw5whoTXwSEnnaumqB/zzoC+uI/6yN0/+3jXRckm/D9YhbL/ni/qF5+I0w3NkSiyAqftVNYY0KFXzSG+poUgbOAQEE8ACIBQCSBXY5DZXJsEru1H9QFzbDno+Udae9uXkHWNvpvOxCxP5vUSSzbS5tCu0ivOCvBACQgoCxr7U6DQnMNOi9xRLSKAUNgoe5Xn496l7sVHYNsWYv4slM7K37CVkfMQrYGEm6POEOOImWVL0v95fVL3l19JRc7endueWp1IywDlvn2V2yPJWtlmS/Hq9r4y0pc0iqHw+X16xnOkfoD7A7Q+KGEyPApSD+qzUu3q1uL8uozY5z1N6jukL++vjYsuuf7o/u5P9996mXr63JqknHbWv/7l8z3fnLntXejNt0cEHmjJPaZ6BcjRKW8DBGGut99L4HSTp8xBHgaeRyJ74ePgGVOS1IJUnuy7VKdv05sT84iSHECwGKF7QBmrNklIKB06IPpnNW/6P4TFP/BIJV5AIr7S3Em813YX0q2lGG9izNC5bHTWzLkMYyc5OBYtjUUEM82WksziSUYDKOAiHsjJjB28U82dcqxFT841qQoyX3KgczWbZZkytH61NoacnnJ6oRMku6mu186pyzShkNF7l4nDRsiBWHXRXbUZYejtkrfm9cfzYobm+bRobkxNldX/voiRtR0/hHQUTz/Y2h7MAhxmhrfOjA//435wc+L370TFuHGeMzyqI5ZYIi1MuLPIQsqlk28NDUpAmcBAWdP58LEOqZDlE0qc2zgHU0JG64ZazkVsE2HybDE55N/txcscNuYWW5YovVPWfpHqK+Cj8ZEAJZ1fyY71hMWkFMSDXC96j0Cwppij+T7Frg0zrGv3eOYatthEk5SM0CURsMwUpDoA1bwzx/2HWDqcQ8BS+PpneugO7af0nemEYemAtKi9Q9XRHe2iVJYSvIpGUxNXM66sPvqpixHCovufzAJ2fsH7YnoURAR4tAz3K8HP35v8ewWfnrRYOWvL+cRjaxHwt5dP84dAkr5527IuhscRmVeVK/8Pv63n+/95g/sfbYlfM9bptyNgy3soPi1N0GMMT8e2JX4LGlSBB4+ApWdfkoMf1T1bAJhF8RCo8JjNA+BOpS61kSHTS5+5C5wrWgERH0vxeKNgSvEs82stqzroETNXr+Zs1u0OP4RcGJMYBy2AyDcfWCuD+Wy48nJ/Y/nr2XyR07RzhWbwvA1hrHO5zAKxIeAwAQ0T1poV/yOLvnkx7hO7qurf0XeywIrtcC67N2DdSXLyw/VuT7lSh/+eqSwyB4IsU8ARbx2m3mQpkE6LFIaG7z64ZwJwePDwfVBwAyG5T9DZPcCFJsgTecXgaWrxvntQP9avlfkRCkdRSxbeNXVi9jsmajYqZ/8/g+K7704e/vWZpCGxM8Pm2nUlm3Qve/1g/YjXxpQHxuei+rHv3zxH+/vsRyX8aDx90lh7xUI322crz2HLMzvFuZobfp+Ty4ibs9c0ndfH26+esQ6vyv56vflxzFerazIo0kWEAxA1uXEA4DTWC5bCbxY+iEZY4s5+Wf2CWqx6rWs+NfdLGZNNpoRmqgWu4EnBuZGZq6wVg5mUopZCSnE3kAuYC5SrK60igCofdmdxergSH6JV3/XqcoKDo6c4hbFKjDCkXqgdc6SjuRX1o//SCZfp00UlObRaPbFR+O/fzJ9AXyauZnvN+NLdYseQFb7zM/UX9+heo4+dZV/jgZLmtq0WZoRFdcJGlFXDtp2UBf1iz8rfvv67PYuVrW8YOyLtBnyTkNSp0kRUASOILBPZJzAzMpmb9HItkCo+a2/3+UNvskWAETNQzuQsWjHto0fFBsKkfhgfzwE9CsaHiYDSFYECYHBTXYrMiOsC1GLb4zK0hRFXeQYHhQErof6mQEcmYqR46o6crD+akUXyzKre8pXaiKti8mXj03rku5g/bXzIs7SfTqbm/C9af27D6vkUvzsOEuHTIOQXiC7YD8uEh/IOKxtf2dFmnn2EFDKP3tj8rEtKtivxFSxwfUoN8GE/XI+3DF/+HP0rz/e++hWcDAfYI7DEp8pQUhgMKxxlfI/Fk892U8EZF85a3a3qKODGiZjdS9R+e4sDiQeABFpiY2fxqL+j9n8z2yzTJdgALJ/oKxuZdccUcwf3D4wccJPjZ/l1ii5nIVbA4NF3J05uwzH+MYOcD2w1gYo1Aj95xb1cjexQpBv7sBqB4TGbaY7ZQUDdk4g7LpKlu+Fb5eXrwq4rz7Lf7mRrcRd7j7JdFoJzsnlqzrJH5kaLUXeZm/O8nm5WBRBeG381HAo/vqILpDzM9NB5AIsbM/nc3lctVn/nh0ElPLPzljcV0swNJYfWcv8m9dDdDAzv3jZ/OTX07c+GBS44A2ThJk4obNwR24HTpx4X/VqIUWgTwiwIieJ2B8+Fj4VIuMPIYA4iktkAHUSYfIqfI9JzCPoAIgNbPcEGsQxCnuOOTV6PEEFgCMb8ndM9jCVOSiLeTWrmTbEaEuS1q7rHbfjQ+hsBSBfy7B3aXttrbCcE0jrJDELYU7gjg+fOrz6l1Iye5BiTiHiKndXuU/fVMApPtaNoe+2KhPX0zYeEo5/Vg5meR7u1aNBk0eh+Ou7doi7ozhMYE7BPyWSw2if5WMdqbM8Oh1ts79+XgIT+H5+EP/s1+bFX+S/fRPLm0GW8q7CZI+IILtNmyPejyKPkVJHxZqlCPQIgbTCDFB4UywBlw501lBwOIJlUZvBhdi6tg3RAAWWnR1Z1bIbYBrLJ6t/nO+h/I0r7Ellho3ZDEQeMBya0XCAcz5MKFaEZTmfT6uqgkpTm0LZp9ry/fLzLut3on93KrDi/iXh2j9HRAXU4FbtrowQ+Wq6YG0J5A6SJ5/LRGdJZLnCsvp3l9QEGWjYUQ/7vrrObjf1q3fKm7P20WcH+Ovzb+Wvj7ZiqWVcVal/zzQCSvlneniONy5oZnE4qtuMTU3//Tfm+z+5+Yd3ED5ux1GJLxLyNlOWmOTzk4T7xVbOKf2PV6Q5ikCPEcBon98GTnNtU8H6UB3H/GoI579iSWFCt/SnqOwrbYMBxBIMgJW7RN2ByBf7B5M2uFI1j7RtPcyCK4P5hmjWgroaEIBvlG6xWRB3srJ9WeXzCyU5A/vlp22KzebjCCWvQ/G48+vlu1wjPO28/oS33QLdUfuS8m0ZW0xM7VxanXIVWFnhMdanZBlkKDHESw+KoNll9N60+Wg3f3pb/PWfGmKiyG5HbLtHA5VEVuCeh786WudhlA61cRKwQ87oozvmP181P/pl/Ye3eQVtbAxNWy6IrceahGg8UXTJRFXbpjlqAB3hQ+jpoSLgECjjlQBMdgWWebFI5UmliN6hTz6JDWSP+TATFxpIDmVBLBMAkQGYcLJBSODqzuzOh7dn+++9Y+okDZEMbD1+eXt78+oj461tkw0kLKD7J1tZ2rSS7UttpCVVQ/grmT+ZMPo6fsCKqu3FTkDB4REdvN2/2E4LlsVsJVKn7ZDca1W/FHC3djl8XZ2SvlfJkM4T9kj2HpQpSzw3CXL+H79X4q/fXjaDiUTvseYQTAn0LQMU5yPpUJ2PcbrbymBRzfJXXwt++LPFb//MBtfbo7Fs3oVDEe8gvPdkaSIz83hRmUVuiKShSRFQBI4gsM8muvCf6OlR24vRiyPX1C3DrYJfJPzQn1sElxIPwLrvLXUBtsJwNg8ydqWcRcFevz3l3gAAQABJREFUENyhBBF/Ekz/3ppV70Q3g/B9AmZkw2b7UvbY45cvXd648RxK/1VbDtO4XXWvSHdNxvD/qvDH/nVLfIo4RYC7xfpGctBd/7L8Uuqw7KvcCZE+dgdRVYZ4IUrAhHGQJOyB8NtbuBO2jw3S6wPiHHCBSC2E+pX1BYRzkJaapHPQ0p41EQZfLMo4yJN0xHtEfrERYrT8AzP54b+Zf/vewc0PJ+Izk5pFU5XNbBxtdiLk87f2vUmcOc/xqk5aj6+8e/Ucr9933/Puxy8qlq7k9Wu3r8/jV/jGy4ezrzwK2uOVSw7GaV3JNy7e9ltqOV7TScv77uvo5Xj9D9qPf8GmP1jyW7U/DCqKAFk6B/mw2vxwdvWt/a07RYrJf4wpTUtwa9lEzyYnMODQHRTZHIH/5tbw8tXh1Uc2Ll8NNrfMYGgOKllkW7ECJgRV3eRVVTRsKhg8xrVL8raDSjHSdFoyu5A6+QxJ8pKQkrIJDg2oaINIL8QSQeIYLrDBt4mzUmxZo8kDj98/NR4qti6Pv76Zm8tB/pXHsm8/Y54mtFGdm+ntevOaC6FYBLj2yRQCayOiBJgVDu7u+vnQEdBV/kMfgu4GED4syxL2yTFB1RTTMBuyJ+d0lvzkP/PXX5/NDuRHzuuPTTFYi6RqpteNouYqAqeDAHyP0btMl+zC29KtsGw6rzL8/Mpm7avP5IZ/npkPW13GVdHOZ9Pbt6Z/fuND/PsQyYVR8+wXniRkT5rG2SAZDrPBMBtmeP+ZvblMBVzCza+um7IUOt/aHiBwl0iaNcE026quK/7gMU+EIbErTEQPb+cKdW2nIIQCtjQP/XPgPl21h4/JWRZw04ulLwAVubISfgCffAIEvT9rXv0gDC6b54ZZONm0uyNIsSSKrLmCu757HrmsS/88DASU8h8G6vdxzzbcNfyebEJ0CK3f2Ytf+Z/mhy9+tLcTF+VmiplRaPJmjsZRdsYVjZsmRUAReCAIxBj6WVqT35ksr+2iPDDjnXywXwzyhljWcC0WNLJ17pqlj7VlY3jVGvPVbVmVZV20BByWKn9zcCfCCyCN4fvJxnAyGYwnJstMtNkSwocfexyzaRCfTAtSKH93V6L7IZshsVEWBgSpbEUYoH9wbYPf5QCBOxqLKCpseH+uWPO9ayQaDVtSphWO1l0BJAOdU4QhdokpM5zoz3Nz8O7iYB4GT6VPDghk7PYpksuIZSSaRmYPWC1qOmMIKOWfsQFZNSeN6vlsZqrRUDawjBcme+kV873vlTdvT9oGx+ABb4E6yIMyJ8QewlqPuHZVnf5VBBSBvwIBaAy9GiyIPF9E6fIptDa+sxgelGkhChPIXvQsmPKLLKA7ldUcrrXJ+vnLlrpS9mBvz0rg6714fjPK0ZvHROkNw63rRZLIPGA8yUbjBBUAjvHkX94eQdVsKFDXpmDpn7P0r1jPj0cTJwnAM5DFPJOBOCbwHwLBZYuWvL5q3doJkAwmCfZTzjENoWFHWJ/8pN5rk81FGO5VZh8LhrDY3IiDx8MnTZwiBIHjm4o4g/xpZKcen75FbqHpoSCglP9QYL+fm4bo86JwyC+vNNuv/rb8+a+qV/9QbjyyLWHAmUdjrhdWsv9Vm8g7RpMioAg8MARkxSyMJr89fm5Mw8NSdG6yxJ83SSW79sFvItUXe0Af49O+KeephrkDnvxNLfMHcicTq2u36gFU+HlezmY1fn+395owEsu5bBANh+lwlAxHKWv9J58diIUPraIpaARY5CfE5UBvX1JfnIi3AXfBA6ENqkrusnIVWHG/g2rdUNuzu3mrqcCS9ZkAOPpHgcDmXOxMjDNjFSS3muDVW8VuGf5vT6VbQRgLRugaaYPcji081/W7qvXzoSOglP/Qh8DXgEk6KIj7gQHPa6+bH/5w/vs3TDAc4PLbVKbiH9bDhAaNUllvIBzU35YPSM1XBP5qBGBE8eaT8PIBK/60NKG4xJTRokJ3Dfli1lYTfB89OiwshbsT8bJYzYsUAP87+c2KKSDkP893WbvLHjyo9FmU427HlteNibJHalJRHuTVwW4ZxayhF5T54x/eIgTgaDwcbYw2tkaTSTIYG3YWJjAuq3o0AomdQiADQPXPip/QQC6tVvnL98Va2b7Mdyt9WeJLcTsPuGetX4cD7IfwDJ6wo84AaUD87ry6OV187lL69Mg8Kr3nnVWHEsGYycq6+uXd9c9DR0Ap/6EPQXcDqpztc/jJz3Z2J7/6uXn1N4NpnUyusiPotA3YFld8gk3NvF5Mm8V1VkeyG0jNVQROAQF+YUspNz+1Bhf1NpqWZsqmlpjpizad3yFKbGberI9lBrDUjB+99ZyYPkKoKOEJyccMIUZowNeqLCB+qFIoX+byrO2jOIoHxLlFZF8ldY1FL+t+Uf3jEFDlm1Vu8pnZu734IMbuvkHlz7r/8acuJex6N4hEBYApgGxwT3Ow6ZOWWApffrqva4eS1VRAipGc4JB3i1yyWuJzUKcTZixsMjQUWYf0Om/T/SZ+5d398LGN7S322InCVoz33b/lzMJVqp9nAAElijMwCF1NsD85KH/6xzfyP/5ucrCbRdsmGMwLzHx4JRBIRH6jEcZCDQa5JbK8rlo0TxFQBE4DAUu19ifHIp5lLpL8vG4W6PdtkmDzEDiCfVbt94rO7737OHObWUu8P87Ip1UGbG1dgtpl3x3Jx1YA0ifFd3beZSpgJwExi2a7p4/MGKKGgBuiOWe+X5cVC+tSZgLNH3+3Dy/jApBmwXgSb2xmG5ujwSAcX5J2sHanevfpvnpmJlL4cKINrsESgpcNgMs8MjmzkzoZlfglxuEbN/cen2wsNmRbPbburq3Y0Qo7dKF/GMiHf7xW1Tz8pmgLDiPAhtVmvPe7d9P/+/8avfKqCbLdhP26iks+Af5J/a3lfdOVTuzn7ZnGn7QeX3nf69Pnr29DmHd1zJPnLe95U3nx9+BwYpx99Xjyfbid+L4efE76XInQqSvBa53Jh+eJy3vG68T1uOXtsbbKIp6Erj2J2CpnsrvYemd/8uG+8zuHEbni8Ocah8OZlIEdXd0uf31VYyXvhwsvC1ht+JHCx+tZF1hH1l3nuIN5VmENgCPAxlYy2ZBIAHjx0WrZddPNHcRSAT+/AgtFbAhMuMWCg0kIfWZSgpDA/ctZ4uNVGIrlIJG+ytJOIVjrJ+aFpPnfnwm/tInzQmFChP7sHdwy85AbaDozCOja8MwMxb0NQRTXmuHunWJGzI0WB/1YDH5kAXBvOf2mCCgCDx4BoXDIk4U38uyyjnJU+OKOt1KRP/gW/HV3qGamLZpqtpjt5rfTII5RG6BQaDeuDFEhYA+IOgDXAAIHMhWA0fcW0jMJ4ylTHTmWiQCuhQQKwmYBHYQVaMSJ6A1kBoDjQFXuFQmGDdjxs5QELo7+ulbr1aePgFL+6WN6OjWG+MBk772z2N1l3p1EARt82RAXp1O71qIIKAInQKBCci9y9QCf9OSgSPfyJBfqOy+Un4VjGLup2vm8nmNygM2B9Ka9s7eDfD7NEmQAAzx/B/j948ZPeH3CDISECpBIQSgsZMEvHgRtNMSkoMJunwkBBvniZCjKAeYP87y5Oa32r6QZcoCqwPJQt9Q9wRP2aRVVyv+0kD7pfUJz57Z5+612Zy834ZgfFvt36xL/pChqeUXgtBBgUc+qNSnEMS/by+McYzuPOuG0bnl69QxlWyAxIGCnHmqVLQVsOpjNmM2U83YRtQdRwTRAogwGwcajzATYSq9N05B1fyQGhQneAKMB7kJRjmsgVocY7bMBTy0hheJwktfte9P2Zm4uDcIYHUEdt/HaOvD0eqI1/XUIKOX/dfg9sKvRcd6+bT54L14s8uFEtG6Y9qQRW3hpUgQUgU8bAXRqIqTGVj+vR/vlaFphwVeKx935SHV9AJGLHwDJBg4QJb0xo2SMDF48BRukADXhe2yqCzESwQywRf5PaL8kwe0fb4JgvG0Q7YMFE4CEHfQkEgCueKIBYB7wYR68PzfPDshHLkCE/dV2hecDpF60Uin/jA4zkbNv34l3dtM2qIl6gT0NvvgZmrJGh+yMDpk26wIjkDVBgTk9HufzcjSrx4uGPa+qOAiFAM9BQtVuvXrgeTgfWi9R0POniZZbbcpUQATxS01Fiyc/5nxI8mVXnhoJPxF/WenfubNgwoDsfjCKs3HAvsARUfVjAoDWeZLtVOaDmVlcMgPZkMCaAJwDbPrVROWPMzreBSE497eLPE2SKh00+UHIthkh/jFK+Wd0xLRZFxkBdsmTfWuKEsM9IuoPambiwSJsRxIg/xykKN6E4NHGO688WB8bO1JdHtB60VBIqABJkkt+LAoAqwsQrT1lakT1pslnouDPU5PPq3RmsnE8GgcpxB+VURYd5OY2UcJlFlQRgO+8GDqcg/E7vSYq5Z8elqda06Kc5cU2gfYigmQn7YKfasOvSOX6p4qyVqYI3B8CCc5pLPIxTC9rdtAhGg/rZa+H5/3V+WmWapshq3bs9zDDg++tiT7aegT3xPZn4Q9LS76s8u2fusrtBECCAaAI4FrrsNem8QATffz35rN8UZRJkdf1YFjHlzYathbGaI8ARaUTfKxi9n6a3dR7fSICSvmfCNHDKbAVXJ8t3jtomkvZE/VNU+7f3H5kc7fJhp6ZM/t4dTaUH2dn8vlbI73rLO9+xcdP+fzCQ8/qZ+2vfLyqzhxf/YGn/tjTUJ8fP+/uzuQVSnbDQ8ixzmq8gZB9pt6e5tv9WrruIG/prmQVtR0nfMpnTzWEeuvumA8fjLU7k2/cUSx3Jm/7feU9HfD5/a/914/cfYpEW2LFo8WG/kSvLQXC4M5WvXUrv/LedHRnkQf1YlNi2z8yIx7NkQqWX4mrxxHLZdcuDtyJIwfrr/BrZwFXDxWta3OXHP50p9zly1W8+3Lok6BejKTsqmdbxaIdCieGlwkzW0ryrWOduNdJmXjCX2LrsgOffKUBCAKwzBdcBLyAC9vMzMxszodpnjebEzMyeT3fLatHTTIx9TQO50bV+QLnGUqeH+gZamFPm8JPjDk4bwyiZIudMFPoNmam3VM4tNuKwKeCALzG6pT/ZEopLLwkvHReJYsqLpu18p5JjG++9am09GzdpCxMuQAQNvJOVvH8gU/55WwNE63pnsKfuWb2r0EMzGAwSMIIqz3eQeyUEbKOrzxriv7hoz1WBB4EAjiioc1mcV/B+pijhwHx8gimO9rJ2SQ3XlQE1ZfVP2ti/sl8QJMgkE+DxYEJ63AYpyLgQIrYIHGzsf0UobOEgFL+WRqNQ23hZ7MxHqRpTOxsmS2LGI0fkr5jDmGkh4rAaSOQWr90aoXO2S6Hf04kP97JcccXyl+GoFW+vwf6YhpC+dj8bRLQR+BDTeBTXt1zoX75lBFQyv+UAb/v24VmeysdjxMnPMT/VdxnRI+mSRFQBB4UAqiq+cU5FT6/OaRqYdWGeQ3fp9MSwb4s8Vn6W6X4UtP/oNpynuqtF2Fx0OKbd2kS8Wla9glUyj+LI6iUfxZHxbYpv3zJbG1mYSj7cDoFozUJOrMN1oYpAuceAZlhW4s1DggiSyCMdFHH0yLh0/F9hJe67HqruvzDg40hYFNUw8hc3jQDNPhtvrJcPFxKjx8+Akr5D38MPC2Yb26byWYURtZonQCWKMd0uDxgabYicLoIEEuGHfPSqo1nZbyfI89nKoDpPmTf4p7hDPKddfvp3vh81oYKpK0qwvpujRGNlCbIA7T557MvF7vVyiFndnxxdzWjAX6xvGmQIJZ4w64cec5sm7VhisD5RgASd+J6lPgI+SMov6jjeUksOdHuW4M+rPkcmTml2/nu8Om1Hj1IEuOnRyrw70NBonrI00P31GpSJ4pTg/K0K9pivvyPXy9vv33nj69vT7bH0cTsHfx53N7ovJHv7eMzKrZGgR01+SbmPlucyOP04fOn98Xn8PnH++wVfW8Tj7u+eD10Jp9BpM+P36ef9Pmpe+B5aH78vjm+b9xPij8OJt3JU5HXj7+7Fp87PQzTnbwuLp4L4rrJw7aOWtkUpmmH5WK0O43u7OOr3xA43trysbOONeoLyozHXzrGw0XO8hGzZZzV3/HP2okHVoVdAWogvs0yHbqcnJP669/dzvf+6lm3R9pgW3W8ze6Ua94iMXFTsL9AxAYDLSGHTZHOymTnILr+fFJ+eTR9wmyZdjwvxsnATMyOMdvuQv08Iwgo5Z+RgTjajKIsiLv32OPJ8y9cvnOr3duXl90guqb76hxFSr8rAqeHQCkbxMGzsht8WNTBogzqRhzN15R8evc6jzUFMqUjGL9YObZizsB0Z4QIJJ6ZG0+OHr/EJEhi97MNDyJJIhYqbGdtlHVEztqILNvD7tT8ZB55xHz+i+njT9RltTff47cl/i+aFAFF4AEhkMcGa3wIKy3baFqEs4JNcjNPaMsH1IYzXW1J66KASVDaNHZjTyYBYT1+LL751SfjG1tZ0BatLFesE2OrS8ozN5hK+WduSFyDBuxRJfowc+1J8/zngitXiPJZ10S21KQIKAIPDIHC7jfD/pXsnZMeFGwUI7p8G4Pvgd3zPFWMAo5oxOilKlPnbLXHK6o2g9p88+nmy9eQ5KPHr2VDvoBgvdg86BLlzA2uUv6ZG5J1g1jo183i0mXzlb8ZfuVrw8vb+QGqMU2KgCLwwBCwsmqTlO1gUWc44s9Kwu3Z6PIP7JbnquIY6wX2F0Lp0SJ6zOOq3orNtaH5zpe3n5xA/6hAIiYEhC+oqkLi8ms6Ywio4OWMDcjd5gRsUoVxUJJVN27Exbcms93py9Nbjblyt4geKQKKwKkigPFaWLZE2SPwTrSokwqlPg5op3qP81wZlM+sCOs99tJFoX9pWD73aP3EZfO5a6nsz8O5EPEkFkdFSLQigPOYbZ5nDM5325Xyz+z4hWkyZs4cmDw0i+demBzsjNPI/PLVM9tgbZgicO4RwB0/qppoIZvoYJkvIS8hMKX81cC2pmaJj6FR2GSjuH3icvPVZ5rP3yCY/kHbpoFJCWdQtDnTpCxC1Y8aQLFbYXc2/up4nI1xON6Klo2q2UDPLBaz1kyTcPrZL5ivf3N8vKDmKAKKwGkhgNoe+/OwrIOyJvyOaPHDwLsD72nd9fzU07SLtq3xuGf1PkyCRzajZ68nT01yNtYpilxyAzNf4JePx2LTzMnXdLYQkD2jzlaLtDUfi8C//8r8+EXzn/8hG7FPLk+Dds9Mr2R1Oh14xtG65x6v0uev73u7IbHrTD7/dbs66rhCthnvSj4/fk+vvBsMnbQeX3l5eXWlE+PgqcfbLw8+pzVevgWrr35fvg83X79OWp6d2LrgR1PcvUrxjYuv/QXbVFVW9yxWZrJ5Dm9C2UB+u9m4tdj6YDa8s8CWBrgIt8cm1gTfpT3HfdbX9z18ipLrSJkuf32tdfjrqGcZzm/1a11fdaSedf46QME6xx24/h7JPN6edQGJJGjTOscdSIBBguiR2kzGNDR1Mm+iO1F7fX/ftOWtFx4vv/3FzW8/N3oaWWQ1M7GY7mk6+wioYP/sj9E9LfzMF8zBgTnYM2++ZYpZNsi2w7Ra5Pwq1Tj2HqD0iyLwMQgkjUioZb0DxUnCqYwUBnnB+p5/nCN8E/9w0CcMn28K+DG3ONeniJlP/2Wmg0W+iWQf4WbQBJvzqRkl5olHR1+5EX/+enLFiR0D0eNrOhcIKOWfi2G628jt4dvf+OZjQZBEL5o/vRHnVZwNZ8Holqmu3S2kR4qAIvCxCER4l8H6MDkrfBa62JkxA2iCdC9nE50IT7OKELsyDYiIzYMG2yN9+dibnOOTdRmGWRTHhSjuq4hw+TUhB82kLW9fvzr41mdG33jO3NgwluoRyGjInXMz1kr552aoXEMDE20Op//lv2yznW5bmzf/ZPI8GU62vYFOz1n/tLmKwKeBgFA+HC+Le8v3fDaSk+7nyQG2+hX+ZmySaymfELO9o3w4PIqSIKrrgAW/vGqww+Od8/T1+ktPh1972jy/YWIzFVGAGVZitqfpfCCglH8+xmndyuLgsXSSD+K9b3xzk5fUTwLzpz8n0ztJPBKNmyZFQBG4HwRgd5LYC1jWJ5qcrFXLJt2XfXLxxZezuJkREp9DdrbqmWRf/BIJp9OavML9vkmaZDyMJiPz37565dkr4fOXLN8zGcA9P87ULF8epnOSlPLPyUCtmpmmYbkYJoN6mO196x82eSkFPzR/eH11Wv8qAorAfSAAj4u6fsX3KKxDNsspqgxffA5Q8rNJruyTK1vo3Ud9F60Iq/eSmQ4x9sqACdDmYHHjanjtqvmnz4yGxsrzmRRICdn3x2OietEwuRj9Uco/Z+PY4vhaYCE7iUfzNN35u29tYWC0MTa//v0564g2VxF4iAhgj4Y4GoN8+Fxs9Agus6hCTGNwyq8lggxbzNVxiEOKXef3jvWbOA8jbBhS/h9n5qmr9d++0L5wo71iJSNWFzJs06FMmURgwmY7SiUP8XE+wa27PV5OUIEW/XQRyM2fo9RIDKwDolzNs/Sdr/+d+ftvf7qN0LspAuccASifJb5zsZNlPMZpdcNyFgm/0/Hjmwffy6ctec67e+LmR2kTJmEchYM03ByGT1xNPnsjfWpcmsWemc/LvClbUwqAoFO3i4MT30AveEgIqF/+QwL+tG/7i1+Zn/zA/Oev7/XXJ2yox1/f5yeNz1Jn08TKqSud3I9ftKQdaeUffOSUb3nla7+v/Np/+kj9J63HV94n3Kw8lt6+9vja772vZ9J+0nE56X19z4Mv39f+E9/3yPitv3oWmT6cg6Kok7Bi4ze8X8o63Z1lt2fh/my4CjSB4R51u08OXL8OZ7rjCtXaoWLr8uzA65p2+BJymmTZ47sl7Y1QIqzrOXzJ4fx1AalHHAclHamHOco683A9Iqw4VpicOEvaOmfHrsAM2O+WsBlVPK+DnSS5drDPHjm3X3gs+PYXt779XPjUiInRgfrfA9q5Tp4fyrnuUy8b/9nPG36ie/vm7TdNMRV//QB/fVm/qC1tLx8I7fTHIlCjpMcgX9zuW1ncs3eOFen7pm4fW9k5PlnOsVoQEUcYVFGYivCjHeKTyMtkFJdPPjL6ytPZ568H1v8e+0bPBPYcA9C7pnvWCL3D4dx3eHP09t99s/zOP5kbz6KHjOfzoaxvxrfOfce0A4rAA0CgSkIxyEcpDdMvKvbRiTHXJ+pMz1KNNyI2ilB5QuB8FyaXiAWTNr91fav8++cH//SF4PNXDCZ7SBZqAhBrOucI6BCe8wG82/xoYzT91j9uy6+3xnPPLPJksLF997weKQKKwAoBVvnsoMP6Ns6ZIJfhvOQAw726Z29ErIKCOGuTCi+Fkm0DK6IL45FvPnst+tJT6d8+Y56bOP97VBtpRQSwFYD695wi0LMH/JyO0n002/nrZ8ne3/29+OubF4nSI/76mUeXfx9VahFF4MIigG4eqX5ct+yYF0H5i5LlPuFl+7bOxxYYSq/DKC+rOp8nTTzIgnHa/revbj931Ty37fh+Yf3vmSUlF/aB6E3HlPIvyFCnWVjkwzSrR+neN/9hkyXMjwLzR/XXvyDDq904bQTYTYeIcmWT5HUwL4mwi6ueb8+e0773GaoP9R//qjKoc4lEtDnMn7pqHrvU/tNn0lHo/O9xwQuaBtM+9sbVdO4RUMo/90PoOlAlsjNYvphkg/kAf/1vbiGJm4zNK69dkA5qNxSBU0RAnO+rlqg7Ek6/QKDfNITal83dl5bwp3ivs1xVGbB/TovxYmSGk8zceKT9+meb5582V4XeJe6gYcucJAviCN8GyVDrr7M8nPfRNh3A+wDpPBQRf/3YpETEmoq//jB952vfMP+g/vrnYey0jZ8+AgTVC90/tNh1Qxg5YTTryfbpN+Yh3rENc7T4YZikUbQ9iZ56NP7C8+kzW/jf3zGL/aosK8PWOrH1vzfNjJA7ms43AuqXf77H7xNb/6tfmZ/9wPzml+KvP748rYLdPL8S11m48us9UoPY+Xcln1/1WfPj9+4H39Wpj8krPXZKvjWgDx9feYlh3pVWbuFHz/nGxVe/rz2+VdpF9eMPM3Z9NTV75KC8xwMevzyXCFl9ZzH5cBrtLRpW+FEYBWHSBki4gf6Iszs5zrz/+CmfH3zNVjxd9fj89dc6hSO3xsxwXc9hP/uWfQBtOpxJRntvPID1tYNBVjfif9/UCcEBGqz20v022U/T69M9BIS3n7P+9//l+fCG87+PJq5+/bxgCKhg/4IN6NHuPPdFc3Bg/fXZc2+axsPtJK6Kts3cvpdHi+t3ReBCIUBkChcjX8LCwvirzgVlHZYiz5f1vS0kBW2ZVZEL9Xcxx6u+Cuw+t22YMPlpghGYwPfDpHzy0dGXbmSfeyK4OkKxwQTIM+G9UJD0tDNK+Rd84EeDt7/6rcdNG/8sNG/+MSmmSTKaZtktU1y/4D3X7ikCrM7h9EZYndUwkfOhfKLviBR/XgZ5BfGz6of52GIntNR/UTEr8jbJIpzvg6htaoGF/YDbdqMtbl2/Ovzm86NvfMY8OXHrgAbfBbFq0HQREVDKv4ijeqhPkYnG2cE3/us2G17xU3/zDVPNk2y8pUq5QyDp4YVFoG4bWb07yoftoXx2hEWLf5CLO34J+9lcMVSj1IXFAcVFGBsi56O3aOqmqvhu4tY8ey368mH/e9khJy3CRInhoj4KOrIXdWSX/SoX15LBPI32vvYPm7zrWOm89UY630mT8cV9vV3wIdXunQwB0eLz4Ftm57NljU8EnllJxL2obFjyoy8XjfiFluxj24u4vjZBWTVFPg/rcJgFG1n7v/zN9rOPmucuQf9TYxamJBhRhDXfySDW0ucHAaX88zNWf1FLB5Epi2Gc1oNk7xv/uCmbWwfmT+q59xeBqRedOwREOy98blmf1lu+x0Q/gfLzJqlabNHZ8h2bdbjf8v656+J9NViC6bZVXbKdUNuW9XbWPn01ePSq+c5nh6NoZddTBXjrxUEP4w7fF4YXo5BS/sUYR38vkOzXpswnUTbP4p2vfWuTbUTEX/93/kv0jCJwURBY8b0JIXS7xBfdflXHRR2X4qeHCX0lhWQbOVj/ovrlt9G8QpCBpX6dbibtjUfN179gPvtsdJnZEIp9zPqs/31IRF0i68pE6aI8AdqPexFQI4178bh438I3ibKBv34xHwRmniXv/s03zTe+c/H6qT1SBDoQgMsP54qLHlb6NVvnEX0Pypewu6zyLenfU/LwVRfguI0K6WoQp1G6OcyuP5J98fnsxkYu/vf5flOI/32O/z0ykdaUczX1uQBj3t0F9cvvxuXC5/7HL8Vf/6VfSrjN4ZVpZXbLxZWw9frr+zT/Pn9xr1/4va/gNc4+f3pf/X7/9aW/8rpmd8Ai7kiO++pr52n111eP776+1dXJcejsrje2nLc93bBJmIfO5GvniXHw3Ld7dDE/95RHhl/FbZUi7DJ4pqe7i/jWfrAzi1ZxKdZzguXBoX3lXY77XPfrcCYINCvT9uXlVo8g+ZG09HDhZYFD9a8LHK9nXZvPXx+pxfryw3eJ0qRpc0T4TZW0ZhDEpk33TLIf1k/MpmXY7rxwLfqvX9rG//4J53+fqP89QPYoqWC/R4N9uKvOX/9gz7z5Z1McpNFoO06qsiBCTHa4mB4rAucbAfjQuuOLqt6u72WVf3FN8xezOois/72I6IknyBxyRHenB8U4q56+MvrKs8PPPRFehejxZcCaV1PPENAh79mAr7o7Gb79tW9V3/pnc+M5/JST6mDEsi0Z3Fqd17+KwIVAwFrjhxJRvwnzyhRioiaOeRc01QXzGfzxAlHIE2cvQImBlGPT1Levb5XfeGH8nc+Fn7tq5/UBDnu65Lugz4G/Wzrkfmwu9JnQRKPBwTedv35j/vxHU8+SdKL++hd61PvXOcRWLPNjlviE2yP8zqI01UXeIDcK0yhGY9/WQVBIeEEJwIuH3meux1++MfjbG+b5S0zxp6z9G5OUAQoPTf1CQCm/X+O97m2xuMaee2G897f/sInFLsLPN99I8ztpNLmwC6B13/WgPwhgoi42etjr5VW4sBH3aivtvqAQ4FEfxlEdhEXVlIt53ESjLJgMzP/69avPXDXPPWr5Hv/7nFj7G2yxralvCCjl923El/3NQlPlwzirh+neN74t/vqsBt5Qz72ePg4XttuYnidIukvZJFdW+UUlMwCxIb2YU1ucEGp2EUJ9kSPYaDaH1dOPBNeuBN/53GDs/O/petGWCP9D8cXT1DcElPL7NuKr/kYmxl9/MZHYfMkOsflwVhpNzCuvrwroX0Xg/CNAxMmoafC/h/ID/pUNpu545cGL579zHT2oozmqjIaAgk02Ttsbj5hvfCH43DPW/17s9fiX1WlCsN3Q58TSUatmXRwElPIvzlierCfhm8Y8TVzNxXyQDXcG6cFXvvnkcKiUfzIUtfQZR4D9cmih88VHvC+xd4KLTPkmKpogDdo4iqKtoXnqUfOl58218dTkgkQZxm0yshGIxUu/WdTxUIX7Z/wRPuXmqV/+KQN63qs7a/76vJ4600n9wn1+/LhrdyafzNPn/+0rv/bnPnKXk9bjK+/14/f44vja48v39suD20njK/jq9/XX9zzgklbXpmpYydq97cU8TfbJGSWNOVgkt/9/9t7rSa4kS/NzdVXIFNAaCV2QBY1CVXdVS3JmucOxseUbn9aMfKGRb3zgv0DjO1/G+LJ8WCONYozLtTHuzM70TE93V4tqMd1dGigUUJAJpIiIK92dn0ckEglU3kIkEJkZkXm8sgKRNzz8+v15ZJzrx893vKVmO16ONHPWejxXXDz9AHWd/AsCeozRC/vZuyNuFYAVpfvWLwzsC+0YqOK7pXccT3tP7BJd/tK3LD2+WBlP7NNJ2dLKOO55njWp1tg2yLc2ZEgzEMxZNS/Zvk476+nv3zk1Tvp7sKKylMDTD9TSY/R8ExMgvf4mHvwRvnRIz93ktWsYFTLLwrvtNszjLj6/QOC62z8Xxa3hd3fLhQke4avFcnyM25cCoYm4eXHXIrFe4fa6b7fTnv7+zFTlmf4eCTipEIEuATL59EF4jkBXr78Dkwv+j1DuQa/vyWrb6fXzXc/Vo1+IwDARWEyugzm5c92jb7DpsP1xxtMC2eiQSR7GHkbRPSzslztMF7DCvuQZk4GUymJLXONuaeDWCDjzmb63qxldOjJ2+TDbN47fAQF3Pt5o3+CsEA5V/wYCZPK/Ac5mfIn0+ptx1Ef/mjF/d9FpMPZd4+bMvZvlM96Byc8hyl+Y46OatbD+YsQFaoL7CkmEnf7eBehr7SuLxDr86/p77JKTc8/ZfipEgFH2JfoQPE+A9PrP86DfRoPA0lk+rD7sPZb2XXw6ZvnIuIdZMMx/z++PFQCss4/4tFd6gitpuSgK7ImTyCKLAl4NoL/fCv39wa249jZic6HH0x5cAaMxiNTLNSBAs/w1gDxKpyC9/iiNFvX1KQEXrMe6/ny3nQ1C+Jgt3AbxMimwls+h1YOVF9hBFxH7sPYLsXXdqiP5YKW7KoNEA1lXfx/k+7fyHU5/X62pp/tkINNgV3/fQzKS10mdHjQBMvmDJjrq7ZFef9RHkPqPhXtI0uDtLgrI8eHHd7r83iRfwOYjbH/kjaCRMcbZGClMUPPYga0W+vujB+UkJvRd/T38+caDKwCr+BxaXCpEoEeATD59Ep4nQHr953nQbyNBYNGx34vOw4q9E7AVGsYeM37n1Rddtz7W8jHddxP90S5ILcSFL6wnpKpHfM829sYhtrfZZnEH15chqM+v4uYG1wl7bxIjQ3Luj/aID6r3pMsfFMkN3s6vfsXe/3v2+1+6b8zKRLtgs0UyqUxgETW0XCnVVS9XGcfKdOFl7bhIreWKk2EtV57KsF98rey8mBi+WLX3u9umZJmyPIXyfdzL6pf1p4xDaTslsqyy+kVJ/bL+lLVT1s+uz30Zbisdl9LzIopNMLQGPZpXGNXpsJmWbSW+QcrdBRvfs/S9R6SnWzy+9MkL+9Mv3hz0+rm0hW9uhz/9u1j6Fnf9Tz8/iy1/vZ2lbxGB1CZxu/8VHreRgP7en+NqXogDc3MdZp4c2eu/++bWq0fYrhDZA+aZqruzUCECJQRoll8Chg4/T+DQCdaeZ605dvsLlrV9FY0pr8gzZAoJnq9IvxGBdSMAO44JPcwilrldxj1sGDXiJY2d795yLaRE3KEREoYfcsP2fFzx891bqucO1Y7tZmOw986bsfz96IgzoO4PkgB9RAZJcwO3VY1un7tSXPk223cQwcBe3qo4nyH0+lSIwHAQgJ8CX2cKVr7IGVR5yMCT58PRtVfvhc3giJXKEyJkxkOIAib8kSmamN/vnNCXj9bfOaGOTLDIncHkzotPhQh8EwGa5X8THXptkQDye1XC1uXrYy61mcZOu0x3vLDaTBdr0BMisH4E3Lo1vPpISae1yBDInos8N7pgyMQ7ysUTgUJ6YN+6mASnv8eel9yT/NBudWp/dH5KHp7o6vHwV+n09z7Z/FEe7bXoO5n8taC8Ac5RJDuDMBbenNtzzzB4UG/d8OMZX9TKVlc3wEXTJYwOga5LHy5wkWUsyWyaQrEO6zg6F7B8T6WEtNBt/pcXOk8TobMK9PeR/c6FbRDfT21/qr9Pob+XSpLFXx4jHV0kQCZ/EQU9+SYCz/T6wdzF6w3MNeBEvfHxN72FXiMCa0YA2WasxpJ3wbKMJ8i4l0mLVXDugvdGuViWFabQKdYoLHYNaobF3u1Of3/9OFvQ3+OuJmPYI1Ayf+RvcEZ5pEal72TyR2Wk1rufiqmC6bgmo9j3ZzDX51bUqux3n653x+j8RKBLQCB+rciRi06kKUcSHucAx84zo10K1sbWOdpIVvj1gO/fzi68wY9NqW3umxthCwjZC4zvcSgQhJA4QNFZoz3gq957+oCsOuINcgLo9ZHTW7K0g+DgOAy+On2JXXxng1wcXcYGIOCy6CNKP9cGuXa7uXc8fF5HvYhUc8O58mXYiKp7t1dPHa3sH89ZOsOKDnIMZrgV575Fwn3Y+5RW2UZ9vFe9/6TLX3XEG/sEv/kFe/9H7He/dFdZfarXR0Yw4yKnlyslevoyPXfZd1iZXrysnWHT8ZftKz+o6y1rp4xPWf2y9OymZLJQNi5l7Zf1p2y2mkOqtrAbnjPx+IT1VOxBZKHCt0/m5VxHFbCR1mCLOSjannboBR18b/udpQr43vOyfet7Ov7F0y0+MW5mvYzuf2n7ixXwxKgFcEtPjeN+NcizdpHCR+97oiaRNE/OGDkr/cNzc21TTPf0928dk7sRna9bTNbwLipEYKUEyLG/UmJU/zkCh95grZbT6395kyVt3w8X9PpuH08qRGDgBKC577YJkwmD3zOc7kDezaXvNshFcDsS6XfvB7rmeOBdWI0G0w4cFG4jII57ZWQFZriViKzRnfkO9Pe7dtbOHa4d3yPHnRqP9PerMQKbpU0y+ZtlpFfpOqPK7bNXdkAOLX7EvvjcSzueH7VVOK3znat0RmqWCPRcRU8nyl0eSY5AN2jx3ea4XT8AHrBJLla4RwKXQf5cpZinkU0HNy3aeNZEjCudP9ixrXLl2NjV42r/RE93bzIj/dG4rJFgv7k6SSZ/c433wK9WMBlFrYvXx7BjKbKCfvk5yxKn19cDPxM1SAQwre+uF8HkP1sg6q0ZdFKe5jbXmN73OHUt/8io9CT3pTI8wMYAPEdGgQIR+FwpMbVLnjoQnp9Si/p7w7yMeeRDo7+GVyNAJv/VuNG7FghkyU4/jP2uXh/pTZ/p9asla/lEjgi8DgFM3Luz+0VBWndKz7w4L5CBB3l2UXD76V620LOPSkHqfSml5dgTV2dpLIq0GolmxL9zYfuh7WpqxxL9vRK+Ios/KgM7dP0kkz90QzJaHQoky7NI+ToM5i5Ar+/2KGWfk15/tEZxNHvbM/amW8I4l9g7TyNaz90SCAF3QG+ePxrXpm3KjdEZx74VEB00wnxqm9q5Xb7zhmoGzGXQx03MU/396NzJjAb8TdVLMvmbarhX4WIVg/Y5T2teEHv+zNkrDUyyKjX2h49W4VzU5KYngCVs2L7uHB7TeOSgdZI8GH2RaSyBAw+m+EhXxwSkBsLihREhpm0LufSRRh9ql4pvDm5jF06pE4f9nW7XKlyE099rD39s0u2vgwO0lj8iIzts3aQPzrCNyIj1x/BbEntzC5bG2JE7DoKvzkCv//aIXQV1dxQJuFk87Dwmx0g9DyE+zGJv/it6vv8l8fxDf3lWYLcKbBSADXTCsai6e3vj5OHawZ7+PmvlukiY0iJgsPq4xpHfLWjox2PjdpB0+Rt3bNf1ysr0+rxkH/pSffazMK3nrqesfpnP86k8+7lG8EuZPr6nq36xNhTRboK5TClrv1y/vvz8syzCfFDXu9J2yup3J9oD4bBMIzhUNo4IFsnxg6mKZLB+stPRM/NmPhbM5dnrrvK7Bhef2Of3p188zp8/vviWAid4+vZe5YW3ID7g6fGlT/TT/BPPWu5+Ypfq+5e2I6KgyGNTZMJWPFEV2KVKzhZ8mkno72d0/gj75fzgyu53T3vbkS8/m2V+E6ejQgQGRYAc+4MiSe08R6BMrw+PwHP16BcisBICmAij9Nz7wvnyoWZ3i/kjosWDM0xjOQIZgrDrH8ILob/XyFvFa+3ObD0yO3c3z0xVju/x6m5/HNLfr+STQXX7I0Amvz9OVGuFBMr0+iwlvf4KUVL1JQRgJKFcdyns4AcoctvddIaZgo2IzdepQGY97pLrIfcOblcY9Pe4Jqvv7d7SuH5yy8XD/MDkgv4+ZZ5byqdCBAZHgEz+4FhSS0sIlOn1R32bkyWXSE/XgQDyPcBx7iw+8uwguh0ZaoscUXyjEs+meCBVgUV55AzK8tQUiNnjSkr485Ff7/JRfmi8q8fjWNj3UY9M/jp8yDb0Kcnkb+jhXb+LK9Pre9Hya9jr11M68ygRQKodhTgC+MWRsCbOTJpgw1yPj4wCX0kulbLcFEWeJh1pklrkNSv8uxd3vLHP29uz9yxhidG+9KTz71MhAgMkQCZ/gDCpqWcESK//jAU9GxwB49LvSWEQAJea1P14BuI1mQ3uFKvaEiLzXT5dbAiQMa71WGSndthd29W3TnrQ37s4FwQrJIhQUPAHUArLVR2Lzdk4mfzNOe6rf9Ulev2P/rj6p6YzbFwCLrsenOJGYxVfpwl204EKP1Aqw4a5o1As72imrJHSyGpgDm7nl06HJ496i/p7+PMxv4e9xwKG26UPaxhUiMDgCNAHanAsqaUlBEivvwQGPR0wAWf3MRPOtdUGInykqh3wCVavOVFglz8hPF9VxqP6nu2NU0f8vY2EpTMsb6duA13cDIQamkDEJ8ajcR+zerSo5YETIF3+wJFSg99E4J9/zn76I/b7X7ovtMpEW7PZPJlUJrAlen1M4pZvrmT1tkxHXqbzLtPTl7XjgseWKz3x2NdfWbmOvyTW4amO/IVTlF1XWf/L6q+UQ1k7Zect1fGXDG8KJVu3vDD+XOa6ndiZFptvi8Lp3IzHYPZdtr2nuvmlOvjePve9I4sVHMOnPJdWxuEXdPyLbymks75fb+cFff+zCpVA57HOM2UqnqpJybWcMfyxx4+227PWPD64W377wvZ3TwXbsB+unmeqjvapEIHVJkCO/dUmTO0/R2DqDdZqsdYcu/0Fy9q+CseUVyDymvT6z2Ha9L/gxqr3g3vDxbsszO0xrYeybfhnKhn8905YDxe+cakBnTM/MKI233pSr1ro8U4fgv4+aFYw0qg2Ol6KTf/JHHUAJffYo35Z1P9hJRBVb5+5Wlz9Ntt3EN91XtqpIEmqF04Pa3+pX+tDYHG63Du9M/a9nxyRby75Do4jw12vWonHZ3163jtrkcL/wJFcT/rIE4TUgLIwFa2bRk/vmjTXT068ezo6uZN1NXiQGFJk/noO1qY6N83yN9Vwr//FIgVJJWpdeGcMDlt8b9/6nBWJ51ebpNdf/7EZph70rPiziT4MPNYS8H+S66zAXB8vucUUaPRdOB921B2m3jPm80B4GiI7qAqduKBAemCOPXGm9ijM7y8c5QcncAFtt74lghxyvOHqPvVmwxIgk79hh3Y4LyyLd/pR7HlzZ681YPLxTf3lTT+Z8RXp9YdzwNapV70Ncnom3xl7lO403yQZR8Y97J+HZffuJB+T/yEz966zWLzHlneWS6e/T2Nl0ijy6hX+3qWdJ/YG+yZ79j7BHYHx/SHsv7sGKhuRAJn8jTiqQ3xNvmRFGqlAB8Hc+bcbmOvzv2c3Px7iHlPX1pVAz967LfN6JcmxcZ5LVNsLpsPnB7NnSN2HzWwu6u9TxvOiGYmD0N/vUIjXw/q9m9PjPqZAjCK28UH2XSpEYI0IkMlfI9B0mgUCiqmC5UnNC2PfnzlzrWGZqNQY6fXpE7KUAKzg4nI+bP3TlXxr0xzPjVsnh73s2k68DeFxQxaVZEQsubIWM32nvz+wU1w5HZ44olx8PuL1XIpgZb2aFIGLZXHu/aVXT8+JwGoRoA/aapGldpcnIG5hVdMTLO2E0B0HwVenL7HLby9fl44SgRcJuG3zsBeN8/XDoY81/N4SwIvV1vt3LrDTD+ILPU9VmpX6nh3Nk0fD/RO50+Nl7QS5drXSWMXv9jPrjErywPXGSud/bQLDr3Z57UukBkaBwG9+wd6HXv8Xrq+1cafXL2Kn1y+e7kf+wkWUTetKdeElUd1l9XvLxy+cFL+WOZDL2nmmMHu+rbL151HX8Rclk4hyPs9zefobmkkty7jFpnNYDFKI2ns8m8/PG96zkgs+gEVPgHGb67myeGThyZJ97ntHeo8FHOpfr4wjJXp9LZ7p8pe2oyphkcdI/8t1pGQVC1VWzmj+WMk35uYeIj7/0F7ve1f3fPdsMIlsusUc8xrdbtIDEVgfAuTYXx/udNYXCEydXNDr37nJko7vQ6/vI/AJltHlHaeyOQnAuMIyw9rarjDPze+HLLQ9jTUSAeJHITuusFpIa0PDaq3WdK1idk02zxyuQn9fc2o8+PNLbog25+jSVa8HATL560Gdzvk1ApXo9tkrO7BN2i8Qw/+5l7U9P2pDr1/kO79Wlw5sfALw3GN+jsA2t46vc0yjNX50gUj4obp4nQjclCrPJcTXbgMAaWyE7EHWPNi7rXn95NbzR9TU9t6NikHGKbqBHarh24SdIZO/CQd9OC9ZRtDrv72g1//yc5YlXkh6/eEcqzXpFebzWKe3Wtvc7aBj8tzF8ZVl7l2TLn39JJL7ShXcR1SBzbLMYgXfLQ7I/Xu9s0dql46rqQU9HhIH+bkMyOR/nSEdWUsCZPLXkjadq5RAnuwMEMPvzb15tYHUKvi6v33DT574vOrkWFQ2IQHM8mHyTaHzJNFJBq/+EIbqOf29U5rKFGmjk460aS1Uta7+/o19wf4tT/X3mSmwPx5S81AhAutKgEz+uuKnkz8lEEqWZ5HnO73+hesNBFG9z9nNj56+TP9uNgLdtHrYWd5kmYljnSGST2NP2WHDYHmCrXxNYYsEWQBNM7IHd9k9257X32cmR24eGZTFhA7bRVF/NjABMvkbeHBH6tIUg6wpS2t+EHvBzJmrDWtFpcr+QFZ/pIZxwJ3F6nie6SzHI+4CFXzoiOAbpmJ5h1lsmSOFlTXfHtghrp4KTx71FvX3hnuFV1MqFBbu/2FblxgmlNSXNSFAEaRrgplO8jICht+S2E2PP9Xrh1+ducQuvfOyt9HrG5eAU91bjXT6bhW/cBq5YYvdQ5csz7HcAP29ryqNan3f9ubpo5X9W5Btahb6+yzHjnrKqqjohiDkMW0lsXE/ryNyZaTLH5GB2qzd/PVP2C/+gf3xA/eVWZvoFGYm64yLIrJI5LNcKdPNl/lUNbRVy5aSfVrK9OVl7Zf1p6ydQen4i1Ix2/LXu7hP/Aswyvo5qOvNkOlgoTy7dETpcZXlcZLOzhedDtdGYlXfhfM5yR562NXuuZ4uPlnsf+/Is+Mlen1Totd3OoElzS62I2qehsXOUmkrildw82HkTM6ni+rp9pMHfvvh8V3q+1f3fOtidayKz2oLn1bXPypEYMgIkGN/yAaEuvM8gaNnWByz1py9c9N25pUfNrHeX/CEsRKb//zb6beRI+Ci8jF7huKtm0gfFr7s9mItLw2zdXQIE3rLEUaIWxKpbWBtDfa+GegDO8fPHa4dOVStOntvbGE5fbOu5fDQufomQI79vlFRxfUgEFVvn3tLX36X7z7AdaHSThUTL7/yZD36QuccPAEkRVz84dhZ0eWzcY+mKBCr7/ZXxrweR7pOl65Ib/B96KfFIhXw3wvFeWCs4gWTWleMGQs6jw5Osmvnt719qXFoT3ffe8QcZqU+ln7ORXWIwOoRoHvR1WNLLQ+EgAzD+Yvfgl4fHld++4aFXr9Sbw6kaWpk2AgsTPEtAuAzyPFZAePv8uhjqo+5/rN9dNa834gzkdDfe5jlI64g1YWFMs9T6uje4OyR+sXjCvvh+qztVgWsLzi5oNZ8hOiE/REgk98fJ6q1TgTizvaoknr+3IV33E677/8d//Jzf+6R79FS6TqNyGBP6za/xSQejfbc909tvslyg03ztHE+AJj8ZzUGe/5+W/OU4FIyoTKkgU5jz2TQ39er/AfX9k4d8GHvA9ZmrFNkDOJ74ZP3tF+wVG+NCZDJX2PgdLqVEQiU6On1lTd38VvO6sMo3CDl3sooDm9tZ8rhvVnSwd5Wuci9w+DYLxa2Geo59rGD3np5zC1LcG+iEYmfQU2qGxU7tcvu3um9dc6vVJw/H5eQJeigxzzKsLdkOOnpkBEgkz9kA0LdeZ6AwPenxvdszfNjLmZOX23C0Vuts4/++Hw9+m30CcDYPyt5gfA94bz6bpaPxLvre31WxgY73EMYYGU1tFM7xZUzTn/frMDYw9Ljx/dkk6sQNynoK32xru940dnLCJADqowMHR8SAneEZJ5gcQebkcW+f+fMZXb1vSHpG3XjdQksxu4tPuHG4rlLr/vU/vfOUSZ3fN0e9Pd+I3IunP4+kJVmpb4H+vtjlQNbi6J4bPIWKwqmPS7cEj7sfRtRCFSIwFASIF3+UA4LdeplBD7+nf3Z35rf/UzqnFXHENg1bfK6sn7pfu1LfcdLGi8zJGWTytXW8edlnutuyPqSji88xe7Cy5YFh/jXXiu7XlNy87+8ih9+7JJ+rlTHnwms1yOXvg0k9yRDYt3W3EyrNSe7+9Oj+z2X/rMnS3TzvZd6j7q7w96LlfE2JO3rlqWVceAFHT+O9CqIqiryGMn+uI6UrGIhCfp7wx8ntbOdmXthPH1it4f1+3cuRN35Penve3TpcWQIkP9pZIaKOrqUwMHjZvYxn33M7rg995gfwaea53nKEUdFZXQIIDKjG5zn7lzwXGsk23N70K7XFaQd3CwZeBkkcjQJa7i0NtQM+vu7Y6GZ2j3+5pH64akI6/fOn4+UgCW3PuvVfzovEfhmAmTyv5kPvTqkBDzvwZkr22Eofq7Ml5/xPFXKt8KbtZpM/pAO2fLdQjC+YS65HudG50WR4ccgTO7p7Hz5d63aUZtiGYmLAPEDBgYdW/lYU7Fw2cd3D+4ev/rm1ksnvP2TC/p7iPVVZdW6Qg0TgVUgQCZ/FaBSk2tBoB6EnQvv1ITC6ml26xOVYTueCMnNqYwSAZdIV7g95mFhiywvskQXOZbz1+saJPelVwiPYbJfZJktXPCgEvLIvvDs0Qbs/VL9PbmU1muY6LyvTIBM/iujozeuJ4F4vhbVDRfTZ92ee87sf/kJ68wyn/T66zksKz7305V2ZnKNdZk8zbC27yL016kgeT4MPPz5RYHuxNKk1axrDZkAAEAASURBVMirV/gP39q3qL/nDMn2rRJKBlDnUSECo0SATP4ojRb1dZFAFGASJpQfSDl37uok1lVh9W+SXn8R0Ig8cUnrnW8fCXYzmFgN2bvVqhuLtz5XIFIk/NOa6ZTxQo9V7MFdbPc29bz+Xnf197SEtD5DRGd9HQJk8l+HHr13/Qj4yIiCwL2aH1akap25WkM8Va1ZfPhb+kiv36C8wpmRud7tkdsz+W4hH7nsPalyJ3Zbh2J4h0N/j+g9pqLAHNghrp6O3jiinunvWeArxWRA+vt1GB465WsTKJHmvHa71AARWFUCln2KVXwPPtZ59xn2/DunrxSX3yuRrK1qV6jx1yWApXsXqA+77+T4nEu1buPIBbLnL+jvx2qNfTvGTh2pTe20Wj9hugNFAdOKcTe/xy3JXJK+7qXT+4nA2hIgXf7a8qazrTKBMr1+mU69TMdf1s2ydsr06G4buOVKWf3la3d3lFmuGVbWjpO+LVcGp+MvUeyXRNrDpC/XHRaGIo5jCPGTpIO8NtwF8rl9dBaX8/EMb+w94olRT1f/n17gwkslev2iRK/vRU5/j3z5wkS+RBAoZ3JWyyeZdzKevR9kT47t9b9/fd9bl8Kas+/zAasv2386SARGiwB5QUdrvKi3LyFQptcXpNd/Cbn1ebkrxC96efZg71EWrfuqdgj58A2y5GKuLq2GTJB5xgSWVdutu2OR3b9v7M1jzSNTYTVw+nvtsgesaneocSKwRgTI5K8RaDrN2hAo0+uzgoKt1mYEVnYWLN73rD4y8MH+dif3PU/H6tpYbGkvlBCe4Mjjb1gGb76NhBFecufAvslrb267dMrfM+lS5UuICRLBopVdF9UmAsNJgEz+cI4L9eqVCSyv10daFSpDSCDLkjzPjHXj03XpO6++y85TtgIxoGvweCCgv4fuw5o8y0zBFBdCytP7onNHGxfecPbeY23k1rPG8zgZ/AFxp2bWmwCZ/PUeATr/QAmU6fWD6kBPQ40NiECapoXOMdG38K93V/GdvV/9Ah0gl9K6jXB1lsbKZtWKD/3999/ed/hgtH8r81mbsU6BrXJlw/cpre7qDwmdYU0IkMlfE8x0krUiQHr9tSI9mPNAjI8ofcjyXYQih5vdefXXIMe+ZrFAvj+N7A5MGDNe4VO7i73bvbcuRPWKS5yPdQUEFHLmI/cDLeUPZrCplSEgQCZ/CAaBujBAAiV6/Y9+Qx/1AVIeWFMuo77bRwdTfOfP78buQUa06vvVaNsyRiG7v9BBNeQHd8prZyqnjvmNKrL/YrtBwwrly6bwItyDQKZBn56BDTk1tK4ESJe/rvjp5IMmQHr9QRNd3faebZ33zJ/fM/yre17D867yUfmq0qzU9+8YO3OsNrVD6+KxLlomy5kO3J45yP3PWDtFZSpEYCMQIF3+RhhFuoaXEvjot+Znf2t++1MFF3J1DPO4RzqreSws2ye+LHqsTJdftg99mc5eY2/WZctTufkLL5bp78vaL+tPWTuwbS+csffroDjAV440NgjTc0nsPa51Di1+J25lOsaJesK8pY/YzWbx+NInL+xz33sLKiDlPR5RFo/0nniB1EWiTS5NRckqVzwXTzSftupUOvvAyx6f2B929ffOny9YCykce+3QIxHYkATIX7Uhh5Uu6kUCi3r9258hTS/zoyb3EKkdK1JfvYhqFX+HGUbBUn1vco/HVTxZt2no7y1u8CDBk8ZILMpj4T4wopY8uddE/vz9E+eONY5MRbXI+fMLbTwK1FvtIaH215UAmfx1xU8nXysCvv/w9OWtLvOK0l9+xrNEKd9If45p0l+txRi4CDhk1nOzcOb20CmyQkORX7hIudUsNlMS8fZKc4mEvtZYoVnFFNzL7u7fP3Ht/LYLp4K923pL9camklVWszfUNhFYbwJk8td7BOj8a0SgHlWSC+/UpAe7n936ROVJEERbS9zra9SnzXMaLEC4+DwXkQ97X+RFigcE7olVNvmeDKWnuc9yazKd6sJCf6+kOnogOne8ef6ks/ddPR6C9JCXJ9w8I0JXujkJkMnfnOO+6a66M1erNIxU02ev1q1VMPtffsI6syykpds1+SzAmd+LFoCZx0b0WeaS7nVz7S0fQzCoTkF/jwQ7BRO5RkL9WNqsUvEaVfHDdw4cPhju276gv9cZYvcbiNEf1HmpHSIwnATI5A/nuFCvBkwAev0sEX4YKDV/7uokRFiw+jc/GvBZqLkyAl3dHab42Io+z3KXcQ9HMMUvCz8sa2elxy1DMn1dFDZPrC10s8YO7RF7dkrsl1MNF6R3WYxEQJ7ER4QKEdjoBMjkb/QRpuvrEsB+pyJjaVwLooryWqevOP1VrVl8/FuPCK0JAWfcu4F7OQrW8qHCV0oh8d6qnl3zNkPknhbcBM2QT+1Ub52tnToR9OL1oNODP19Bf69CaBPQFfpCXNXhoMbXnQDp8td9CKgDa0FAs4+VzzzOOnPuMx+Ed09fKS6/t7pe5bW4sNE5h2Uuq263FHDvI3RfrP7XD3bM6envA1lpVOr7uvr7A9sKy2YtixnS7xlfyAj3f7D3pL8fnU8T9fQVCZAu/xXB0ds2BoGPf2N+9h/Nb3+yRK+fd/X6JTcDZTr1suObTcefY0O85Yr0eF6wTjzT7jxJsw6C9iGZ8LwgdylxXMEdwHNPlujyey/1HrV01V6szJhfjfKsDf+BMIEnG9zDbjizhj82/Hwy98AvvjpxQHz/7b1vXRxvVLCo05Ks0TsdPRKBTUWA/FibarjpYl8ksKDXn2a3P39er0+bp72I6rV+h0gPkjxM8Z1K3u1og21tOOb6gxLppZ3CuJYtV5Dgw1+vjA40ryete2NVfWD7+LkTtSMHx7v5dlieSwg3qBCBTUiATP4mHHS65GcEvKCr18e26Ev1+h7p9Z8hGsgzJMTB+j1i9Z0wDwJ9jtj4QZp8nQrpSR5Cf4+IAQQJqkJHmM57+Z392ybfurj9wqloX09/b4VJFHbGpUIENiEBMvmbcNDpkpcSqIfV5MLbNemEe6TXX0pmkM+hws+LpNCIm9eiW2D6Me3nAzK9knueZ4WPLXB4ilNphjVLKdSJKXXuROX8SWfvu/p7wYpQCgrOH+TgUlsjRIBM/ggNFnV18ATi2VrUNMKbPnvtqV7/U9LrD54z1u/zItamgMlH2B6KE+q79fvl1/5X2gMlIL+XMPRODJBoYVQ1EvUK/+G39h/aP7a/p7+3CaR6SgZeUBKpsdKzUn0iMGoEyOSP2ohRfwdKAGLsPMYWqYHs6fVhgEivP1DCvcaStFXolLHC5d/rqvXg2BcC29cOZpM6Lt2SQZGzLGU2h/7eTu329uzyrl0Yw/p992tOJO2CwRkAe08WfxWGmJocCQJk8kdimKiTq0agq9fPOjW/UpF+6/Rl5FjntbHi498MyOO8ah0frYazPO7O73v23iDbPWNuro9/BlIMjxnHpnnCFh4UF1M7/OtvVk6dCBGf75SA1vnzPeUJT1hhNdOKFPgD4U6NjBqB1RfGjhoR6u+mImD4x7Kr149n3d+CH3X1+u/SNHDAnwLI55zJ7xYk5HGx+tY5+Ad2GglvAe4fYNWDeqW61+nv61M7sF3vnNapQa4/w6VCfn1sq2Pms5mBnZcaIgIjRYB0+SM1XNTZtSLw4W/N+39rfvtTZXNWbzIjHpnU6fVLdfYlxqtMr192vLR9vvx8GLvBLovEqOXXyJc/ij1llm8G0XDLNl9aHyv0yKdnkfHOY8LjhcnbnflOp5OweTTUXbx/7nHxqpa+hJpGLXSod3zxvZVmffbJA2x7XI0mAm8s03HOp2XQ0sFUOjPvp8nxvY3vX991/Spr1tuWfaXYkeUvgI4SgU1JgBz7m3LY6aJfRgB6/bnHfPYxu/OZWx72w6bwYGhiSXr9l6HDJrnQyblN87qzeUzoschecmfysra+9vqTR7N+4IeRj7z5rbSNmTtXLu4ymWbNinfwoH3zBD96vGjUcctQzdI9imLzv8aQDmxmAmTyN/Po07WXEvD9rl7fsl9KfeczniXK84z051gRlb6HXgCBbmwc7D0m6lixL7TT4mO3XCjkBlJ0glhLbH6bxXmiGbbCqXEetBPjJ9nBg8Fbl4ILZ/m+8ZbT3esq60SMTP5AuFMjG4UAmfyNMpJ0HQMmUI8qyYV3akqx921261OVp0EQbl3dTWAGfAnr0Byy7EF5hx+sIMDeo8DeY/e8kvWBFfdwvD5heDvOUoTgeSFW54WLEsjZycPZmydrF05W943HPptDbCB6gFwLVIgAEVhKgP4mltKg50RggUBnvlatG6mcXh9bvuHo7Y+xJQ8LqoToJQScyUdUvNGY32dZ0t00DzcAgzH6nq+g7kckBDL06yJvzz2sRWLbTv+H380PH4j2bRW+rTLjYYdeqVKF6ItBrSi85KLpZSIwGgTI5I/GOFEv15gA9PpZIvywq9e/NokpI+Lnbn60xr0YxdMhIM9F3mFm7+b4WWK66fYQ0DeQi2l3pplngmpNW9Gam/dMe+rA2PmzW69dTuCQgcwfO+CmbR8SPBnCI/OEscmBnJcaIQIbgwCZ/I0xjnQVAybAfSYylsa1IKpw6PWvVDB3rTWLj0iv/zLSvbg97KCzsIrPGfbQKQZk8jPT8mVojV+ktuoFh3aF37o0fuV8WIf+jiHTjoLgH6pL4XvQMmhWoy+4lw0Xvb65CCwoYTbXRdPVEoGXEdDsY7VEr696ev33BuOdftnJR/n1rpgQsfqw+LD6mOIjjm+A+vswQmJd3mlncSubbIxdOnvgyrnmzom8SIMi5zpvWzmjKrFQumBqrkXBe6P8WaK+rwIB0uWvAlRqcuMS+Pg35ufQ6/9E2aKr1+ePTOb0+kXJzYApO15ys93NFbcMvjJ9fFn7ZW70Mv096+bB/fqJy+qXtg8tfqE7Sasdz6VZu7C5UE5JVyAMslte0Nn38hO8cBAVq83GXGta50WzukV5zU4yn5oHzJ+Lam/NPrwr0lunDnn/4gdH375aU9zk5klVkAP/66NHR4jAiwTI7/UiEfqdCHwDAej1Z6HXn3Z6/SRl4VO9viC9fpcaYvc0pHmY36NwJrjAkVco7fnEh6ZeyVY6r1u5VL4Km9KPZh58NVbTBw5vv/hG48A+2HuGXXi1CSlK7xUg01s2IQEy+Ztw0OmSX52AF3T1+oxJT9/+1On1lW8E6fWfEjUMe9UXaY59cjMc49I59TWkeyssecz8Md/KIk/jHFEUfp3LqNOZFckXBw/v/Pa1PW+eUrsmnL2XTEgdUcr8FQKm6puUAJn8TTrwdNmvSqAeVpMLb9eg+bY2+/ITlaZBRHr9pzQLk2ZFXOgkN3DpC66ks/bIvrfCgkm9ybuN+LLqVZB8J0/TeD45f1BdeKN68ZTaPoFsO23EVOo8hNVfYfNUnQhsUgJk8jfpwNNlvxqB9nytUjfCc3p95HlFI9Drt+ZYhB34qDCW5Z0Uee9NbhEmBKc+593VeszGV1YCpVINIR7zkPVQ553Oo4pnp3YFf/qdQ4enJnZOYFbfZjbJUitEoGjXw5XRpdqblwCZ/M079nTlr0AgWKrXv+r0+ti/jfT6iyTbSasoYO+RDBc5+JBq3xFasVufsdy2YdU9FeUFa8/O+Sw+cnDy0oU937rmhQFzrgMuYO8t94QPMZ7z8FMhAkTgpQTI5L8UEVUgAs8IQK/P8gW9voRe/zJm97w2Vnz6Ac00HaVO0sYjjL0UEvYeUXxupo/fV2j3tW1L4TPr6VTX/PDY3tp7l7dcu+xVw+7ee5j+5yH2yWUebi5sxrIKJdN/9iGlZ0SglACtgZWioReIwNcJOL2+x6RgnXn3t+N39foXSa//lBQE8thMB4AQtecsfa+IlU/CZW6FyTJjtNizY+fVCwcvnatvaeTazDGT466LYa8+DANHkp+inc4+PT/9SwSIwDcRIF3+N9Gh14hAnwQ++7X52d+af/6JQqRarQl79EhntcCGaYmxK9PTl+nvywLUerr2r3eyrJ2y85b53rVc3NH+uZNoIXCl+PqA3l54HDvbzCTzrbjT4tjSxhn7Xu3FJwy3AN3SO7J4PGyIuSedPOHVSiMM/QyCPNZWgRXe2flHt3h668yR4D/7wbFvXW940mT5k8Aj/X0PJD0SgVchQI79V6FG7yECLxA40NPrP2ZffcaylPlhU3l5ksWcbdjNdmHWsVKPfXLhtHcqfBTM71eowp993Pa9IGwGRptW2nGiPq9mGO9MfzlWNweP7YL+/uCBhof5PHL32/AF7PQrESACKyJAJn9FuKgyEViegAwfnrqyFQvWv1D6zlO9vvTnDCTjG7TA5CPTDrYbQlrd1GA72zRFltsVLhXqDPl1IkRItOMOLH0Q1Bn3kU9XZjemdu989/q+CyfVji1wJ8CTj+gA0kVs0A8TXdZaESCTv1ak6TwbnEDdrybnv1WTHnvfZrc+gY48CMKty7vFNwAK2Gfh7DsuMNdZgm3zsEuuzUvWMUoveKw2bplJko5Gal4/QHbeItUmLc4d9i+drF86rba5fDttd7I8fMVMfqUnpxeIwKYjQCZ/0w05XfBqEOjM1SoNw7zpM129PgzhnU9Ye44F1dU42xC02c10C6c+4uvSIkW6PUz0tbArNflK8hhJ+bH8rzxdZO3kAfYuPLCr8affO3L4UHPB3rOsSIwUAZcrXDYYAk7UBSIwVATI5A/VcFBnRpVA9FSvz735s9cmMfn9mWW3PhzVy3lpv2Hr3cybscLkaZ7FRVIwzV2M3sr8Gu3OYyv9oFI1TM93HvpmdurAjount1y/KiO/68/nAvYeyY8k6e9fOipUgQi8jACZ/JcRoteJQD8EAiayBb0+91unrlYQtl5rFp/8esPq9THFtxYZ9bHdXZoXhcF3iQclfj+wntXJbctX49Dfm4I3w+qRPZXvXNtx+byMgq62oKu/x/y+a+8hEdASaXapEAEi8KoEVhhs86qnofcRgY1NAHp96TuT15lzf1MqunvqSnF5A+v1uZvNw+bD4ufYN89qy40Tyq+wVKpKeTJNdNrR28cnr5w//valMeTPhx6vyBOTQQ3g9Pc4mWampZ0CkAoRIAKvTIB0+a+Mjt5IBF5O4NMP9E//Rv/+p35Xr48EsT29flSULHqX6ebLjpfp78si51eu41/eUY92UqvndWc+b3Xyds5zwazE3vVdb/9S8X3vuRcEc/PTuEGoV7eEwXictVPzgAfz0r8+/+gLkX159mj4L394/NtvN6G/L/SsJ8dfDpdqEAEisEIC5NhfITCqTgRWQqCr10e2mZ5enz/V63cUG3G9meAGYXfdgtsR2PVvjqxrt9NKULFSp3ncmXPBel44Jr1odvoW9PdTu3ddOtmcOtgk/f1KPlxUlwismACZ/BUjozcQgf4JqOjR6atbYQ5/rgro9fPUU9gF3p9lerRNvuE6M1jDTzKdwaOA/LqY5Vtjy/a3MYlQkce9NCkSzVUFWfdE1GrPyPz24b27oL+/eMrfuXVBfy/Mhk1m0P8nh2oSgdUgQCZ/NahSm0RgkUDtqV6fv89y6PWzxA+jbcu7yxffNPRPCp4XFkvwMSL2kZEHSfOQLQcT/7LovUBFGun3ea58GVUrSqgOymzn2onw8qnG5TP+9smn+vsieonHYOjhUAeJwNASIJM/tENDHdsIBDpz9a/p9Tn0+tFoT/JZquPUJNoW3Sh6teDY54hQWP5mBjF6iOrHTjnS9/I8jZM4kvrgruBPv7f38KGxBXvPMp1iC74Q9xAbYezpGojA8BEgkz98Y0I92kAEKiHLU4HgNej1z73l9Prvs42g12/niL/L4N534XrcWIttdhDBXzpyxnaEYlaFBbbNmZnxWXz05JbL5/e8fa2yqL+HvYf+Hpv0oKWS6MbS9ukFIkAE+iFAJr8fSlSHCLwiAeszkbMswZ7vFea1Tl+rcuH0+p/+arT/9DpZrC1UeW4dH4YeW+oIiysrnZ0bESvp5UbliQaLY/sb37u+/frlyjP9fRFhfg97DzEefiQbbT6v+HGhtxGBVSawYh3tKveHmicCG4qAZZ8Kz+n143n3tybDrzaGXh/pdwoLRz1E8y5cHwJ9XJ37paQoz2DmnkNnX4g923dev3jk6puNsWYOPR7W+FnR9RBABdDV38/r2ZJm6DARIAKvRYB0+a+Fj95MBF6NwCcf6J919fo2Z40mDOYjm9V8G2Ulk9syXf6Kj5fc5Jfp9QvBkFGAO487k56IeTYbz8/HnVnR6l14T523qNGrVELo76Hfa1a3el6zk7Wgvxf+fLX53vTdz/P2Z6eOBH/+L0699+4E8utkdqbCJ14NIL2LCBCBVyBQ8gXzCi3RW4gAEeibwMHjZu6xaD1mdz6D259jx3ju5VnaYcOo10cCPEzincsdBVL8AvcpJQX6+8iPbKTjvDOfGKE8FTj9/b1bH02O8cMnDl48O37sKOw9wxoAzz3mlzREh4kAEVgFAmTyVwEqNUkEXkZgUa//y65eP8s8z7MimDVmyEL5DTT3CNGDiTZIq4uQekTtIcNuWXydToQch/4+SaG/F8oPG0xG7XjGpjcO7T34vfemLpwRW8a677aI56u9jBO9TgSIwCAJkMkfJE1qiwj0TWBBr+8p/jOW3/lYZTEi/IZRr9+NyUeqe5brLM3zrMhzN8tfPlLPR0x+kVrk3w1kVImU7Orv5+OrZ8cvvzl+7mTP3rdNrgWre7QZbt8fF6pIBAZCgEz+QDBSI0RgZQQW9fqnr9WZUe9bdudj3pll/pDNe5FTD6v/llttdFa43HmZM9c4uLzJl57M4PgXRvieq99OQqX37w7+7E8O7d9X7envbdExWgi1fAsr40i1iQARWAkBMvkroUV1icCACETRgl6f+fOnode37OeW3fpoQK0PshkE0btdcnOTJ3mW4IFppMspO0Nu287eyyDPWGt2JuDJkZNbrlzYe/FCJQp7qwFYJwhV4HXz83Y34Slri44TASIwaAJk8gdNlNojAv0Q8Bgvunr9oMKC1ukrVejdamPFxx8M358kMu0gbL8oMGvPMYNXzE3QcWy5Av298DzcFGSprgfRsf3N77+9w+nvw562AAKAhfz5uDNIizgaxnDF5S6MjhGBDUGg9G59Q1wdXQQRGFICmn0qldPrJ129Pqt+dfJKcfndofN1w7b3CBrr9s0r4OCHeL58li+URnh/T3+/a8fO65ePXjvv9PfQ41kE/xXMZIx14/0N7hpUWUr+IR016hYRGHUCpMsf9RGk/m8oAp9/kEGv/88/gd+fNRrQ6z82WT2wfuItf5llevqV6vWx3f2yRWGC77FZ23rQfjir2xpJc7kotG1Gwfz8NG4DGvWtgTfWSVuZfcj8uXD7rsdf8OKxPHO88ud/Pv7ed6uSzaRGV8Xksu3TQSJABNaSwPB5Edfy6ulcRGDICBw8pmcfi7lpc/czkaQ8CprC00mWMhasT08F7j3ggUeUfoH5vku50022F7ezMKjwSCd5p51YLj0vGhN+dP/TYrIRHn2rcul8dOyEkgz3Hg2eDGW6gfUBSmclAutJgEz+etKncxOBFwjwyvSpq1thV3t6/SRDoJtF9jpj18fkF5IlOo3zJIVTXhjOlTP5nEN/H0ZK+GmsE8O8qNJEJF67M8Pm2OGT4ff/E3XhnNhSwbsDpild/guDTL8SgXUjQCZ/3dDTiYnAcgSqXjU9904glX2fFbc/4XHqVcKJkmi55RoY6LFUFLD3cd4uTM5k19p3V/IV9PfY+U4XMlShV1FCxXHcno+vnNt9+QI/e8puqSSS+TbFHQLzw4H2iRojAkTgVQmQyX9VcvQ+IrAKBDpz45VGzvyHp9+qWwTHQ6//CZufZ2F1FU7WR5Ntm7SKdsdkGpvjQlTgts+xiiORrsyKwkojQz/P0zhLImWmdod/9mfNA1N6RwNb4TGWVpGzhyNCX9xnbHsfZ6MqRIAIrC4BMvmry5daJwIrIgDJHpLv+n7AvPYZ6PW78fJfrJ9ef75odUySixyb40JQjw1zlbWSe4XtQGXPob9PeWtuNuLJ0Z7+/qqt+oHbUxfB+JwJzO9lalhWEh24IjZUmQgQgdclQCb/dQnS+4nAAAlYZZgWadoIAsP89qmrVayR18bYp78a4ElW0FQ7a8c6xRSfK5dwT7tEuTJQIrdOf2+sV6Sm5odvTI19/+3tb1+tVvwZzjx3pwJ3AL5dRGqZyIpdIX3TrIA6VSUCq0WAbr5Xiyy1SwRegYBmHwvpVstjp9e3onL/9GV76b1XaGkwb0HUnrbYPZcL4b4rkIYP5twt6XuaS5bl1hixd+eu65eOXrvQbDRy6PFsIbDfrjP54h5jjxDcx6xz81MhAkRg3QmQLn/dh4A6QAReTgB6/ff/g/7wnyKRsuqYzcVjZLfjwpfLJ8Fzu+AsW8r0+tY3DA74nCsubcg6kj3U83N5J/Xm5+YeQX9fr22B/j7O2tDf82Be15rJw6oX104fi/7kTypvvxuEsoXVfp81lj0vHSQCRGAYCJC7bRhGgfpABF5CYN8Jp9dvTZt7nzq9vhc1PaWzPJViMOI94WbvbvqOFXo8KSy2yi2QV7/TSgM/4qGGsW/FBtvh4tTSj9oPVbOipo6YC2/qw0d5KAX0927J3n/JhdDLRIAIrCMBMvnrCJ9OTQT6JSDD6RPXnF7/A1V89SnPU6V8G8jB6fUhuecSyfPhBoBXPsU+uS6jfpLHLBgPuJe0c2fwo7DBRNRqz/pJ7dBR8867xaXzZu8kHPcuXg9b6ZDJ73dEqR4RWA8CZPLXgzqdkwiskEDBql4lPfNtp9f/BS/ufMTz2On14xW2U1bd5c6HS1+wAmn/sbutjlOTQYvvqTAvUo35eyADL/Kk09+35jpvHd9y8U1z5aLdPd5dqEd8vma+h2WGkhWFshPTcSJABNaQAJn8NYRNpyICr0ogbo1XarlQD9+4vqDXv/sR68wy3nzVFp9/H4J6IA1wJt+y2GSxSTOTFDZHHl3o76HQg8GH/j7pPOzp73/4w+D4G97u8a7+PqtmHeZVjAgekv7+ea70GxEYLgJk8odrPKg3RGBZAvWApbnHvUCo9qnrTq//K8u+/HBgc2puIL5zCfEzpmHvkyItWG49o3UMn71Arr2MtebmKiI9fmrrlQv73vqWqocL+ns4/3GvwH1skIc1ASpEgAgMLwEy+cM7NtQzIrBIgCvjaZGlDS8w3GufeMvp9Stj7JMPFqu81pOedAdpfTOjEyzkw6svtBAQ5SXI8q+Z1JluhJUTB8d/8M7Ot6/WqyH094GL9IMID5kBldPfa7abvlBeaxjozURglQmQLn+VAVPzRGAgBPjHEnvUcBa3EVxvVXj/jav24ncG0vRCI05yj2Q71rhwfafFN4jnEz4enf4eOfegv3/78om3Lo41m7nGy7nIsEUeikI+Xae/n3my0BT9QwSIwHASIF3+cI4L9YoI9EXgiw/Yj/86+d0/5IGtT25lRrG5DksyBPulQnBjTIFM+JZ5KvI8J6RLMovEufDVw5EPRZ4rXWW/n7FEsRmZPCzuP4wfJkUeBGEtqulGa/qW0E/UmRPVv/gvtnzn+zXJZnJjfTHeV/+oEhEgAsNEgPxwwzQa1BcisEICu46wN56oeN7c+6SYmYNyjwlpA98EntPrd429axFP3I73RSF8r/crR4x9t/CuyW9BYOcL7mWQ4zMlPR8J9L12ms18prc2/WMnq5fPV44dV93l/oaF/p42x1vgR/8QgVEiQCZ/lEaL+koEXiCgajMn32qGUfj+X2effFB0ZsJaU9fqSI3f1BreeKuUkG6Pe4aEuS5nLn7cArzl+Om25dLvMFbdYud0e7o1/bDzJPN4NWpAs5fGqWhFR89WfvCf+hfeVFsa2sXpwYNPQrwXhoF+JQIjQoBM/ogMFHWTCCxHIGPYr37++LWK1ixN2K0/mCJVPHBb7UJ2ZwzPc4aXsPKuFKtUvTay5cC1D3uPcDsEBWA/XPj5OTORePKo/Wi+lTGlomphPJMXRWqvXth67ZI4d8ZuaaQM8XoIycfdg/MUUCECRGD0CJDJH70xox4TgUUCRSeUFWXZvRNvTSCE/1ch++IP7MlDUd/CENKP2Th+CtwNpFjRt8rz4eHv2Xs47vGfETyXbup+6+796XZsVK3ZqGcmm5+ZDqXeOdn4z/9i/MBBvX28uwyQVxmEeHDpC8TrbV/sAz0hAkRgVAiQyR+VkaJ+EoFlCFQka8dKBCIS7RPXKlHgLP1Hv263Oh3sceerZhT6Cjl0C2ltjmg+BOVjYo/NeODPL7hNuEmYTZl9FCcu3i8Icp11Og9C8eTNN3Zfu3To0tU88n13UwCjj1V/pNAXTrJPXxzLDAYdIgJDT4D+cod+iKiDRKCcAPdYULAk2aorsOT5gfMe8t9O7BGf/iKYeRKn8azIJn1PSCj8ONbwkW7HTf7hy4f5xs63LZ3PmLxtC1NxPv5Ez+ustW0yv3h6z3ffPnjuDSb9ttsvx70VYryevReJ3oHAfSpEgAiMHAEy+SM3ZNRhIrCEgP3Y8w4r4c23WFBLhJw5eL6xd6o66bFPPx67dWM+TzG570XvO82e4LI7xUdiXZtZ3TbZjElaNtd+SwiJXPr1ZnH12tRf/Mn2qZ04SzszmOBD7dc9o7inmTZsN0T7uHegQgSIwMgRIF3+yA0ZdZgI9EXgyXT++18//v0H819+6rVnJqWpeYLlooDmPi7iju4kSLEjjZXaKp7d//3REzveemvfhUs7DhyQke+20+u68mt9nYwqEQEiMAoEyOSPwihRH4nACglonUNlj+n43GP25U324T/HH/7+q7tfPdZFo0B+HlEYzNw9JkIuA8jwxX/9Xx1vNtnWrawSuQm87GXLxwwf6wBUiAAR2CgEyORvlJGk6yACzxHANL0rw4cSz7AiRwSfU+vNtJB+z6nypYSxF37o+aFAfF+3IN8u4veLXCM+DweryLdLerznoNIvRGDECZDJH/EBpO4TgeUIFLqX/t66DDxuKR7hem5BXiMWr1t6k/fFnDqzxSMphQeVvpvXI9gvQiJ/9yaa5C+Hl44RgRElQCZ/RAeOuk0EvplAL+IOddx2eHmeZxk2vi/qY2PuEOx/gdk/Zvsaaj3E6mt/wbYL59JHYj6ujcu1JyWl3flmzvQqERglAmTyR2m0qK9EYEUEYLVRIMlzBVN2PMgWHhcn972pv3tBu9k/Ns/t/hTGJtbF5bModLcIVIgAEdgYBMjkb4xxpKsgAs8RmJvt+L4fBGphuzzE36cac/1qGCIBX69gV9zefQB+dVF6WPXvevKfRuw5k98V43f/pQciQARGnwCZ/NEfQ7oCIvB1Aj27jpS6NmM87ybPcx57lyffFWykBxdAbxc9LPKLyKXShdlHog548l26DuzKU2gd+JS6owuMHojAhiBAJn9DDCNdBBEgAkSACBCBlxFYiNl5WTV6nQgQASJABIgAERhtAmTyR3v8qPdEgAgQASJABPokQCa/T1BUjQgQASJABIjAaBMgkz/a40e9JwJEgAgQASLQJwEy+X2CompEgAgQASJABEabAJn80R4/6j0RIAJEgAgQgT4JkMnvExRVIwJEgAgQASIw2gTI5I/2+FHviQARIAJEgAj0SYBMfp+gqBoRIAJEgAgQgdEmQCZ/tMePek8EiAARIAJEoE8CZPL7BEXViAARIAJEgAiMNgEy+aM9ftR7IkAEiAARIAJ9EiCT3ycoqkYEiAARIAJEYLQJkMkf7fGj3hMBIkAEiAAR6JMAmfw+QVE1IkAEiAARIAKjTYBM/miPH/WeCBABIkAEiECfBMjk9wmKqhEBIkAEiAARGG0CZPJHe/yo90SACBABIkAE+iRAJr9PUFSNCBABIkAEiMBoEyCTP9rjR70nAkSACBABItAnATL5fYKiakSACBABIkAERpsAmfzRHj/qPREgAkSACBCBPgmQye8TFFUjAkSACBABIjDaBMjkj/b4Ue+JABEgAkSACPRJgEx+n6CoGhEgAkSACBCB0SZAJn+0x496TwSIABEgAkSgTwJk8vsERdWIABEgAkSACIw2ATL5oz1+1HsiQASIABEgAn0SIJPfJyiqRgSIABEgAkRgtAmQyR/t8aPeEwEiQASIABHokwCZ/D5BUTUiQASIABEgAqNNgEz+aI8f9Z4IEAEiQASIQJ8EyOT3CYqqEQEiQASIABEYbQJk8kd7/Kj3RIAIEAEiQAT6JEAmv09QVI0IEAEiQASIwGgTIJM/2uNHvScCRIAIEAEi0CcBMvl9gqJqRIAIEAEiQARGmwCZ/NEeP+o9ESACRIAIEIE+CZDJ7xMUVSMCRIAIEAEiMNoEyOSP9vhR74kAESACRIAI9EmATH6foKgaESACRIAIEIHRJkAmf7THj3pPBIgAESACRKBPAmTy+wRF1YgAESACRIAIjDYBMvmjPX7UeyJABIgAESACfRIgk98nKKpGBIgAESACRGC0CZDJH+3xo94TASJABIgAEeiTAJn8PkFRNSJABIgAESACo02ATP5ojx/1nggQASJABIhAnwTI5PcJiqoRASJABIgAERhtAmTyR3v8qPdEgAgQASJABPokQCa/T1BUjQgQASJABIjAaBMgkz/a40e9JwJEgAgQASLQJwEy+X2CompEgAgQASJABEabAJn80R4/6j0RIAJEgAgQgT4JkMnvExRVIwJEgAgQASIw2gTI5I/2+FHviQARIAJEgAj0SYBMfp+gqBoRIAJEgAgQgdEmQCZ/tMePek8EiAARIAJEoE8CZPL7BEXViAARIAJEgAiMNgEy+aM9ftR7IkAEiAARIAJ9EiCT3ycoqkYEiAARIAJEYLQJkMkf7fGj3hMBIkAEiAAR6JMAmfw+QVE1IkAEiAARIAKjTUCNdvc3bu8fPvl8Ynx3O8mj0OcsF8wKWzMZE36xuhfN5zIWFSxSzPgsZZq1ZnQ0Xsv4TMjHOI6w24zVph+NN7f4hk37trmy/th4oT7n7knv0T1L8AtjXp4zZj0hQolr5qzg7qhxFRjuTyX+MRm3hsmwe+zrD3dbbd+Gk55koUVTrlU0ouxguKEpzWYYG8tZFrJY6smHd9Jt+37M2He+3pVXOaJZJ5mpVHGtlU5bzXdYbQsgzSjTZII/mTW5aW8djyTTwCC1L6NXOcnX3+NGxTJ81CSIdUte5MbywGszDur4EZp52j0ybVnVMtv9QV0hng1jyl1L3TcIjhEzhhkMIJ66FtxwoDiGTPOU88Jj1e6hFx8sm0Mda6QSi1eIAyZLAxXEmn0hi/0SH1STS99oFqz0iyzp4PP9WKn6zVtm376As2nJ5jnbItnjjE0WuD6TVkWMDsezoV8LZdkJBvS5Yny6+wEHK1DCyRT+CgAltZxzhaMoDp7IBMsYyxSb6B578UEbFsdprQpWnNnAMm54olns28aLVQf6u+Yqy7PQw+dW6YJlmskAf8ntgI0N9DzU2OsSKPsgv2679P7XJLB1fDe+yO7f5dOP55kwnVZ7csyL501lvMzUveYJF95++4tZFmS5eHxgd/3soQbjqfRifAspVoHhtSzIbdWTW3/0jzcbk1vb7OaBLedXdGI/qC9a+aVGvxZ4lapfqzHhvuhQ8nbeSpLORH07vudgU/DlpXOd6SwKfHegrJitc63ii5sJLL5IY5a1uKcKFUT+ouUoe2dfx7PCtLM4DMfbnaRZ116CMwTb9k319eZ+KglTqQb43rz5RfxPP75zfzpXEcvZI5FVPa/aSRPfy06f2/Hmmd1jEee6gzuDflp9aR3Yd3xfwyzDrNois0J6Hgw8xrwGuxtn7MmMuX1n9tPPH3x+497DRzNf3piDLRJCoJrv+2EY4hHPv/vDvRPjjV07xrdtYeHCQGWFTlSOG0S8gwul8K/EPYBVRovuTdwyvbtzv/HgwawubBSKojDWauUJY+y92+2LbxX1OmxwwArcdjg72LOIy7RSfiiMcEMpcubdvPGk1Qlm51uCmwB/cfcf1ydqs3FrrJp+68IOKRMhcyZK/+h++2GXWfmJ+nxlz67tuDty97acecqh8wN3XUrk2iZJmnle4MlAMJ8xP47dp2L5gj8VmRRaKV75/LPOxzemE21kJPZvH1++/oCO3r79Ra4ffPe9Nz2RBcrn7u4OxgWfZCrDRYBM/nCNx2Jv4k46Mxv82//1pz//9e0kN614btvkFp2zu3OtxTqr8eTglmO5skEte/fa7n0TjfExfPVYwWLBAlhdfL9qOzb9UPy7v/6sk9+Z15/du/ObFXVD4RsfX2tda9977P165eyerduaBw5MTh1s7todTk44WxJ4ISaEOotRU3qB9JiSHr7/lVyY93z91DdupP/b//uzv/nJzU4LHoMCVoX7KhVeO+55Cr7+jpUdaYYT7eROFO5O0vlaPVHJgclG+N+Obbt0amXtlNeewxflfNv70Y8//t//jz8+nFbCD+Y70wr+HT+C5fO8+OYXrYnGRONEKOXjQZl8abuTSltgHm2MUaFzkaDMa/n5Z9n773/4q199fuPG/Mys1EWVs3A20zC3GBc3NJIrpaXMpNT/+E9/Mz4W7t7dPHRk4vixyWPHth6cGg88n8MvAwvGY2NbHN4DhpENZfecy6L47/+Hv7r71YMsZb4X9Uy+58PkFycP7dyy6/iZ03W4vfDGrsl/lZGdbz3M2dwXd5785V/+JC+2Tbe/UPAbJV806h2/nuUmfvNkdGzP5K5dwg8L3PKWlX/93/0vZS+t6Hg6nVeq3rZttf37J4+e2HXi+J6DB+uTWxhuhQWXFdBiRrAc4w+SFfwllBT8qXpKCxlMP2a/+PXj//Afb96bznkQfHXv/yt5x2AO79vaGJvoHDlyeGpvyHghmSoKfDz8slu6wZyVWlk5ATL5K2e2Ju+IKnJ2jn11v/jw4yKxfidVj+Yyie88f3UddL/+aDY2nUozmZqqFe5bX0pMN1xJLYvw3efxsJWwDz+dv/t4LhGdarCt+2q/D5i39arCVCx98n//9eeViI+NyZ07/KOHxs6/uf/8hSPbJ2sKc0x4C4uE6YTByyucw3OukzUrmO4sU+qT1XYe3bwTt2ZVXQWBFEbIuDsdXab2yg/Nz8hOFoShyosgStL8ScceqDa3D2yWX+Ra+tG9B+yD303/8fMnhm0JqsHsbCUIrKeVtTJ+EPve3I0b+akTWFJ5FWu37EVXFOZlcMJrjIsKnbN9vs1u3537N3/1yf17j2/cuH/vXhx3MHurKl4TMmxsz2BucXOgNWy/NjZFV+DJFdn223fjL+7c++B3X+zaHZ04tfvsmal9+3ZcPl6rOH+EENzm+CzlxsfUeeEjsEyPYra9bWwnyzxTKWA9cEdincn/zW9vz7fe4G5hwb3brTm8Ugm90Pek0dmtO53HM0/aRRqElbSVe6rF/LywrWZzRwrLBV+A58wter7seWY7g/l7VF40mxbzt9PP7975pw9uhaEJI6yq8P/mX39n6vCOqYOY36MPutOZDWVTlVr8rmNA+Zhh4wbh/nTndx8/uHk3U1E9CgfTz2Uh4OCv/6h37YjT3Ff4ILnlP2f3DZZzXnWAyk5Ex1+TAJn81wS4em9PJiarlUY9HJushlvC+HHVGVxtCnhbV7EksjBJR6tYhsZ33/ywBEH3a286z5UXeobleCzwXW99FTRqfvnXz3LdNN1PXM/eL7X6RW13nnW+ujd3+/bDP/z+4a8/mP3Jj+f27tn5X/7F3rExuH89kz7J83bQmMQMMSqx9zhhrcnqzVqAxXDRHK80PM4TqzGtVHDyD6KoZj3QaRBMZHkAn/NMwr2q3bp1ZRC+oSPKb+YF+/jT9qe35rDWPTbpVatcBEqFRggYPaVN8HjGfvTR/JWrW7ZNNAb5B2xcuAP34MQWiCH4hx/f+oef/ubf/rv7cKdjiT+I6mNbGlJ5MMB5Ptua/qp3FRhEFHj4e0+a23blRZR0vCSbv3Erufvwzs9/+bhaCf/Vnx46eXLv6dNjWD7wJCZ/HoNXvzy+QoTOr2QyoyU+8bB2Bjc8Whdp4vnRhEZshsXdJ7w+8PdgeXvFxQvqmhcTk6paHY9NRam8Uqu2Z/0iLxJts6xjpVYhbnYzrKznWsDZvmxZ6ed/2UZwsKj0HBY+7m1Sq/MOm49htfn/+D/9/anTe95778TVqzu3TYhavcpsknVS31s+hkabiPGM4SODfwNtVJsHhVeLak8XzMo68JrH57KJrMjCqIp7bHd3LtwdeWkAxGuejN7+GgRKPsiv0SK9dSAErM1a+LNPZtr5bLVazS1W81N8HyjcOq9maU6MI8AurLFqlbnJBGLfUnzbuvioPE8RKiVEDpd7FJpGzfMaNQ1fxEpKzzB0I5GWuPctlvDHI5Qg1Nl4kWe3brG7d+956hGzD7/99pnTx5UIxgO/xXSOVeZvuOtBWNaD+7cfP7qPFQiZG5PFbZMmku9c4a1J2TU9SZ9oPht3TJq181r84KGt+NOP5o6MN1bm7ShrHwbm9h32y1/f+fJuyw+xtpHkRVvJAtFuRRFLKaJqmHf4b3935ze/ab733sSg/oDzHGDh0nEenSdz7B9/ev//+n9++w8//eP4xPk0jbM80Th98sSH20QaL7BhsQM1lxr73sh+ee9DrN2g3zIIjQ7bqWk9wCw5/5//8m+uXDnxvelzF85u377Nc58s3MCyTLrF6WWKYe1Czxc6RQgHnA+oUWiTF+l4bTKsY4qv01x7SnIXyWmw5PQNDoNlWmcsbmuvplqdotPppLEx0UyWd5KktXWraqeiE/Mo4u52ggub2xyBiyWgTb6yz/+yncHBjgUKKbAKJXwJfzgiWLt3x3em+b0f3f7osweffHb0z/703JEpXHOOTyBjy5t8dBUwwBejiSWJMMrrDdaY9PIHWANaxVKpj1teBJ4bhyLJVKVqJUcY4ivcja1iL6lpFxdKZSgJYIJXqbKgguVsXa1zBCV7max5wbxGvO5qlljIAkuvuRQCJ2VYurWFQqgUayBUC55cLgpWYA0Wsda51DG+/lfUG4s3d98AC+G+qLuPODA3fR/xX5VKDcFrnFdggbI0j9Pk3/yfH9y5H/+rf3n+wml4ORDRBFuLgG3UXd5j2AzZjubE7i3brN1e8yppZyYSgY1823LOxtcvWyJ8m2K+OZam0dZtzG+LLQ3erA4sNkpzTPEf/OpXnz55XDQmx22eJvOtUFYKVouzWeHHjdrOPPf++OGNn/2cX/3W9XB5DCu/UKwYKw8j8uix/ft/+Piv/v0ffvm7x+10V0UnQcBx04kvcERVJGmnPd/Os2SstnDJ1q3p43PR/cfa8YlG1/YLazgC+zFJx1o/fAB37oY//tmje49++eEfd337ncMXz9aUKDAHLTP5kapVvIrxcPcQoinYeHxSMqwMYxKJtt0NAHzuEQwMPqAuThzPVlLCmtSs8H3M8usIUSy8FMa2QHxcis8/ZsRwMnhdjxr+CLSPaLqSwlf4+S9pBqEN7hSIjrA4n0nhAIE4AkeaO7c9mb7/0c2Z+N9/2JrNvv+dQ2fPjDVriGldvuA2HRGmoIIQXJsVLDcsQ0SdN6h+Ln9W4FdPCv3E3RhBWmRg+QET8YhYh6MyXARoRIZrPJ71xkZZzuJO0mrPBNV60p53X3o8iBFWvJrFzkmIvyoRwqFlgbVZ3/CebMsimA4rsQLLhBrqrRz+/7RgcD672V7/BSGAuIxe/d6T3uNYTRUWoWPzSTqLCYr70kIomTC37+u/+cc/+KJV8y8cOz4BB68LFitfIUQMezwXpy0nZOpw1unMuTjswOvowXArHreEl+rUlbFqxaZe1tadJ5Zt6Z/BN9VM8vjml7dufvFVllSr0aTOZ3ScVeqTVuxM83ljk2gylHl48/MbH30mH89eHweSQRSYVth7YP/i9v2/+/Gv/v6fPs3M/qkjl6cf/lgJqSWc6Ahpx5zXr6kQA5CqaQxcr+D8vckcbH+RwsZjHQB3ALgLgOPedCfi4tDRa/fvfvF3P/rkxqc3rIl3bLu4bzfc8qWe/aLNi44qOoX04cPn+MHdXp7IOIrTIkZXnaeHQ12AWALtTP4KS67humdxkuUpfAcsT4VNZTonMEHNsWrAQtzTus8/guY83F2UlnhAn6vIq7qoCA2XWoYbGs4ziXUcIW49elyPms1o59x850c/+ijtPKlWr5w7O1F2p/f/s/dmQZZc55lY7nve/datvaqrq3rf0Wg0NgIgFhIkKFmiKNkzDlpyxIzkcGjCDtsT4Qe/TIT94NCDXmwrPJrR2NZQy2jEESmCoEBiI7ZGL6je16rqrn25e97cN38nq9HY7m3iUg12N3BPVFdXZeU9efKczPNv3//9GGriTsdcQTGL/Bbr4aY43qXvzPPfaSJ4rhYHdS4ZFrw8eCICGhEqX+mB9jtN2V063v27cpcG+iW8rFGhStmiSg+szfF0OEpxuUZg8gGiqW2+6o0F7I1wUzKBlVYdXbZSMs9HQl6TVQoSk1V8Ic1ygW2YBuy2gbad4KAtil5ETPHQ4hwPchfiUguMOl5gbJFJ8wCyM2w3lvRQzPJexMVGPuuIUp3nXbvVlLnINlawT7b9opyYdmjO58RIFiMVX7yvcp4Ss31hrNMMcGoKh1gv9BtfFulsujSw3kz/hx+t/V9/cXaujIzfyPc8rvMezGqhF4NFoN8VfUeoMaLO83nbrmlSKrBNnQsVhBprAdOiGcfRJaftIG9z0POzLDUEIZjN6K0aW7Wu9U+xLaejFdjxuY2oWq2CrO+Y8i3TT3QcWEj+3Kr8w3+4bLnK+Ph4yypbXk1IM43YdISzodDktf5Kg236TGZgfGVd/N5fzMCNi07qzo2QJLIHtbqZXLGjKO00nsBcwZ+mL1l/9CcnfvYulys9WhpI1WuvOs6GpHKCrDk+h74bLRdPQr4kC3DvI82OilkIppCjfTF2RcpTKH+ADrN0yEYBBI5F+bREFdP8RMOZESUKHpeRQvqZR7dtGQJvAu00O2LKODV0ojot+j6NDEELqqcb2aLOeUwss6JK0TlWhe3vUZGIpE2oAF02IQIehM5kxZq5HvMs0spjJkxloNI0lVzs00T11BQWNqtjuJ3kK64psl7br0ZjaGyy6EeXFYqWnAKPZ95zwlYsRO2/auaVSuNGvWXGTFZLTUjpASDh6mEVcJo0bOc4QK6pSYkvvjPzb/72zHWStdPCwQR9QcH94wZw9UeOGSEVMnKQoeprGs+yOo0pS/GBXAZUko9pTdGRmNBqGlCqMyJlledv86h39ad6hVWU0XINGj1ecXAMNFWa553PV8/ocs17p5MZ6Fn59+hzYLXKa9UmJ64PDhlZL1LBjuM34tBoWe1jh0e25WQhde2yazRti2aJN55nnIANTdezAjqKCim1WBJTtmeYlqavGOFy2zvPqPkoaOZzkaw0Y8h+YpH7ks53kiEsF7mh32qFDcMSGDqtMPt3w+sorCy0D7hzEshssEMD/+d4sNds23E8NMPI+F4AlEAqlUFeFgWcGhPx2OZipPmydMSvLLcuXVgbfGIYAf8kttt2+B0PVmsrQbCR7+vP6KwJ4RjCeDZ5MYiU7rwUjr+ErMXAdxRBJ4EIxVGkhY21VWq4u35goabTWZAsQblSVAlT4nkhIuUnjy9VNlpxrPqwcH2b4TCNEGlAuylIvoJHGxgC4CqQ0NUy6qdOXlwrDxWKoiRqm3cuEcQZfN0BmyRDdpyOT/2BV3QA4pYXa0bTgS8bUHyGpXlWygK4bmGZGgIfbx1D/mRufDQ9Nlp45LFneMgUOKADqlpxFhdWFhaWqtX62+/dsFqRZdHgfgEbAiSp57c2Gmu8mIo9e2w098gj20bG4JoIMEhZ65jv/qkB3mcHVpdfP/Rw6+WEAABAAElEQVRgvlQsZ4BHgYOdrRN2Aw+Jhu3dQZN9/dD86nWvVr++tgbXGq/rajG3pVqD+MTTCq8JyVD1PWpuZvVnLze3/gYS8zmENxCPkATJQzojQvjA9XdooJPwEQLBuxa4kmiOD6fGh/LbxsO1jdvoMx36and4W6GQEo3YN8NADlwaeYQ4C0per91rM9AT+ffaitwcj6LL+/blCsPDz33TFMWMItCxSyxcPdPeoFzaWG810z/6wcXp08sw0+2gxcDLBqNFRiCSKWXUJx7b/shjY4riOQ4s8kxfun0/jRZkjxWFjb6S2pcn8h7IQfhqO02TqjO0C3uJVXgxo6nbt2b/+e8+UipS+UHiFf10g5zd7AxeU8ehWq2g1QJsyvm3f/H2ymp9Y832bZMKdAbQKTiHKRhYHg93gsXM37DefvP6tomB8REWGoIs6Z/u/DZH8qV8saD+F7916NGHRjSEaiFGgRkExSCIVrppLEPG79jgSKEknqpVKV7y0lp7/eY2HSPeyrEMwiPERQ1fMs2DpK7e8F575WKl6jG8jmmHGsDQHBweAHZ5NrLUZE4EO2EjRPSF00wzuHpp7dh715752h6BS0WUg5dZTmjoAoTQb3Pt9n+SFpad8+eXymUnimATQi1jWEbihZHG8vUoNLdvKTz+6ND+A8VtU+mhAUAmNlVPyBiaKnEP7Rp27ILr+kcfWbh2xZg+2bx6xQMnEqxzTgpTSlRfc1MyfeTI5PPfPAAMRBDZAfCC7Z/B9uO7v47+/u89+j/8z0dlqZLh8sAgEjAMR3k2Mh/aK8+njtlQ5+eX189funHx8vLamulZXOSJ5BGNA4h8ki7LyCytLc43f/z3b/3aw4+XSjwCLfASkZgLzd2MnHdwgLGE4QLUDjEIF4rZ9PPP7nrikUmOdgYnun9S2q2EUSdEYZOjoFykdBBGUiDjcwD0Ae9Su9N7x+7aDPRE/l2b+ttfGDx3iFSWckw+l7gXIROwuUZCQkDS5qOjA5Jhi9Pvyu8D2OwjjIY33EF2bhlhZh84Z6pY4B7YJyHbCzlu2D46mgOkbyRQ4wubB7YnAMWRVoW9ub3z1HaaiOljtFHAI6UqLQX7d1GKZIKStc0ocSi1ueXh+ptD4DxP831RLz535fL6G69eOnFysdHwZDXNirTj2ILGALEVUXyjEZ44uXZg3+rYyBAP92WXbX6hQsUtnqv3F/pkwsCLOwIaEaPAvHbRkKOItGNFxifBTST25yjbNbEtQ9p20QsmF5FulgXpALLDMc9wp3Ai984bF69casSxpKpCjHA50NvguPFDJOWHIFEDFR2nhApStOouAr4xy7GZN968tnv/nrFhHunukA1sgpcCxV1Xg0lO5mZmVs6fX2k2Yd9jTpAjACePgLsLImN0WHn6ya1ff3r71q2yyMKtXKEcsPIhKX9TM+BokUV6AXSg5x6Tnzgqn9nfeOfY4qnTizcWKiYA8THFBs7klqGnnti2fQcW3nUDj2a0L7A42Lh+IcUdykuA3YN1EFmmyBG1FBmvVfvn5MmH9JjWW07p+uLQuUuVEyc3jr+3fu1KJTUMkqTk1QNZIM0rUt5q1eeu1d49fv2FF/ZwPNRfUxQQC5OCMIExdlh4AIPAboAFYyOHy4jDJXnXJMiRJPjh70hL5Sk6n3AHgL8DXjrsOpGH+FzPkXxHpvcOdvJLbA138Oq9rjrOQK3qyboQxFYQWpIoRAFtWpGAnVVuL3pZoSwyKddDNBAuxAxJMGICSPiIyTqNsg+yfN8Dmorj3MBvQeAhU73ttR3bVGQNWzSsUEC6XPB9xUpyantrGDsGC0Y85OgLAFa1ag0bCCRKqkVO+62NYg2C+cJuA7GE/2kWfCOgEt07Je6ZGh8pDbD0m2+9e9XxmjwLpQHCh/HCABgwhpcXlsonT11/9pkhHRzzXTZVLgLjr4gKYgaw0hEHpSLJB9nKhxTun6lHO7A5AYlQAQuyAqC1A0oM9cg2u+wGOyFIZFmB2LmB4zR5KQfkxEs/uWjanKykkJ4H9BUSJUByQ9N2fymdkgtnzl8HvxCn8IRDJnaQ1yAJ6elzMxculkeGCzwteK5NUuNo6ALd6TG4c2QKXL9Rm59vBoEkaUiuciPkggWUTS+pKfOBAxPPPrVj1xSsfzwGWHMRpIz476PPEAQTbFE2FFUuOvKAfuiB3WcuDr7y6rU3f3792rXqlqHUk49OPHw0k0AzPYFXgEW1LCrh5/lMM39/nVRZMkFsz2nAN1CeSQlKENJehLIVm+H3T90ML2KhA12Od02ltoG4cHJK5S8E5uk67Hg8KGAuBBgyiOB3kaUMmBFeff3SE0/tSWngTwJzANGLAWlFHB+evU/1TQ5IYhrJE6EPQIttNgK3ZYPFj+Ls6A6F22l+A3SKQFYg0MMJxKHP0YSUp9futRn46Dt7r43tSz2ebBa4H8wA8E0KCX6j4IkAVhy8RO0dg3jFID44gUU6LCsBV89SASMyipAtwSjTtEBVtSTOC0Ge2qzY0XZ+AbqBrEdGLXldYXvCs0Co9Ts2npHxCY8GL43m2w6wcSBGJT5hCfTvbVsSdSbGRbIh4I6S3iPPEEX9yGHgtR6CZXlietEDj7iSA/IY56EuiKRmjA0ksK2srgb6lq5FGjKefUDlPNwaTBCy28G+FxT4WzE9XTQ1RhIazge9O1zu5CbAk0Mx7ZOkb9Mv4O+25avIgkh0LwQZzp0P3zu5QTGDnIDkhRCBD46Vfa+hq97BBwvbxscXl+bm5ms6neVkAb5+1wWoz26ZzMlT8w8+UOjPbe6wIdaLJGV32XAra2WjAX0MTw+ZXYKKj0IeaYjFrLh779B2Iu/xKMCVwBtIXVfqLHQ9guQn03GzsbFZ5RQNugxQhP7+nVopf2jLwPClCzVBajz55Hg2hefSQuUkMDugf2gUnazeD3q8X//P6CN5ksaIzFJGgG3P6SwS7pE9Qnwk7VpEB64NU1ySsHjcrh3UyuE+s5n52bQFbwrJlIGWB38Sy0OUIiR05sLi6gZc6HDJJDzYeICA2UPebAeEPMgSBE5GvCe0HIQDaE6B6wEr3Pk9bTfI2x0jvkOo/wlcn5xHCijgel0/ibe7Ru9v//gZ6In8f/wcfi49tFoNUZSx78N4QskSMKAFsSsAnNwhShsyqCpG4W22ALUPZRh8PmB8AdNsXrcbGzLDNlr1lj2SVkjqHQ93MZyt7RrZ0WGBAt8GuBBPQY2AJQudo/3ZqH/XBFgHdLgeznYDxwxZIsKidOi3d+wnXC+JoZj0iH6JSoGgvWFIgszT3JEj2uzi5PXl8o15oMDF2PZYFaeYoH+jhLgG2requXWL3u1OooEYnoLlSmhdQhPRzyiWqIpVK4jdpdTHBDsIWypErqHnAVdIIegB+4vvkmksCRAkOERgAiR9tWy//NPztaouZFzsyIFPh0gap2Tfr5VK4tee3zFU0n/609TGhg2+EyTrA8oXIEHDBtYh9/7p2WvXQGlbQH2bJP7yERncbonbHnN8qmW5AdjZWTGOUZDAwu5NarhFsq7JQ30DSSgISl0LQDxGROQB0hoNCZswXolMAkcPFkXLwNTzXdwEfEQsN9LH9n9rwHpqYGGluWMb/CxNZMUJbBGT6IPAGdrsF7S54LBEPT7Oc51IQro/g5xWsN+LjH8TaPmJ+6aRLQPQTQwuAJrIfIrauVNm6MHXzt5wPXh0Io6nA88HXg8PGoS80eKWVs2pLTJqGRH2fTie8JZC1e/QqvVFkU8xsWJ7thvC+UdK8uFjjNsxaaJDT+0Pt9wWwKdwVLAgZQZLZMgoCPN0HE77TnpHfwUz0BP5v4JJ/mUuoevYDWMBruPN1wbWaYC6pSHXIfbsuMhdAs2lyMm8rAqQ1hBGGTUHUnYu5vQ0bC+w5RO71AXHB3zqBGfTpiEoiAvCzQvIENhZYKslBh++t98asnrBCBF9sCGPkVYV0SI+FDMqI7a3ZvxAgXgglfDI/SXfE4Uine1z4LZWgEuXJ6f6igVt9noN22XsxCkdfmwbFiEZfwTjGIQwSO9LnARt7qDDIbYVhSgORDwmLEKqiQWipmSmSyvfowDVcxJfiw+oNPCRBFxHZqnbVyniAIIHbg/jldhytfHesQsMU4jidTpiQJQKoD5Dw3JiiiV553YdhvfIaGb+errR4ptOneGR3YCyNOC5zc7Pn1tZBk0hiuySe0fYBKvcbfMJlTOkBg/iHFDBQHsUGAXhl8DVeBoM7aQEakQ0JlJjhocwChOVDg9ZrBK3B5YS3gXij6mzHBYnjSOArSE9W+AtIWPrmRJDmbZXiT2UByJ6nmGa6czmw93tYO+D85EUizWEHhVzAiOCQsoGkXHyyLZ/LxyQOCPElfhMyGk0NT6qlvomqT9eAMMxsm9QrRCGM+ATQNfA1c/x6XoD+bZRViJeOBTcgi1AHu4OTRRdWQLzNO3YoFRmeIWkguAx5jq8px266XgYVTBxefSJBF/UlWZA1oWkXrwWvTS9jnN2d/7Q7T51d0b5pbxqImKxmSb7OGSvwsGGu/nrpyckJUWosgtebcaPYc+DLs3jAqjeqETjurzhySES/YhcskQkldNwF9yuIRMYbKbJGUCXET8vcgTbfqDmV2I4GrG9mbQciRpHyM/hLaep9tbMx4hLN2+NuANJBXBJzTv+GkITB3cUinpKYU0wkwgKYGmuqmTsOq3zw25zdXm+rjxWbDuY2xw0a9liIXYo1UOEJJlVOERFUJ7w8Lp20XiqjJKwmEiAssCPiu0We3AIer/kXrroyE4hhanSnM3nhpxA/Jvvzy+V40hrySwHg1tJFy07XilfPnIg9U+//bBGMhfcX3t+19yNE9eOL8npUsRFTmtD4lDozjBrwr//8+tjgzuOHAHF8MLacjjcP9mtBgJFgVjqSVE8FDFE1BieZOTR+ZBZcWYdhWyN/hwo9hlCjyNJfMwSAgBk5ScErxD3OB3ohFhhiNcEjpCbVj8ZRyoIQGKPw6osbNkk2IUhm8+09wN1MYf38KlVOyWgBi7eAuhGtOuRes8ZAHLhB2k7aoFUl4cvj/zDKhBWnjCUJfWBB4qvvTpDx3mOVQwXsp8OmYCRgelMLS7MZsWjeC9dn2JVPwoMKepIzCSEmmfS2EIQuQFzMmWZCtIFQeXJd1nPPkj0FjztEO+J9Ii8gKBMk8PJAdgT2D6Su+zJ+7aLfVcPJmt0V0fQu3hvBsgMJGIY+yLsHLjKYQHDYQFdAFi0EK7jxIQk+DDC/Iec/kRL6GbilPSanmqk0gbL5kmlryQSD5HWLREpG+cJngp6DdyXkJLErkLdHux/m5vcZx0TKU+IBAwRIW1+eYVaWt4AVxkMdxjbkLyghEMypa7QyIDP5yAkICqibE4bHytOX2oYtgFOU9SUgTMXchaVUm0nWFhYe/BIiWe0VAbayGcdxq3z4JMF/QEsSCC84CcGYBKOeuATfaZWM7nVctZ0StkULFGAvkHt0JLFRFTAEXTTaUMcy5vXhZ8fDT0nzhxyhVs/3Lpc74dPzUAiMynCRUFmDGy10KYoBnzAkgQJH4G7AmoZQvLgqMJrEAWonQMtC1hUZOiRzggotnNDWAwPO5RVEtNCfk2kk2cqzt+uMHC73ny6kWBO8Qbiz4lTQcLTD5X0i6zAtZuJ+/VYT+Tfryv3RRs3PO2hA/tmU0Bg/0LNXLgG4T9wA8Q3gWemSXYyMtVIqdauUUGtxqopWbbZIvLZIzQz2PyQfWhF9a5mUnIzZJul4VInQAcKwRaiPhAJ111D2oBramrOp5j3pxeuXl2NI4lHMoBNo1oxCtm4dnPruHzwwOjQUAoucXQ+OKDuPzh64uzS2UtVJtIBfYCygU0fQqLRdE6fm9v3gDI5rqQA3+7o3+04RjhzYIPDqY98cMKqjDhNLEDoK2l2o1E5eZoaHlRTX51IyTLLWjqgFOBRJ9pOEvlBr5AlicSB3U/0IfwlaZtyqCfyO877B39ADgt02WS6CD4Xmbab1AiioIuCiupEROQjpMLzfuABuh/6JIcTpyE/8kNZj4nvIPdbrSZqFCFPHn4EkD0gAQarhO92l89/knFI0MGmY5FCFwwPvQOIwk2X4Ad30/v/3p2Bnsi/d9fmyzUyiHzfQTQB5gMoehwXgWUQDLiAdoM0DCY0QEFAsYNNHSghSH0CD+6m6eJ4SrR1YZyDNQpiFGyOkNk0pXebXUcy8j9o6IRIfOyyCeDqg8Of6X8aaEvchlitUW++c2l51ZS1HO4U6gT6Cj2bZ9ypif5D+4dTILGFSYeNlaf27+vfPpWemV33HJ8WkecG0zBkOMawzdPnbuydTm0Z34UQAAjvRMRWu2ki8bTLquzXTIvhJJZH+hesyCCdzTdr5ePTyx6EQ9V9/LGJyS3QKVyQ6UM+JZWRcBmYjjeXA0OC3rYp77u5fu9czADwNcT09kMXjn2RpLqxzYZNSgTD6EeeLllueFkQSwH61AMNJdAViJZv+pqIuoBPdxD5qpQFVTIvw7PvCQqKdKFAts7Rrt6BJ6DTeuCJJX9CUAzFhqA03HobOly3Uz+943drBnoi/27NfO+6H58BiLrEpYlEgfUy1TR80NR4oSdzSY4vhyQCpAsG4KZNp1W4PbsV+SD4c10oEk7IphB7R30xL0ROYSsXDn98HL/gN0Nc4MFryICHBxXfOTYGXPGXsaphcnGCCIXh5OkKKGuCSMavLbvFkmqFiGOEA0Vl356+reMwv8GXLCCYgXI+QyVx/97C2TMrCzeIJQjadDgtwMjj2tT1xcb7ZzYefoQa6ANYDBix7kQ+kA0jw6mBAXm13qJpJA8qYMh3A1eOUyyVNk3mzDm48y/PLzaOHB7bNlkcH4+B9EsiDrgJCCE78BzQxPHqAGaQaAMf2p6/YEp7f/74DEQw4sE5DScUJOviwhpoCpH8kCTvkGcDf4VfBz6vTBYklWTugeGHZ4Doip3lrsjnSGVK1zXtasNq1aw5l04F8YpkTnz86r/gN4+qSaLqezQXsihLgBG6Dsn6QyWuX/DJ3p/vjRnoifx7Yx2+9KNI/I08JLlpUzNXm9WKCQc3sOuAK0N4wIXoEA43Kp3Rin3523MHtp1Lh15yaNdnyyFdYDlIRGQwOxJyCxOfeduPtD0oUH2wxohPlMDdGGLmbtr6bc/ufBC2GsuqG03qrXcvLa5aojIE+x6JCcizQ+qdxDPbtg4e2DMssoRGkaVVIl4pZByYB/YNnT5Zq66vOcjkIwyNUBBoRuBNl714uXb2bKX/6TyojTpfudNfgq1bizt3lmaWLNNBuUJYkE7oWXbDhPiXcnoYuLNL5kZ19vS5pb689o1vDedzqaH+YrEokQI1NBJGZFokCL6PCnv8iut99Einy/eOQ5oj4ISnCyx7JPAUgU7fWlmu+n4ky3KATNjE74InR5IkVROKfVnCpUkmGOeCpQeOso6z2Gqalm1TxLEPKn5JVsGJJHN0jtJIzOizN8KrR4FJCcgVDBXXcxnZSB63nsj/7LN4N8/sify7Ofu9a398BuC35K/PVs+dm19bMyipCD+/j7JgIBkiIh8pX1E2my4WARQiRUS6aqPjOwVmvVITFpYBTtMhnpBhT1LDuU6UQe27ZyjRMlB4gEpr8IST0AA2voZZyQhQBbpohFmPArNQ49T0rB/KGT1n2hso8wM9xzVMTdZ2bhvdub2PpVrw3eKi8Pm2rBayC3dsLe7dMz79fsPaaBFm3BC5dSGvKJD8i8v26bOL+/fogyhs1G2j3a3jqf37x96dXjHmUYEF2hdq5aLoucWiDioojlE+3mU2TKpy1bxw1Tx9ca6YT4+N9U1sKW0ZK0yMF0ZHeE2lAsvEYiHkfOv6Pal/aypu/0MyUXie4DYigrW8Rr34w7fNlksIEsBqiKRZKAMAw5MAAJcCHWMB+HwTDwcaMvVJmn3nxgmuAn6sNLCdOgICzWpuaYlyW1J2+JZrvvOHP/oXLwcXGb6AuvE8qmEY+b5MLi33Cuh8dJLu5Z97Iv9eXp0v0dhQjg+F2WzHX17amJtZrlYa2YES6Fz80GQFODYhQoiYR+m6FMle7HKfoqjVZX19edZvnv3Jf7iyOl9G1TqQ2vugDCEMsl00iTKDoJXLs488vPVb33po354cS3vp7O1zHtv0D9yTHVJLS+XllSon9IN2qVw1s3lEwoHGDuG5HRzMQ6ugKa9lBLpGvPTNRktUIPqDkaE+WQKZEiYE4V1I/AhCNhLZZrMyj/rqdXOw1LWVj8KrtKSOjiM7UopA8wznClISuDjNU6ZvNFsOKvzwoqooWWTao6R7sxGhFMLMzMZr9JyuRoAWbhnvGyjl/uv/cnzT0Ae2HGPuyfs2a9/h0OZcEV8WvoiJ3/zZy29T1C5I+sSfD24mBPWRWkHUTEWVNY388BkbSjHFNEiWYqMZ3Li65jfeffNFYfbytKuOf8YeNk/TJCBsojBANgeAew7DWQ8/tvu3fvvRh3d01U3v5Ls2Az2Rf9em/otxYcMLdEVHmBDhRte1FRUJY6Gs1qmgfSw5CFtJYhfhuyUzgN0t+Q5C7qUq89KLCz/68eLcXJTN7xJo37XXRL2uSFOVBa7aWH/4UeW3vtuvpkAI04GDMOms7Tc2Pjk8zNdJFNOJQWgO7n6YsEiA9j60R9t+8BMHLavASuPXljeGV7lSPgM6ggDJzaze6UVCMXvfByk+ibNCOLMEDM8hLkvz9avX09/7Hqqk50qjUt2azkgq2+zj+Fxk/Pyxb7Lf/EYOIVrPlfUsAFORQ1N9pdGE9CB+5jH5xmz///7H1yhvFxMuibzpe6ueo2TUyatX7O//6OTE9kcVquWaYAbUEO4F2AtFd8GvgFo2oGT+xB3d/FUAE56/d7vyP/7hw9/7y7f//senXG9gbPRoMz6PLECZ1whzLMXGXgs0kEBVyHKBFBai4X7QoDbNL3vXF9dQfffP/u79wf7swX3jjzw0dXB/aiCH60OK2Qm1PigFodMIyMbARQlivAuZ1X7U9+zRfOw11ymhT3S5dd7uI7OOm0XZRjiX2rXA2xBlHg9HQKtlj3rxpbmXXrx6ubEdVTMIKRPDqwoPPcy2QFIJLGv0r/4wo0VVisohgg8HgAgKAOKWQX5le1u/hYIbouj5BogVikPpVsycWw9dZZfQgW+j3RjJsWWq3pea4j16qXw1Vdji2/Sla6ugB+61+2UGOu1U98v4e+O8yzOQTauwwqOmZ1tWABw34fpFvlc+5jYJWT85POQHYV9Dsl1CYIftiQlI8fro2HHj9JnFN9+em7vetFwWRP0uwoS0q4mlZtNpmS4M68mJYqmQxubZaV/75MU+8rsqbYN5BIOJ5PmFAJp5SAcAoA+liz5y1i/+US7osRh5rYhXwSSfjB/FS6NbzOKf7oEg2LHdQ8KBugd3DdQd9v6Qyhw/frHRtNN6xrNtIPXJjtyC7lQZGyttnRgm5Lkk5Ron4yqgOkJ9lQBRe2IAUtTwSD9OW14pIzkfQhUcBrGMTAdjZaUyf4OvtwRFc8i6kC6gVoHunEhZgjTs1HAKdDGa2r6176tPPWhZwolTa8uL71ES2BJh0iFzEHY7bgTAcbC+IDuwjJ5gNYIlAeF7/E9oiQgboLa2ZL26MX3u/bOTE3lECg7u2zo6rBZQ6xi4ftQliAD1D5B9uemj7jSc+/24kK2YkZehGigexJKCBYDjAXhXo9n2RZ95oeiH1OKKM3NjZfr82vGTK9dmG6YV9w+WGnXDMHyQawmomRSi8nWczrD9/f2ZzCdZdLAKRLFo1zQ1D6wA6H9dlGGmQeNniRJoOmnW6e75N52qbS8RagBzNdQk36JDpxp7DUrousxEu2H2jn3uM9AT+Z/7FH+xL9AyGxzy6ekwpSpqJttXHAMlqBfJfgfhsumRBxtZvU6trxmrq+sbG2Wjab72krmwslY3XUnP6EUtJGYtKwl6EGZrjXWGtfbtGXjkoYnhUpokwRMJ2N28mi6pPhuGKO3psRyp/cMLAJpRkdEdx345XuCAYA+NgEpBgEGkovAcKSHboRGgH8ADiB4g1wrMiJgbhN55ZaXBvPrK+406padHK01DBFUbYuaonOJWDh7Ycejgrk1rHFFboiyQmyXMBDHKn3ouyuzu3Dn4wMGt8wtnZWnIRxoCiqbzXhRYgN7dmPPefqP87W/kEeiPYw9Q/0TXgci/Xe1yhpALEJVAl6lnvjKUUlO59PHjx88v1/PQk+BOJhQJSNoLAtdFijgyxEhABOVZGBDKJikM+I7RiqwW+Cj9Xr2wtn7h4sY77y1snZwfGSp99zcPDY2wacgFUgfGAVoTsgm8sV9UQ39s+26fElyq6MACR/lLsFeCDjMsChrRvT7dTr7lLiyuX7q6eG1mfX6lWWsFePxTeRWlKxjUngCXISVZZp1mmlun+h98aHsul8O6fLqfTkcCn+A8UQhJ11OAaESxS8PxA9+L2x2RZRo5M24RTNNCTk5nRlpMWEql03xP3nea+HvueE/k33NLcn8NCMnBkEDYThzbWpvfWJi98v4JxTZnDb/9VuKgXi2JAxKbEVYltqFkM0KVlVwQ5dJ5VkxJYNhFlTlQhsShbLfAlOdOTinPPr314cPjOnFyIyWs6+dWztQJcx+4yMFYSkwhBgg1wuvDtbe6Oq2C5yshJ3vEXGIsROPTlN0yIi6jSu3NKz/wUVcYKgFMW2Lix4AsEB/sO+9UL1wq+34fkPGoW8ijKJHnQLQKfGXfgeHdu0lpWrTNOC64cWAhE90Bn48A4Kf6+6kjD255881TQSx5DqrqIacxUDVZ5LP1Ruvll2ae/WpJlWBK22Fkc+DqZwhaEOF5onq0bQzquoIoAEFaDvVQHj2qF3NHDu7N/OUP1puGWa00WzUvjAWR1zStKKbkhrEMTSJR4OgQgRaSIA6FhuC5AC/X9JyqpW3HatjumYvmpZnFyHIPPzj+2BPDpQLxFXixh88IXdYiajvwe/Pg//0n775/ejWM1xCd0uV+xwSjBPIg/CoKBrdrgwW9ZcbNFmPbDAoys6iRq7FgXtjYqKpiRkbszDTNRrnYHz7wwPB3fgsuK0w2ab7v35L9iU9o8/AnvzM8SCyxRjwgGaDItUwf/I5IEFCRo99Ns23LtuopmXdi02utNapONmM1nDDTfT3rbi7bO/eOzUDXW+cdu3Kvoy/EDDQa2OJRQ1WA7Fe4FISa5TqmW4yZqbb3p2eJlQMPJIQ9IQ4ltV7Jl67RAiN5tNc06yi5zcYK7EUuEuNgecuY+MyTE199YrKQhns6ChyfQ83ZLlu93oSKATC5wCkgLEO9QFTl9T0qym901VM+mhTUtMlX0qpKIvSUR9hGOSDpiCD/dINZDAMewjrJv8Lf8RHE1KmXfnrRCxVIeMdqSqiQyNK1RjOl6KND4rapLMw3SAjMEbzfCe8Q+ZUw7MLaRhG9yGUYcfeu/P7d+TdPNOFT51jRIba+p6ezRjU8e27jyjVzzx5UDwTVWlJDHVOMixOuwM6vPFShiHYduHwljHfnNm1i7EB+qAkq3zNn5y6dX15Zth0ntutMyEe6PIyzUfEVX37k+JEVRB4EP5S5JFsbAwfaT+UiGTUIcOmXX788t7RRM5tfe27HSL+Kej3JYDCe9lbvp2fy/joyOLLHcdVKBWUG07aUNVseZobA7+T2sfxrS2cZVueZrAi9DYgPxvGDutNo4eOgcDAMO7Tr/QP8E49PfvWxyT6NVNhJvD4IpSSRo2R2buPY94J6SJ4FaLwCR+tpKc2rpNZhhbnc1cSmdB7jEkXf9mo24wRyLOQYTsbz312tiq4u2jv5Ds5A5/f/Dl6k19UXdwZyqUFU5/ID0zRqdJxCoRW3BXKQVBRV2t50yzBuHU8cztixCAGo7RLiOZdsWpCDiiRIketbhrF3p37gUOaZr46P9MGPDgZ4IjwJTXiXnv28shtFXeFz9ltgrkNVHLj20zKn1lFIt5u2cGNaK5RCyjbrBRheVJGB2Rt0kPfoOLHGMFo4sGGXIViuQPaePrU2fW6el3RIdRhbCkIDQDSA/lRmHn98anCAVAkkZclAOIyPEbAbccuymABS0VgMgHKgAJJnvvLY1OvHzqJTWUqDot9EuWSaCyLfdKg3314oFHeMlDhiAsao7wujGpoH7Lz2rzzYiVgABeBmYAHychC2x6+KSD3xUCZ8KPPEw1tmZmqXLlcunl+dmVlb36g0qykicuA2AJ0hD2IASoaiwKASoughhd81AyfajHeQagSIHvvy9IXVptWAVfrrL+zHwHA7NGz9L6jIV/NmxPkx7yuyLEihi4KWXBQjdO422j5unJLiOahobBh40IeTMhABIlG5dMo2G65THuzjnnt632986/D2bTCo4Sprv45tO8dBQmTJKSTzJUBNTgBgKcutgz0p0rpLLjUczy5TgcQ1PT4WNIHtkyjFd5TOb0CnEfWO350Z6O65uTtj7F31Hp4BlgYyHzhhSH1XECC3BGwnsqLRQXsHpoSSrElDNBfy/YMW6briAcKG4q2MQErKWGsyF/QNcL/+a08c2JfZvUPlUOU2VljENDkREHGI/a5mpbZRVhXk+IWcZEa+EfhA6vMg0cvG3Tn2h3aaes5vBWFf0WdYQBRlo+WD3LbTiwSvAglFQAtigZvHNx5MeS/96J2WBcwdchIsSdbgTrcsJ51OI/r+7NcOZ7LQD3zg4qADQFTDpw+tJAlGUB78H4T0Dqh5Uxb1ow9NDY8trKw0PBdBdT2MAP8zgU/UJP61164eODgyUoJ4gMZA9Afk/lF8Ry9uiAg7ggdkTgkPAoIggD6Q1aEsWVAmhoTxodJjD5cWlrbN3VheW6+8/sqsZftNw6sbXsumQhurhgxCbuMDznaoGlAb4AiBZoDmi3rLoGavN17+h0s5Lf3rL4ynQK/wy5T57WrZ79rJflgNHfDnhLh3KIgRYyBRA/RLYoeiz3YgAdgZRa3A9/ERBSdyqZjRUDcpnxGGdo48/ODQc0/t2j6BBfUBlmDlNkXzCFAUwrxdk6QcNMvAC1utKhu72Rw8ZaYD2J093u70jsc4XXA8NqeDnF9l5azIFNK0uX6tld3TPkOnY0e9P9ylGei0U92l4fQue7/NQLPhMrzPiwCc86ipCj8vWMEh2mS/vaPb84ndib0J2G7cKwRb4tyPLFjf4JxBQrpIeU5LEq1HHtv2/Nce2TelDPRBoG5gK4T/QE1lEYp3KZgV3fn2o/jG9t1TL7xw+PHHSwVQ6CSec3iklQ9UkM848ZCbcDTMLlEKH4+VEE+1o0gCOq9TqAESDz0jkU8gnk9iphsN6r13z4nKAc+rO4FZyGcbNc+yrIHhUT9o7tpO4IS+byLOfQvaRiLwyXQR3ByhJY5tp5mW5dEhefvO0bX10/W6pegaqq7FMXDiLiPEFy4sr6+ZEeqbwXaHGEC4PYbToINAwCWRHRE4hOqVg7ABZoxoKmRO4BwgyoCHGUMS2dbxaHwcKI3id75zsNagzp2rnJ5ePn+hPL/gNOo08A2STlaWKCjQGMgXliuC7Pc5NpfvN2v87Gz1vWOz+3cN79sDOGHn8ZBr38dNZHJAoqASVOTJfuzAmcNJ6TDmI8Io1aZBAoNFF/S10M6A0kQBScoTfTeyo9r4vqFvfH33c08PFHU8tzYAFwgRbOrKUA7QF1HMsIC3RfO5Nos4DKI20Au37yz+xm889OTTwzm9S1pmijIoN2jyeZ0xYyNkdKtOeY0bY2NnKerhNnfVO3TvzUBP5N97a3JfjYjV41bL0EkNNpYNBLvpj2aHqg1QyDbb3ocIDHNgaDoPo6fZbKpiKsXnDYCaIjWtZwXG0eX5B54SX/jG47un9qIovXzTCC+iqAyXgOshexSqO9McI5FSkzOz84X0A6MZ1C1BFTIxjhiRRTJ6dw12FHSNPcP4FD6KLzVNqIE6NjdUERjnkNcWVnlNaNjav/7r8/POnoizeBpaUqle92DJ54o6qgCIov5Hf3ylY1+f/MMsDiwsBXqmFMQ1KjJpn4sBiWOAK4QSkv27H50ZGjp49GCa46BORZqYioNUJ3cE4zNcJCgYKxEh0FEQ+AXbMQB7H24RuFv8cut3JU0NPpL52qN56ARrK+70qatXLs/9/fG4WnNbBu0FMFT5bEEOw/Li4qVS+qBHG5QM1ljljVPLxf6r45M7UzIkXPuiq9mCa5uCog75zAIyyjwrk1P6HO9Gfzq7fL25ZyJF0atBPS1pCsRg02+l2C6tzCigIvnaxeb41pGzF9Y1LUdzlhMuM/Jk6NiU2RjMb1NIaSG4lKxuHxLMoc+EnLjkN+GA2aIJvC0stwIjCiY9OywUCshaqFbXId37clnkLdaqVU5ExigqS6HGbYaNeGAzhgbMgYHgv/+D/3xwRFTAdxxaALhgzITlFgEfaFUfqIS3fvjkA/KR3xG4d/1FQdbdYLi2Ad6mxqg+yAZ4ND9y0mf4MYOyOskDr9HkHUwjTzAzRlH46rX7Ywa6XPD746Z6o/zVzYAigVs7pcowzUPHs5qtqiApprmQV/a1HYQXrseh45go/SoxkWg0nUhoiLJIKMRpY+/eyV974WtHHqR1xWXjgO0emd/2onfxIKEfh5WMGikyZBuztNRcXq24jo9KdZsNJhr8uXB1gCUAP/zoxXe7Gi0r97VaLVj/m2x3+CwEAJrAS/WaOb9QOXwwz4GShyQN4Kuj8IJGheEB+Y8APcE4ckT2A1R4m8FgtBg4SdanqFK/+PCje/bs3bH9UffqtdUzZ1cunl9bXCmvLwuptDbYfwhMBohtcJzE0GJg+pVys16jUijs1qEhDQzOEWQFYn4SWCEZCe4Ls2Q5BAHA8XKET+Mw5jYZbYeeOhxmQXLAQc2yLfAExJCgWAJSW5EEnAD04MB4g/lCu7313KF3qrWhDY1kYAYzQT+yLwKqBrUzCDN6ukxFK74fCizMfaaFvLsYCiEns6hKDAUDU46cPH7rluzz35j46tOFqOol1Iuk0kQyBQTGCRapj6henYbQO96bgTYz0BP5bSald+izz0CjAUCWCd5aKgDJm6/p4YFDJdeLF6+utu1k4lDpxmJlfrnpoOiaXLRDC3F7OcMoXLSyfGUpHyrqTgTd4Q12vYoiwqD4QDa27e6eP8ggLwHCDsKJEcG1cvrMzCxK3wafDEsA2A/5CWhbjAhANy1yavgsxAGJ4yZtUzQgU251dfX06aWHHhgfHxJZFvBIJCjifU/i9Z+6hOc5CasxROzmCWQwSQimYwAFF8IJyHTExfFzKkOl0lxhjHrw0NbtW5V3+oQ337oxA2IlQy8OjLvNOYDXAE/jWNn2sNaV1ZXm6GDHWiy6xgssiF0dVBLGZyJcCGOmY8O2ag0ARAeQBgEwxKYagzTIT93QLzqAyDpJKYSSatAMgIe4XxAEyYRZMA5U0A1qEsIOiE3wAMrdTllqf6H5K5e3jIxmipRv1NEBT5sUB56ldY5fwXqJuibKqVaLWtswGDpT7B+rrC8hW4LmgN0zaoGpZVRWyvF8QckDZI/KNxgIUj0IsAPEkQHlCPf5e9F+1npHP/8Z6In8z3+Ov9BXgIGF3HZsSfAAa5K4dXzwv/n9J7U0taW//W0ff9899t61v/vBqYUlK6sNqBmt3lzxA6u/r7i6sDR99syLL+YKha9sH5cVUloWltD9LfKhCgGVJYgyvOXXF6IT7y8sLhuckItjZ3OCICzR8HNiNEeC3B2rSeQ1YZRD3qNtxnfRFToUJW591Tl7du3C5cbwEOFIoBk/CZ23l47w5QPtDwbAD3UCZPd1ZutDYiVi9vgIASdGSEVDQgEPDUCkaqIgPn5kYHygr6+Y/9sfTl+da1ZrNXC3BLELLgRgBeLIrZRba6ugku0YFCkVVUmibBtkxiQPDboCuTtAJzxvebUBGEF/GljPKHRBA9UeNbI5vZ2/Q8miKnXLtAOkDsDBgaq0gBuCmC4OXRQayOd1+A+Q6EA0oe5F/r/4w8d//188ONJPIdpNPChCiPJ4SArV+G85pCQe1WxSL7184//7y1dm5jYiWpF50EAi1MTA2dA0/Zm55ddeP5vOSE8dgOucaDuhjzrJxLZHumVIiuX2Wm8GfpkZ6In8X2bWep+5NQMijzwtoPZ8SAzbs0VR27GDxAfpqH2++0MHixl918L8erlyzWpWZYTyUSmUDmplL50eaLbWXnvzchG8ur+9vZTTwDTHtk9jvnX9e/0HuO3hN0aiGtLjzp7fuHCp2rIjPY0Itw0RBpkJeQaf/Ka0huB0PRT27aLBBQ9hj04gKtDwSSIgoUMwbhCyC4ve9Jm1PXuLQ0VkA9wOK5dkFkDtYEjQAUgy4Pc4EAD4EORtR3PLuMcFcQ7SERKkn+saqLBAi6w/OcbHX9l65drc9eUV00EaYQ5J/z7IAIWYZVAX0UTcwXMpomO0ayODGV1mbROMPQGSEHFHROIj1y9ibizWFhaMUlqnCZEtNCe49bvex0KKWV0Pl5cs8NMjqwCsiOifiQTcMtwhuazaT0rTQpVF3oRIwuftnSPthp4cW16+wLFbEafXUrJIIKJlZFJEQoGheKQ+EpZDkXrk8PDVKxOeu4iiRWCEhOaEAgSilALuzzWN06eAzL+6c+xQX1YBlk9A2duEhpGsMYGf9lpvBn6ZGejyQf5lLtH7zBd5BnyvhYQu34v9gGk2rUp11QOmOK7xdLHtF0f7k+P001/ZsW93n+uvbmzcCEFWw6trG810vq84tGVh3X/pp5dfed1qNBD87WgF3i9zGnk0khAgDxeXqVOn51fXfFRIYYAJSyz7TUmPnzfFNhH/PKj4uviCmN+MCCCcj5/R1abIRzkWPZ1xPPn96aXT5+d9IiQY5N53mjeY0Y4TwH6URJ74HAhKn282O+ofhDsx0WWIBUzkIfmC6BVEuHf0xCwOUNx1YEjJpHkJIpuJIVlBNkz8AYlDAroFXAWd2uhIPgNmmhjkBEQxwjfiZcc1eG1xoXnlagXhEjQ68fd36uQ2x0NKvnh59fq8Ecc6zUDegt0Id434PUSzl8vofaUMcBjIh0QnEcADXbbGmkR5KQj4yGHAnBSHGTpKgw0Cc8vEDhu2QDKxayv73BN7dm3Lu+YSuAxAh2BZLQc1CxkUQ+orr0kn3mu8e6K+XkNupQpIP8t6+DjUE5Dvdjmc3um9Gbg5Az2R33sU/lEzAL5dTZEUDfKlqCopVZIB5RNpFzty2y/Kq4h88OCRgee+tnd8AoaaFaJGi8+pGRlVwqWMBmLx+RXnldfPnLvUSFyi/6jh3fUPJ25n5LxTFy7Pn7+4bHu8omm239gUzJsif/P75lDBj9fV10d72FQd8B3RYtstAxkuCrnLl9emz8w2WlZE8bcR+RAlEoIBhPuHWlwwGvUAwi6baZP8/cGUwtokPPnwLMBf7XvIR4O/BzKOVG5HiQSA1mWZyqcyigRQetr3gRUgdG+Qq4m2Q1LLkvq6H/T38f8H+yVdF1G7AbF10A2ja5yPUwQxtbpizs5UasDDwb4nghpx+I9/+DP8BjTFmTMLN+aasLfRAxjuMDxSKhCPYxzqKTmfw83dNKfBkN9tE7gcChzjU3CWwKZnwKEbKtBPwCxJVDTHwIsA18gjR/JfObpt66guiWldTiNGE8fInaDUlMgrCP47f/39y8ffrxPqHDjzWfg8XCZCNKW966XbQfbO/xLOQE/kfwkX/U7eMqrSQcC4DkjnfduBqYm8H+zqfsx6bb8oEK5FNuy/hx+e2LtnLJtTIKJMC5RjxtzS1aWNG7wigMz92InTr7/1bhmo7vu9QSbFDELSC0sbwOqDqkgQRWQswNLFjePmIABuNZjpLCridfMFifLRhm7RG5bB9ZuoTyTK6dWyMb+4ZpOCabd72ZG0b8KLHlMXL5T/7N/+v3/1l3/TQnWDzg5zmKTEIIZMhJyESIOjglAK801kmuFo4ucHg0BKLzJRym4RRj+Wi5MgDkQ3OAJCiPHbiHx4v4GZT9z5H2o1cOxzvNownPKG2TKgARCfBqaXVC3qsplmPH+jUl63aRowC+grIA4gDpJEsYhlUVQ1ov2QRrSNzZ+6+B5zJpHQVCViNhIPC5ADTfwAPRjkkryqJqthoybxgwcnUCHJRAafj2GEtgeGnEpMGzRnBEz15Z9eOXNuDdgFMg4KCxSwUVIqoYux9E7tzcCHM9B1DOzDj/Z+6s0AQRVh58Z2j5i1h7LwIHEBLp1lYdi1h4kF4jByrtiI2jFM/bPf2bW2fPnlny+Vhp6MmpXhXKZuNhjPGeifQN3Wv31pMdb7/6d/DlJ+u2UuiVxa4ou2Q9XMar6I+OonK4fefjWsANa17oWwPoHINkJSP0YF132SYnb7j37sr26ILRuyBht0jPpmZB9OigSAtv9j533wi0Nf4umdly5QP/j+4sqKXxoEd54Ld0Yz5FQu61TXd06wv/e7h0bH+PJaRWTzVgRB20Xr09JrG9eK/X2mlfvz751+58Qqq2uxHPZxO5bmZ+wgLg0PH3/P+t6fL/zL/y4tClVQAKB3wgZ489WHKkDsdctriFr/2SvUH/2fF06dkTmpdnr99X/y3eeObsF4cA6y5UjpHHD8EaMVrMgAugFcSePrpi5BJD1FZSkNAovV5FDk5sv++5fO205Dk3KuCZChVvNaQpoOTUSBnP6hHLwEnSINIlV5/tndc9euXVup8JlGlLleq6Yker+qb0gy/8axq/DGf/efPrJvd4qjTSe6zlJjUDwgnUECTER0zBAEBRwKDFLjwFpocXwo8HgmRUDfkXj/3/7Lv62VJbWQB7MMy1tYSj8AuoINrOzkFvn55yYzyKmMWxTNW57NpUmCZXJ/n/Vb2aYzGTAv9nOuSqmoHBkxPPz8kcyTcZHYx2Y9Jzres4v633Y9tnT9b85dMlw3LWR1j67Y9Joc675VKGSb//Gv3hQD7g/+2VZddynejCnVNCitS2YKhAx4aYSKJDcoo+ShGBdYQpLUpMI7FDtDV4ApItmRrAKJIkH7R5nFDx6zzzpvvfM+7xnoifzPe4Z7/X9sBjxwfRNoN3nwSv3Zxx9/YLU6c3nmWkHNoS4sMAFuZGqSlUqBdt448d6l9w8P7T9Y0NR+cI9j1wULQEGB0ELaUneNpVscB3gU7EFU5SFCL4b/G3VhQPfTTYOJRaFgPEj3EFNls6jp5wcGuqUh7No1ic3B1rs2s2HZICTGxWDi+rDLAWB3zI1CkT58dGLvgbGxEdY08nSsyF3uwLFNjZuimpaMlnBkdmh+o75aNSROQJEdGhA8FgoKH3rUyvL68ko0OiBDcMO7sMnll+AAQugtwN9xYmGxHPzwxyfnFhYEQQsicfrEmtn4qfftrYhqj49nQcnDoRgsZfvgK26aufRQu9uFtG2wWgwWHo8SDNDxVn3bAvVcLMmsD9QGkgbA4xfGWloBKj5RJjptQWxpQBufUNcaNd+SGL4ogdmHMcHbj8SCILRnri+9+sZpUdy1fUrVtAkqRkF6on5gWUjbtNDxnY1ctwlfFKGzgd+eouYXzZm5lWrZadQiy/IAEkBtOZQsoiMJXDe+t7ply+TYlgJRDZF7iipGqA7c9lbv6MEnn9rvBBdPnKv7rqhkNKhhKAfBckKmUDCrjWMnzu/aqX/j630oXgjko6ZABemuiTLmjRRujukmkkb92IjpEgoyhAT/eAcai5cK1EJIyYhj1GLEPCeBkjvQc6+LOzsDnd63O3uVXm+9Gbg5A8RxejPzm0Ll7q8/d6BhyotLr1LhOIxGkVc9P7bsBsrq+I54/vTa9/7iHUF8ZvdujedM261KYg77b930C91uehDMsROgd9CtMBJgYBgQyyPfuztolsDwEdklURIX7w5sXNCmewyKwW5Kmk+tc0hlLl6qHTtxttmyJVWBQxswO4j8mPHrxuKuLWOPPrplbAw59SapJU8hLNKlfFEYCegJyoAr+uhjpWlUXH9rlY8HoJRgqiHcsfMCPnb12sL09OzQwCQVOQgYJ15iuLHRkiq9MdUMqO//6NgP/uHNalXJZsharC9VV+cXjI21qamhow/vOHKkP58WQdnLM2EmQxPmpE2xCvGa/LD5nVEMlkLhH7VSp95++9rVy+uWFcugmUGOQshEIe+YqL1HDQ3k+0soGAgNrNMWJE9MCg88VLixvD63CB0iI0qoj9BwLFaA3hcw1xeqL758vGFUX/jm0T17ZA6ou2TmIPKRzh8iNyAkeMZMllcV2J2Q96jpx1y+6vzDT6ePv3exUVVato8ESkGC0YtsBo4NZSZW9HTj8OGhgQGsBSn0SMoEcMi2IMDBT63tnTzw/PPbTNdfWj+9XGlyQS6mJC9oiUggIEQG2tkLC9//T8zY2Nd375RZpgWRTZL0u2kEoRjbAEWgEAYPXYuPYeRDi2MQLLgTLU7yLeHuSxJDANIM8WjhnfjgGbkT1+j1cSdmoNP7dif67vXRm4FPzYAkwGYinmHHMVAyr1SQnn5yam7m2tuveHAA6Ol0pFCNpoHC9hKrxmH487eXBkeu9Q/sLeZkgWTq2zQlc1RHCpdPXfDmgayW0RUu8NWmycmcRqQe9iMWVLTdgZ9JYV/4iCObjSH/BNcKBQnk9h1dBah9fvbc7Omzs7bHaBkZJjIKzakcoU3lKB8ka7v3ZLEtwvZHXp3jGxJq0nXTXFsFLyxsQppqbduW3z5VOPbuQmzDocriWsQmJmXa+cWlleOn5r7y5GT+JuEdGTCMfVwYX65L/acfG6+9vlyu8pKahTEICadreWhI751euL4UXF9onT1X2rOzsHNbcXw0jyA9J92siJgU/flwxB5VDCnx/IXGa69e/dmrF6/OgEo2J+uxg1rFYMmjZc900wq1cwfEKoRWxyhGGDD5LH3kaH56Wlmcj70WCg1D1NW9ICsICpLZTNeZvVF1/aumK1ya2f5rX9cUjrgNYGqC+ZlHhSfSMLUKiv3hl+X1+PT5tbfemX3n3dnZmXqx0AeFAymCooykfwb1ZgAnAR/kkSOFgwcHkhVBeV+sBSQ9Tui4vh/e+T/up2KBeu6ZHUvLzR/++HyzXJUUlHhGSWpmo1rNacWYTR2fXn7pJ5dKfXuKBQWEAgxFuBY+ewNNIlQYFi59AtIUWhZXBv0xYg13SJPBE4OnSENEiMMSIBIE2CWZuJ7M/+xr9Ks5syfyfzXz3LvKzRlIhAzZCGAQeL4pstz2Ldy3v3no+sVTN5YMFJbTsmmONcG/y4GqVS81jOi1N67296d+5ztjPM07vglMta52GcmEI99h67V4erpso6QZ8ToKAGmTAC5YzbtpAMfBsR/HrsDpbCxZppnJMbt2D09NtO/FaFEXL5eXVgxGKLA8D4ZX9IDMM9rhRkr9e/dsySc1fiwzkmURpDYs1537IiRxdt5FPRs4v2lq946x4f7ludlQyPOO7UBnArQSBQM9h71wceP9s/4zR4h1CDgD6PZEAc5w1rKopcWN7//V+bkFUxQHVDldr9dB9pYFAR486PKgFfhnL9Xm5qrTJ1JTW/t37Rgd7u976Cs3l+CjJj56PnbCX1zcOHVy7uSp2aVVm2V1CZpWXLUDTwVzPMcGoTE6qu7f1w+ORRT3g5nZtlmmp6ejbVOpvXsy169G88vQlWwGSwapjqxOlBCWM/CsrJe9n781C4BbeQXqYnpwoNg/UMxlNBHlgkFkHPp2iylXGldmls9eWL50pbq8FliOrqT6IIyAdAQtEHw+nh04LUfhA11nXvj6gfExaKV+EAeoZkswAQRwAIn2+bYwMLeMq998fvelizOnzpQh0QHaZ5FjYVGAxurZvNWovfTyuZHh3G9+exCCu+vR0GoUuCyCPRRbqwWnT29wFKxwg4+6e946XddlPY429u0oHdjVj+cL2FTQDUHj7AmYTjN2t473CQr+lQAAQABJREFUVuRuzfyX9roBUrmwi4KjjSPORV/huKMHBr767MiPf7wyt1BjUJBPIl5gRGHjkJXSuZmFyiuvXd65ffDQfhnVRX1Uk8OOhz27m2Y5QdO03n535uT7syjmjq0c4QNOwLZe6qYbFNyF0ALzQCCLGSrgzVZ9aFR9ZDWYmtjStp+33/WuzdZAqa6Iig/ygsgH7Sx8rH7DfPDA+M7t/QTphCJ1QgaoONAXEixdN01H7D+GuVaMIoj2aGprac+O0WuXzlNMCp4DgORRiRh6lSBkllft19+8/MzhPZg6hhYITzth42NR4NUGMc7GYui04Oh3beIPZznAHBDprsuZ8dDjPYtrGL7RcBYWlk6crKiyOP4T4o3YTDrY/L7565XrVstwalXLcWNVL0FuoVpgrVmmeMDoYoYL+rPsw0f7d+8mvg2U2Ol8r+TvKC/8wMH+8jofH1u9sYFSfwjn01BiKM8DUaCYKrquXW9a5Wr9T//1Ojmgq6mUrquiDLg/PPIQPGxjo9xcXKpUGx5Fa4JckJQsy0ievRjSNhMDZSaQWEMUDg5IO3bIjz28Q+YpNzTh7ScCC24SDARZenR3jvTO99X+L2bDyOblQwdSTz4x0Wz461UkuYJwOCpk8pXKBp/KqpnctfmFv/nBewNjTz10BNSD3TVRVBBRQkoF9M31FePdd+BZW2+ZNTq8zRJ0cYlQMNOy6z2/Z2K0mNZIVQR8eFMd7KKX3qmf/wz0RP7nP8e9K3xsBhDng5RhBB5ZUZB3IEFxVFl64TcmK/XVWmPBtUOJg5BC6TkrCgUKfldPvXCx8tKLpwq5feMjaR7EsR/r8DP9ki2qDVNtBXTZCFwbAELJsm1FEUCx/pk+/8FJksABgg5glwbpHHBGsxII4TboEB3aK6+dXlgyeSkLzl1Q0+HekXAdgYOO9R58cOvkJNzOJrBjqOwH6QLDCEVTu2o0wuExIXgBISvNu8ND8tFHxt9446SFkmvAh0uiY3jw6Kpq3mitHTt2dW52ZGQ0DWw14OtQqbApazrbP9D33e/uPXFy5vzVmmHGAqdwAvzAThCzjtWEnIB/AugvwO/qnlvbwIxFM6u3rHyyGrekfqVWRqIgIZFTJF7lCXA+AkksHL46CtiAmGZqe+GpZ7YODjOea8l8R3mjIgJP/MP+vn39MSM33Gr5bdrywN7AuL4PEQ3gJBQUYOu4iIFmw8QSoIGVVlwzwPDjwo+xmVpneevIi0MKIS/mJRnRASAoDd+vM4xNwgoRF8NlQMmFonjk4dIzz41nQBVBBWAJgt4JqUXKIosAB7gMYjGfZ8vq/TRKQvP0C9/c7zjySz+Z26i5WFENYAw6dr2mLOcZMX3mYvkHL01ruaOHJrsT+lFsomwunj1MGZ64St01nbjaMABhuCO3BTaDrOpWUSQoxBOchIs+fwDEHRn5l62Tnsj/sq34Xb5fhEWxU7cMK1Z4mGzExwwmF0YaHeIPHd5y4UIwd50k99PAFMceqQMb+GktV1tdfuut8w89mBsb2YoKZ7btwg3e1Z0AFBjRnhuwLjD3IrzNGZFYhJxoYevvooGbzmzxsINVlD+Hm1kIcgO5/jE4M9s3BPLrdbjQs0AAkDp1hH+GA4gwXxD27x9RFWTHrap8mqN520bo3ZG7BGNb1jJMfA5VgKPYsZsgQjp4KDc6rpydR008WpJEu4koSaRpas1gZ2+sXjh/VZJ2DwwRAQYTWZYIMX5fn/J7v7t/fItu//t3L89SXihFAQOfBMtqKK4DGUjMNfgGuAjhclTl4/ioZQBBRtonDP38UAbGNUlL8Fzw/0Ad4VlNUwYoga7U1mnWHB4Z37sbxf2aNaMlZzuKfAgmC7xFXCzw3sH9ufcvqCfOCE4lxTMuCHsJ1gC8uJ6DmYQ4l2XFClbxtBBtgwb2niS4IzyPGIqmbUGFIQwZxABNo9IyKhxHSzJgeRBMKBAM6n4ReMCBQfHQA8iPLyXyiqxRcgVCZ48WRsHnvVECVrGxuqbn+fGRwUcf3fve8Y3F1bUQE23V07piRobtNeHeb1b9U+/fGN2SOTS5n4zsMzfbr3qo1qOymioDzEgTL5scsaKsd4dl6XRBx9J0sZLSB3TUxNjMk2Qi20XJ5s975jqNqHe8/Qz01qP9vNyHR20uQOVNE27x0M9wghKiBEmwRtNDgVsPnVoYlS1mBKZZFFpiKBP+lG4acQlSTaO1nkkNgSCH01qNxoqsj3vh5RjQXEEFTRqoyiWehsOXplAxpVM5HGQnUyBhvXVxLjlRifjnH5kSPPZ7f/3+6QstXsvzetR0V7hmxldNbajvhuX+0Z8uNO3x3/yGKMtmHLeHucEDS1PV2KpRcR+TFy12iXJ4NSxZPvznucDeDC7GdouQ/DhWR/jYreF94oeARYI6ONpQTV7hQs5rrZr1FiQMTVepKE/sUoay/CVBVgMq87/+qzc2bFMpKJbZsGp1TdNYTkGGNIhf/rPnUqO5QIxQ0WWEIxKV5LhrpMBud6+krmwmyyHbnNZVonkI4cZ/9Tt9/8v/UYdq0mzFciaHgrN1d1XNip4X/z/fr5Sm2L7hOkvVhUCFAgYcfUDXxSD39ccmHtg98ZPXpv/j3x07eaYe0yOF4qQVz4MzD3g9OkYM3YGcDaOY9mnBbx8QgZPGh/cGZY9FMOUB7Oh6Qa0Vri2enX/uyQO/+52nnn10APAzFNTJ5VK3K9ceUaoMF4iPq0Jq/MF3HtxbKr78D2/8u5+SaLSiaFk5jVwEy6nZVtm1VhVhBL6T0A1dkiYGPUTEP0SUXaRI2CbnYllojlMUmo+DMLDi/PBEZR3tRjHd+OrTU7/97e0HD6Y5qkJReTzqCqmEQ5aSS3QSUUDOXvvmBe21Fg0aB0W1qBoteGqURZAAhfL8UIS7pG1r0rVc/yALJ08YPX6QK//26J/9+cb5Sw0m128S5Yr4VHwQGuq51Sr1J3+6tHc389Ch7QJFVgTkhnAUwZmB1Fd4fWQBKhfwJnBhWCHdRHKrGg+4vqJIlOPiC/qSjL4cx6UpwUHK3p1ogWhYfjVirCQdB1gR5IiiuMCd6LrXxx2dge72lzt66V5nd3QGYs12EYiFGAtdPxLx2kfgK9UlXlOlrCYxkpAXCTxXIclMH6TJdTECbBSRLPLIJJPRi8ylOQRiUV6VyiC3N4o4D8VzA9pxGJQETadven276J/2ZE2Y2JbZf2Boo760UvYjU9Ll0VBdDZmW51Aoeba8wrz9nj+5Zd/BPR37BwodcWuea3gRH6ISOqRajDw0Rdawm9+B5nktmsZmDp83tCaBlw3INiDJKaoPTmCUPkHylMwpPoXMQ2pl1bKQGygjtU0lkWUKMDoQqIF7TTny0P5Sf7JD+36SNQe7Ex/u0q2PcSC6kNCdJIYpucFsNrtt2zaRO91wW+AxZDWUnocmAecKZKCwvGJfvVbdtwsYApL9BecrZixAqjtABCwLgt1nnj4wODb67rEFINuvXpv2YyUG/A62OmLbMQfaPMLuB8VCWGs7m6i3QM6EFhgIgYfIsUaHGpzH/+R3Bh7YPbpjKkvABxA4xDMPRae93narZwKWJF5iQvFy+Mh4JpNZii+g8O7i/Nri/AJS/mCl5vPjuVxuceM9UtoPNj7JoieihjDyg8DBBcGRSLMSEsfhSgGdLonbh9Gp4z8Z6i8cOTxy5ODoVx6b2r+HWKN099z1staeIoJPOPsBkYuSd42w+wE+gTvu0ERWJYkDLk5DDIV68PCO0xdrCyunKaV94Onf/enF8Lsjjx+FTwXMQq4EYCQBHviUxxBCBsDyIc+5tCJmZB6ZCCqjtV+vDsPp+rBpS4hAAAtJlgu0D9gYMM/Jg9N1X70PfJ4z0BP5n+fs/kr7VvHOcyJgS5yDdGMgjrGbc7zdbMbwJwdC5AK/DIEEym9Iwa5HBjHH0LwAkY+0dPjCIzYwzTCsKhJYwWOk/UAYSLwgiTohXqdIjnlXDQSxgiDt3JEz7Mm1irv+ynxjw01ncvlCzg09y/MZWYadeW565b3R/I7Jw1IHtjuAhGVkzWGfw83iKxTYGCPknFZ3DvxOg8f0YUcmGxs4bVgW8WqWJql6SPtG6TpaYBlC1AMZJ776swtnTy8yoUr7MJIhb6F/gNk1yKW00bHB/QeniGBC5gLhjkkkPUntJ7Kqq4bJTzAABA6w+UFJ4iYmxnbvagWeu7FeB2SfMPIQBzwLUTB7feHnb1/cvUvfPanhKAH8E0Q6T8HzDTOZZgpZ+dEHc7u35XZPpc+cufbue6j14jaartUy/Qj2vs6L8FVIMPPbjjMtkdQ+1zYNG5VjqHRK6ysWgKX/g+9O9hfk4aKUVH8H/gDXhd8Iz0p7s5c4PpJBY9xkIYHqVKg9+zN/oB++dGnxnXcunp1eWVqyXYtrggcJQpwSUdEPIALMA0L8MPTJzERUvwZiSKi/iDHTSNQHgSCwk4Am7tjCHn5g8KknDxw5NIgsfFjhWAfHpKROzqm2dwtHUYfnKi2ShSFKFq8C/MeAb/K2DQmfmBOcBLZkRuL6h7hnn929Vll//Ri0yTbt7HTxna3WjslMXwH8VGLg++DS8zxbijPwcOBB8h0Kr3zsRYHtAOEQCXfm+W8zlOSQYxmy5gQoCuQigROOmORpJMpx11psp0v0jt+RGeiJ/DsyjXe/E1ja/397bxYk13Wn+Z27L7nWvgKowk4AhEhwl5pkq6XW0uuoezpm2naPZzyOsMMRHr+0IzwPjugXO6LDdvhpHjzhcEzMOGLG3e7FLfWqVjclUeIikdhIgNhRhdr33O6++DtZJIcUs0gVBGQCqO8yo5i4lXnPvb+bld85/9WLseDzioUW/tAVgaKmTZSCRZ9y1W0WbHzvyLWyY2QalkF3IfnIppd6JFuIR0GKZXxfKZAl1VGBVolty4XSlx0DYemNFmrs5HIBu5stS7eThfwnnxycm9t3Z3b56tUtZL7XVjW4bRFsrClFWIvnbq18+69vF+3R/+Q/m+h4+JWV3AtWDGNVT5v4xtfTQMnCNEcGUWcDbMeDfMpOKAmW4+iLgta0GmrIpoWkpW8uwdIBC3kK/ZIrLWGsLHvvXrjht0K3AhdzAtdyDmOnrOYWDQyMPfZYnzThY42eyMjzD1alOG67YumnDP+JX6FVDarEQdzaOgcx255ciDNPjmyuX27WEE8VoRkrqqJhUgBPN6r73VmYu3Zz4ujBo7ih+EqWdRIU2coHUhklQaY0Tc0Zrhi/9pWpr7089dqPgqWVzeu3Fm7cXJtbqK2ub27VVwM/LvUNf+Jc5A5vEznxOXzGk8P2/v3miRPDT5zeNz01eny62E7XhvBgTDjjobAQ+856//6RZWqHroJKDkULEWYPOX/8iHl06uCxg9V3n1y9dGnl6rXNuYWV9c25KK/ISQ025CpKi75UGin6uPIE8Yuxjjo7jlEpF6qVIgJB/tN/9PnpqeGD0wXZyha3DBOLCBOZ7Q/h++P/NP/Td4h4Hxxohp5wCphtYb6HlFQp6H4oYF3vuOGvBQ98oJBXGQR1wy49+WQ5ip99483XO76+5Wd/8Zd/U64e+2f/5AVUlGrPbwxEa7bNNohd1BAho+T4ww+KNsr1B3G6uwLVHQf9lJ0DxY2BCqJiY+R8ovQD7gBmL7IGB7cHjAAl/wG7IXd7OvAU9vUZyH1q+PtQ60VRESzmmzKzV35flooo3eVYNiyyUQ774qclR3U+A6w/UOseLudMcfuH9ZdenD6xhe9IxwtVtE0rFm3EphUsc2wIhU0xoUB9ut1FOJuqA0+zbkao3vX8s/tC37t+fQnL5SgsoJw70tl1tVgpDgcowq+shyms9J0lv1DMHjtejJOJJJMQ8FWIb384q/G884Xtci+U04JP1MN8QneMPt8bLFbS06f7cM1YXkLEcTzUnEFzm4PTY6Vf26cU0LilXdo3Q3YiHtGB6dEzZ6awcoVNXi5OUQp1e0PUGYrf7n7D8WGplpZU2YUGmQ44E+WLLw2q2YGpSdUyy+jmF8eohib1MNdtTd0oFqRtAbM0RfchNXAAo3oabjEC8xBfGcI9k8eYviG7/dnnUEtg8LlGeW09mluoX7+1cv3m4vLKxsY6lLvDVtrnDg0VD05VkWV+4IC9b589OY6cLcxB2yt7TAXltEiqM2BJ0/4OG5bIoIPZFaILYQ83TSkhwIu1sG5oT57sP3q4/7nnDly/uXTtxgL6FV04q2K6A8d/KgUexRCxyUNjImaYVqnkDg47Bw70TU8P7Tsw1N/nnjq43V4B/mw/RNWCHLmi5d0bWcSv/fKhjlcwXA4xmdi2B8lJjqyXJ2L82EHyQQO/RfIAPBOIfISTx1Srzz87ttPxhVFdXvmR5awF4WrJKAtM5DFrASGZiYBhQrdgHTpU+uLLU0049DWEZO6yknPHq9p5p6lMFpzs2NFRlIKUhitp4th2rlBidqbWi99I81cvxuWY95gAcr0yYaHXNgp4lQpV05bfIOheihxm+Jhhay1X8lIJefA+EuSwYt6ucv/TnwSqlKuyXTe+TdD9vTg7i+G0QgnV3FEqRCBMd3MDxdMhsSHaniqirrULcP70x8eB0W4u1+uQQKz/fE/UWwg0SgollFpDj74WstvKRRfRT1jfhNHqaLnzKlMubfxoaytCl1U4FmUFAE0qbZJ7uziZnV+aK2ahqMOMiVVUwSphvavorcGKgRKz8KWiCbq0GisWYqaWV5GLLqviodKfLL6DvzMFwWxxoWgUXXzzw+qK/Ygpg98BWrUtbxh4t1+RuDisZXGZH8xpcFiInybW1lu+l/QhVBJ1/qTiyA3nU9/yCkV1uA+3yYcxW56w0MKkahmoRSy/qGV1+SSR1nAF4VjLhuHoKkLu0LUdXn1Rr4umF168NNM+3k/+OHwIi2i3XCo6FnL/pVVXHhBbGsI+gigzyDzui9yB88bV7jzJwVUgp7HdcRDHgJrJDYV0DRMhEzCIQEmhLXqYZa1mcPVGE4kJmBoGfoTZJ7Q/ay99UbrOsrVyVR/oNwcG9TJS/wQ+CYmR9bUb0mGK1r4x0q4uTTS7Vf3FeufPlbdmHTwIhIGauYGX2eUtnGoQld8vfrh9MR/5iY+A38qQOYk/KJSYROl7FWE3wlra4fhu0UW1O9uolWTwp4OTx7mHCfa0UuHhg58Jt9mwm024FqSVPVE6n+dHTuFneprUXNzpgUG41fB/fICQcZPHcWLt1lPyM50F3/zZBCj5n83ooXhFGLVQTA1xeehjC4f++99j2wspfBlgk1+9WAFkEbp1CPtDgWj/7rN/SNFSAtioEbGtaWWZJiUPKO3F7fxprJYgeTIm3LDwddzcteTLA6JYi4dvRg1GePlPfKujvC6WSIirx1cz8sjRaRcOYPQlq9m5LIP+ya29wpA2zfY3eNu9IH0RUDpc+z3YsCxvnw9cp1gQY4EOCvgybSRiXId7P0a9/e2dbSemAqXFCyAzHzhTJLS2WkHOsNiVB8FlY0+Cuvvtsru7c0C0L00O0Q5Tl0eX6LApIVISTfMjcRvtX7Z/J3+0V9jtzwNumV5MIMHt2T/M+zIIqy2xUP6PNGptC7V8qzwQHAHy6Sc2JAK0rxfzj+0Ffftl8sKw8obkS582IstwjPaaFGanHZa97RUrzgiygXdJ6wMGlZ89rGYxWQKzEI3atkfBFcu2fu9vGBEvluPiQ9Cew8iAVRBuf5bwGQtT9HZSUKoIXgOsSduTDilTEbpAm8aOkaEfHP8n/l//iX9v/zPPMOMMZTieUgz9zKysQr/TvCqvvfPWzDI7iVFWEGePjw26USMItyTUzsf3o7JtYq7mRz58FiXVgD0ENwXR+1qUNg15TfigymIPEsa9+/x3PnfszT60kchZFDQff4LyL1hGt3J7gAjsdknxAJ06T+VjBCJTii/MpkjXkg1Gcq8uE/YaUb1YGJKxS1lmWqaMk0YNk52XVh875kf+gSNmOb6dk83axjDSq5ATJkJ0ylVS3fPWCiUrCVPdHETwIJp1yci2D9acHznGpz1NlXWcFDQBy91mK3BtG6sT+YXfLMrGJrDr5oa3EZtIn0JS9c6R3omHdbZnuAiya38BAoWF2iwNZYeksk87p06/80KlVEbyWYzKuQ7qtGE55ll2yVINfE3ncYj5FnIiBORDKTYbrZslZxql2hFIhXAEuwDjKuLdQ8iVZhcgyRZM5/hWlDcOj9gP6yjS12nYHfdhOQt3Pn4tbdppihBIGDaglJjLw8Mr1/uI5Gr5cGYjGR1rvyzyVGcQbWm8MCyU5dIQS3FM4DQNvpjt0wB2TEfkmyGZqBQAMwmOKf+NXjo52gBi3qWpOxYqls15cTowqeean+VImkNcI6rZj8Dg+4GtAdMBCANGhE53lvw4CdHdD2aG7XyEbaGUifTyGwuno+aJKueb8GPDPgT/cbndIRDnKiUcoWzy8yrnUKqHsFMFqaNYxGMnrlTWdRSiUFdyC6UHJAFMVgENzgbJY3db5neeIig2IKKcM/4oYOYBYEzrgHNbgDsMAXML+tCgu2/gyy5ECcwpqJWHdwSdDfLIApF/5jFCdSryz0aIurfpuLhmJBm6MSomopEO+kHIW5o3WqtFrfMUucOp3NUuRd/K8IePbxfcG5iudBP3rj3buKvD8U33jQBX+fcNLQ9MAiRAAiRAAg8SAUwCuZEACZAACZAACTz6BCj5j/495hWSAAmQAAmQAAhQ8vkxIAESIAESIIE9QYCSvyduMy+SBEiABEiABCj5/AyQAAmQAAmQwJ4gQMnfE7eZF0kCJEACJEAClHx+BkiABEiABEhgTxCg5O+J28yLJAESIAESIAFKPj8DJEACJEACJLAnCFDy98Rt5kWSAAmQAAmQACWfnwESIAESIAES2BMEKPl74jbzIkmABEiABEiAks/PAAmQAAmQAAnsCQKU/D1xm3mRJEACJEACJEDJ52eABEiABEiABPYEAUr+nrjNvEgSIAESIAESoOTzM0ACJEACJEACe4IAJX9P3GZeJAmQAAmQAAlQ8vkZIAESIAESIIE9QYCSvyduMy+SBEiABEiABCj5/AyQAAmQAAmQwJ4gQMnfE7eZF0kCJEACJEAClHx+BkiABEiABEhgTxCg5O+J28yLJAESIAESIAFKPj8DJEACJEACJLAnCFDy98Rt5kWSAAmQAAmQACWfnwESIAESIAES2BMEKPl74jbzIkmABEiABEiAks/PAAmQAAmQAAnsCQKU/D1xm3mRJEACJEACJEDJ52eABEiABEiABPYEAX1PXCUvcs8QaG4I3WzZxVAIp7bpXJvxhGNUhnQzDToyyPOk4/6xainPhYLfKbmmxrqeCZEKkQth42ec+lEUKcIwjZKuqtidY/Ks4P9pKiIhEkXgLwu7VF0YHY+/651hJEw1UfQLN+p/+/dXW4FT6RsIo1ae56Vi38LcbLkQ/cavP31oVNOTUCiG0HY7m7/wyvdGxo6OJOaSk/XpmV6Ll9zKhO77uz7V3byh1nK21jaffbLP1uoiA2QDzCKRmKKww2HC0DMtQwHdIGnoVmlhTfy7f/taeWBEUeTtwoYnmqaZpqnr+j/59YFc8WvBSsnuE8Ktb4V9VRwZN51ffdu0+HNvEeDnfm/d70f+aotVkStS7TY3oz//1nt/+TdXFjfquZW21oY7XnueQ8g7bPX6e65rDw5UJyZHDuyfmNo/OjI6XCmZYxNblZJbqZRtJ4HUKyL1fd9r+gNDgzgKpgeK4nx4uCTP2rOGD3fc/ROv2XT7+heXs7/683N/+8o1z9cVXQvCWpZl1cqI12jaVmQpym/92tMTA1bqNYxyaVeDXblU+t/+5x+GllOLzlrxgCHMRrLkVqe8jXs0ZdnhbIZGUsde+6e//cwvvHRCV4RpFaDlSm7sxC0XqmVJaU/SVDc1zBFuXK9dvbL87vWzH0o+fquqqmEYkPyvv/iP+wcsxy5hVoa3OQ5mbCJLU1XjV98Ot4S7H2kC/Nw/0rd3711cqmaqiCEMuVaqN0rz886t+SQ3Ram/86pR0TozKox/AWq65EULl+PX37mt5LcgFBCVX/6auW9y5NRj+48fHRse0DWROI7uOE6WNUVuqKItR9uHVISW5fdqMelWTUjW2qp66YK/sVJIhRUlLVVz4zjOY0Vk/a2t+vm36l/+OXVyRBjF3S7xxfjEdBCuLKwFrayvJEZNYTczK8r2xUqjM6B7tHfp4q2J0ShJyq7zwQ3CNKk9aes4QgCrjSPSJAnTLdusrG2K13547Z131hO1f1vyYfbAhudJrGOt/8ab17/y9ROaKKW5ZyrCNuX9TnN8SLiRwF4kQMnfi3f9Eb5mzw8UPbQNRzVUq1BxK0N9SdUuubXwXMerVlQsFDtsG4GlwrAvTcTvrxd11cba8Y//9NrQ0Oqh6aXjR/pPHht+/MTY4YN9irBUdQNG/yzR80zT8AzKAtuzBgPyDnOKDmN+2q5c82NRfPvs3M3rLUX025aeKVl/3yD8CzD521alGRnvXdo8d375+IkRTWlqOxrGO49iVkSoLyRWXijkJVVTUzWOU9UJsvhO5zfco73Vvv2Vfs8t9stlvSQooiwL0hBTgI4jZKmGV+ZaC1b7VBhXrq6//ubM+oZSnai8L/lZluMBXdc0oWnf/8GN02dOjI8YmjDSFLMA+Y2nwN/CjQT2JAF+9PfkbX90L9p1XPiDcwhHLlrhxkZjdr3pu4btpJ0N+4ra2bBv2FtYLIpMyXNoa5qHeQylkFp+eGMraZz3bl6vv3Nh6erpzeeeOXr48ND4uKkKTdGlTz8OIzWL2+KCg1v3BHYsonffW/zh6++sbDQKFacZ1JqtNbcwilX+xuZGpZwKzVhaq+EFTz9vHJ5OdjvR8LP1TX82SAu22mwG61mgNrOlNIoGzM7c7slF4SB+FvtJ4EX1OBvK4y2Y4uGohz9/p+PrOn6VaaqSCTPKxNtvz9+4tWEVh/ygjgkZ3oW7lqYpfuKf2N6+0Lh0uTY6UjEUM4p9vBvGEkXdLZ6dTof7SeAhI0DJf8huGE/30wloEFkNP1TY3DUjVvVAMeqanar1Ysc3Ktn7MV8/8VtFDGAPNF4aidurT/wT+j80PBGGQdDaXF2vbW21lpZvvvPe5uBA8b//3ZfKFdVC2JyIdSuG4VlNNeXeOYwzUTn/7pXbs5uFUtUuiiRsObmOcDcVF6pnuV4vFUfTuHLj1tqFS4sHpw/8xOV85j9tdaBo71OViuVUs6hqFsyiXU70arZR+8z3/iwvyLRMwcPKVT3RpJxj62x32R5FN/FrREfizjjvXoph9mgE2dBYAfcGAo+F/oeSj+fYFleUH7818/SZ04NlHXEWAlMF+d4dpxTbo/AnCTyqBCj5j+qd3aPXlcXCb27ZZT0OTCO3bL3gmKprFkJ9syORXAZvd9iyeESuJiEa0HuIPRz57RWkEi9iCSn0TDWtJNVWNtP1xpqurfb9n9UTJ0afem5kQtqQIw0pAompJaZyj/7C1uvF116dnZuPS31lP14VSlzuq4YNGaFmuU4KW7iC2Lvq7Zl5vOyll06O7y56TzQaYnO15WuW7reyLVEtVmHcbyIMcAduHZDd3a50KBdmmkGG2zOYXI0SEcVpsfMMDb4S4YeeZTlhLF7/4Y0rV9cMy9SssLXeaq/qVUg+gjCwtRVfQXTjW2evX7u2b/CpPrASeYYpnHS6cCOBPUngHn0h7Ul2vOgHkAC8tAUd8d6qa2imWhBJKWrmng7pNTuebbZDkp5qelIzsMaHGEm9lyoCq7AX1EVuqgp8BQVdL8CWnCH+O4/+r3/9/S9++TG3og0MDdnSVYzZgtSwe2VBXloUs7dgX3AHzHK9tWDYSqnY31yLldx0C5VWuAKZtKzKmrc+czNYXhK7lXwE+Pf1azYs5lYOG0WxGOVOo1aLNBNTn/u4ZaGBmVOeyS8iVXVFppuGMHb+WkIaZJJEllXc3BCXLi1srLfs/r4wb+oKbgqW+Qj3hxkA4N+X/NSqzsxcWZhfFWf6hPq+0sci1e/ZnbmPcHhoErjnBLTf+73fu+cH5QFJoIcEfLhsdRVp7D8+u3j23Vk/S3U3s+PVNAxsuxR46drC0ljFfmzUydavJbmt4wWfeIzYnpNFahzlkZJHVhK7cVgIw6KqIuOrD2vNKPGgIK5TFLlV20ynT/ZduDT/6qszQul/8sl+Q8SaEiCPXsDB8PFtexmKJenHd3/4rzjLtCSF8SHKlKYQyP7XlEz9l79/9vZ8PU4DwwotI/XhW/BCmN+9MFDUxDLgQkAc30amBrnlzC2LX/qFIRjAE1GHGUMuoON2IIKCgISfPJ/tgX/8nrh5e3bu5hVHVNVcSdLIUGwRhiq8E3n8ycezh5bfO79e7TuZia2i1TQi029mQb6l58dnrr/z4jMTdjSXbc4VlczKw6IjEHPwyYNgT1+ydmRf9dj0vsl9RcOEZqOoQKCIlvhIruOHaPAEgfiWbYfC/KNvnv/mX18Nwv5qeTD2PMVp4r7j8uAkCBIs5RF0iZV+pBX9+lY+P5tMHTg4PqnEyp2Vpa2K078j/o8Oxuck8MgR2Hk6/chdKi9oLxPQlLKC1CxVLVeNsbHR3/iVp3/pS+NK8pWRqc423uVZ0fLFxkY8v7R5687y1Rtzt28vrK5tNWsDeZS4Bafo2kmSbNVWYf8vlPWNdb9criJD8PXXL+0bT7/08njVtoQuXcvYQH7bzrz9BMljO98LrFVhpIDkqzLuXDGiVJ+9tTUzMwMzA0zTUZjolqYrVhQlah5Yuo0FbeSnkcgswy2VDMTwv/fe1duz+ycmCrpmZYgtQKEgDJjKw+007hPHxX/1zw9t/oP9I0NTSSwDF21b9/xapiMcssO2Mrt0c+5SI4laXk1JQz11DcPUHKdkNY4dK/2Dbzw1UHgcmQuu299KEs0yVGWrw1GEqK2lhYJy+PCA27bkS61W3DzNdkzTU3AZ5vJyMHN7K/AU27Y1Pc+jAMmShp77fpgI1CbqF2kWhg34dVAaSVXMMEjnF9dyMWyKYgkp+jti6HiO3EkCjw4BSv6jcy95JZ9CIEucwG/6aS0RW+pwVOqbnpwc10Vtp+p4zn44AqBZRiKG19b75xYG5xcm1ze3vvWtaGV5q9FsmlnJ1PHbZqr4cCHU1739E/ua9fSN166LeL3ivvDiC1OWjmI8Uu+3VR8/d17cv3/uKbLQVMwUpGMgE3ourK2a+N73352bna9Uh0xHi6PUEI6qoACBh9Wz3wryBHnmJkQdK1vdUBCXvry4/IMfXv7a15+uViz4HfBAiro8jSRRdjCa22L+c8dMxx7WVFw4LBAxqt1AXJHK3pHq1mOP/fGfz6/faISR5xpyPoN5DE5gc/P6QHXryGHzxOEy3oyLT+CqF3lhh+MEAsl4CKEM4SGJs1RNUDNPWug7Dip3alkq9MuXFi+9uxqFVqHspkqQa1EW9xl6lOk+QhAcQwsS1OpRLORjRDnmPc1WdOnd2aeeKR2YcEsFVVb540YCe5IAJX9P3va9d9HFcgHV8qCTLV+Jw6DV2AiSuqNv6v50RxipNou1saKZtu5ODBhjAyNPPz6GVx7YF776/fM/ePXK2vqmplQKdjXMjST2LdPBAjXLc9+zLl1pfueVm/0DpdMnBt4PQm+rvlzvt6vEdBxxeyeOgOABRJjlWWKqFtaoS8vx9169lkUKjPcIG0Augq4VgiQs2trJ4yPXriw0GomqFmynEOceqtHC3VCwKt999doTZ85UKjCVG2mGfHQTVyOtBztt2aClIOcd3nQRtGBdz+2ig3mFyDvnx9s2XBubyEY0TdW2TSVEWiIW1shTUPVcsbTcUGJE2mG0JPWljSHpHBOg6n4qYpxW23+hIEdPnqCcJnXeUqEsrgZvvX1nZjZQtX7ACsK6YYqkYWdG6+BUv+u6d27XvUZuFwoJohoTpE0YLT9659KdCxf7JicOqQIZF1sFt9p5AO4lgUeawM5fAY/0ZfPi9hqBMEapHN+yrILTX3En+9zpola2xJhwwo4P0+w3jYqWWahYn0dwIefI/MPj5S9Yv/3bj33jNx47cbyoiKbnoVhNUVcnKpWBWm0zCFvDY/t1feS1N+b+9pUrG95/xLxt2Ifk/8ddnZ7BBJ9k+C+FcRt14GEjQLWZd6/UKsUBvDdMAqSYJZmSRvHosPPSC9PPnRl3rTT0QqGaiqYGiYclrKkVL17avHJ9AyMYWOtiTPi1pb9gxyl+lFmqjRWzwCM3Lb2AAn9GqhXlgr/TA4dsNLfSFMUHEcMol97YMLfQ8hE1HxSxg7i8PIJLwdLzgiPKHQ+CnZpw4OtX8rIqCposdiTFP0x2XIYnwrl8dfnchSWUHHaLBcwnUO/YkN4NmEX8Z5/d/+UvHjfRGKBVLxaL0pWBHEBNizMxM18/f351YwNTGksgYoAbCexJApT8PXnb995FN7x1P2j6XhjJ4i+6iF1ZGS+x4QLv+BB5USgl1ajoqF6rW6j3FoWi1UwssXH0gP3Pfufp3/iHT09NmXG0EQexbVaxmG55m2G2VRpwzGL/7fn41dfnX3l1FQ74D2FD9SHbH93z4a8+fLJdazaKAx1O7VzcvJm+ffbOVsN1nSqc9DEUXaRBEMA8f+Rg3/PPj/7yL52aGLW8Vt33g1yBs19FXf9mPd6s2WfPzc3clgc2pCTDUP8pi2ekFfqJArs/HjHiBBIlCEUzEI1UDTs+IKYYCFqrqRY85Tg3xBfouhJFOpb+EWLiMQnIUBrXUuKiSJ2OB8FOzKKMXEXtJFxsDjsMNgQravJsO27NWL1wcfHm7U0FAQIFvNRLUCgpLepaNjZqfP6FsZdfPnDwQNE2ZZl9sDI0aXyB7DdaiPBfu3he5mq6zv1tHNDxzLmTBB4EApT8B+Eu8BzuO4FCoeQitsyyUcUly+H8jmV6dhIqudPx0YSJHFHmEDbYtrE+Rp8ZVxQqeoJ6vuimZ4gv/+L+X/n1048/MWAXsdRfa9RDBIuZbtgMFv0o0M2BhaX8m39xwfO2D/PTXiDs26itI4vKtr3v58699/a5m6Y5Cts8VvbQRrin4zjo63dPPj568ID+zLN9h470lys2FtxB4GEZ71ouXqwbI2fP3zp/8SrMCpBimbsms9d2/Ht3ZO8/BPqFiPw3UKwWuXBBJGLZsGCHB3r1OSZUV5ghVuVZjjY2ODerjKzB1HAEFt4K/BLb1yFr33Q+TpoliopAe7m4z2BOaW8GShvssF256r13dbVWC+E/EKqvGollur6n21Z64rGh48dLUxPK888dGR8bbDbrqJuoy9lEZCKUUrgztxvnzs6urchKPjscnrtJ4BEnsKOh7xG/bl7eHiOAAjPIfjNRqUVAxkJNa8qvfXXDUDr7mDNbJnHnAgXscwiwrMLXTs231T6v5psllPfRvvr1Y1t+ul4/e/XaDTupjk4VQhEvrsyZijLQN55lW2+9fdv3T4M0bMtYdH6mVR+vhE0AcodIOAyOGcetm3dmZpbd8tNRVEcNGcsykkwuXgcHq9NTQ5qoO0ZxcqIyMZ4v1bNNr1UuqG6hmPlGbFozs+du36qk8VG5iEaAAELyEpQB7rzA1RJH6i4sH8ACnUb8YFpox/l3/qBANlGtQFXR7CeSbQXkBYokQkOjFS9dbkTLrUgto6+wVpZ9B5AamHauraMZi0LAf4+zQuwhxgYAFZF3n8htfP807sxuLOPwMboaILywaVpIOnSaW/pAKZk+PD5QxkSuefrxQ698b2v2nVl4ZjTE6sEaYeqx4Wxtrc/OrtW2vJFhSn7n28q9jzwBfvQf+VvMC5QENFOKLoLjUDsP+W+xYspyekals6caHVohE/JhWcLWBQrpwlTs2mrRNzfNsqPHmtXKRq3Wf/EPj/2jX37KipRCvxYFTrQ5NmhNV5wkDm9DtQ2x/3/4n95YD4qZmibxshL6qAKMePQAeec7bCbs6RurKASE2Po//svNv3olTAxXlK8ZfegVkBWVk/GGKGpz3/jV0c+fGdXzoi783/z1Z0895tSWblWsoYI9sbC5lJXWTfcqjBHf+U74zb+pI/Iv15vLK/M2mtLutGHyj7kGFsN4CZ6jzD062+G5nIB0eDiIrRfVON2K1QXLGtAUM0+W3azfSF2UAXS1wZI9JBQ4RzQcE6WBOx5E7kQ4haxtXEZjW/gI2rcDtQxwb+LYi+QUJBWRt54kdTgKar74X/7Vm1v+mKKXbN0oGW5tZSNs1W0nPLw/+M2vnIFxIWrVnj3jfvGlSZGu2JqFsj2IjgjipTDxSpWj711X/sM33/Dkhfk4PhonYI4hPf4yQyFD6UZuJPBoE6DkP9r3l1d3zwmgOI0UJkXG4ueOoUxMVk+f3o8cffgBMKuAwx5tXdq13JHklmxuNJdWECyGijaajJlvb9qnGJYRb18qIDkQUfMLiyvIwtc01O7VggCJ8i5M93HYHB/vn5wYai/XZdQcWsBPTvYPDxeTCBV6Ak2z0gR2eSxwzSCK5xdXUGAAC91SCQJ8z2ncxwPK+rjtE9YNS9cdP4Azfh546/Utu2AjVrHZCB0L9RGcPI2femayImPwHdsqge70odLhw5NBIw78GAUM4NmwbDUIG8vLqwvz6BuENAQVvRZlE6T2ENLxgbfx6/A+3k8e+oEgwM/4A3EbeBIPC4H38/jxdwNztbRCx8eODH/pS8cRlicLzMEir2hQfxmoB094HkBwb95chF0B4eiQq+3L/DRtgQ3eMFLEpV9ZvXz1ThBmhl6Abz4KNccutlqbquY98bnpo0cHUW8vSWXkeaEoTj8+efzYkEi9sIW4PzuOlCRCer/b8pLL782+d3UFB3QcF0X9HpYNUY7tSRVi+hDBgKAAY3E5/PtXLsDhDye949gySrEVGzoKK6uDFevFX5iAQQYmAWQwCtE6ebr8zFMH42ZkGiVUOkiRnmnGue6hWOHMrdYPvouyPAYkH8EHyDJAPuS2dWGHyoQPCzOeJwl8NgFK/mcz4itI4EMCqnQ8t5eGyNuTNWSS/fvUF7+wv1S2kgSZ4rLKHlb5kPwsh2M72qol124s1VswGSNorL2YfF/3Pzzkx57AjA03eiyMsxfuXLm+6MeQfDuL4YqXM4bAXx8fdZ5//tjgADLiUGoXfn24CsSpk5UnPzdacrIsjFFtHlaGNIGeGX6UXrq+cO7iXCxN+hre8rHBHuB/QIrlwlsBDmCEZovbM43X3rgNgYYFRdNTPwrb/QAUEbeefXrq+DF3O/hCljIS3kA1fubMgT5HL7klHTF+Mu3RRwfCcl95dS37i2++14zQNRm3I0rzpshx+HawwwMMhKdGAveEACX/nmDkQfYKAVU6uuWaEHofRihVo0JLD01bUweHFdSAQ8UcmQUPLcb6EcKvxGnp1ux6vQGlej9UFsv/T/mra9fXV6/fjM6/s7Sw0oC+4VBahih+O4oCUw+fPD3x5BPDUMMMsXiolId8ehEP9osnT49MTVZNDfolO8qgBxDmI6ici4NceHf59gxS3VXU8nlY7hO62mOD7UTVNJx5nIor1zdnZ9FSJ0fCYpR6fthCgwN4U2zT+9pXThpovxdJtzwqGvhJSxPByaODT54egjEf1Y9QgA+5fEkeumU3Su0LF1euXm9haY/uOyoS/VCyoA0GXQkeFj48TxK4OwKf8uVzdwfku0jgEScgS+BBGxCBn5l5jly6pGQlp5+cNpDOnrUgH+hhj1B2VKqHkV/V+xYXaxs15NOr7Te2vQE7E0J2HdLh3z4/d/X6Fkrr6pYJFYOOw0CQpv7YWOHzLxwbHkDcW4ipAKYRmIIgdl4TzSNHKp87ub8PBWjhA5BhcYhUh7EApWf1azdq5y8sBIHQDcxPHo5Nw1RKZhXmOGfgPn+xcfGdxTAeSCLFNkzUJ5Arfw1R/unRowMvPIv4CidHhQVYUjTME1Dq15oYEV/9xQNhuJ5lSOQrwbHiBb6PN6qoaCS+/8OZpRXMEEARQCQv9CBCgsbDQYdnSQJ3S4CSf7fk+L49SQCLT3RsQWY/lvKGVspTqAuEJjz9xLTlpFKK0P8VNfcVVOFFLB/izsorK81aPcB6PUxkRDgc+u0VbGd8MGfPz3lnz80uLPmmXTVtE5YDLPOjBE3t4iNHxk5/7oAmMs/fNHVH1u/PhB/4aD03MWx/7vGDA31F1NjXDSyOkZQYoFyNblUWl4ML5+/ML0DPPmXkzufTq73bZhIkWGD5jdKCb/z44ruX5017VM1N6X1XErtgeX69r2r//MsnkYInkqqJcD890fTEUge1vOhY4qWXRiYPVJHkH0eYhZUQchlEzViEhi2++90bt2fRqFD686XRBomPKWr04bZyI4FHmQAl/1G+u7y2e08AKguDM1reoNj9duQ9wr7TZHI/UvrQtiaAYR9BfPgt0sFlmp5i1Zt+q4WpgIqofvnmz5BddW2jMTO7Vm8lluPqpoYCNfBOt4VcjE8OTYzj4FEYony9ioKAWJlGQRznLUw7JicGiwUbNXRgwMdppGmoGej16zRb6eyd9a1NZAY+TH/v0OC2eT9recH1G7Pz8+uW1QcbSuBjDoSgRavRqKMG0VNPHVXEVo62AAholNmPCaZccYiyAWJ4VDl1+pBpqY16IBTTdYsoEZhmfqpE7757Z3W1hcZFkgluplR73Foa9uUnlNsjTOBh+gp4hG8DL+2hIYBqc4aL8i+ygptM1YOEo1J85ehQWogPKOp4oKwhIyxupG650RDzilgrutbC7BZeXypXM5TsV7A4h6lext/BkoxCgB4CyGRauEj8GioE/eE337xxLR4qHksDEXoNOOajVMuC5PB05Ys/h568kKm8aPdlKChkh76Ru9V+Q9mP+nennhC//I1+p+QHXlXTq4aRJ+GSnibD5eOX3on/7z/+XkvKW0PKG4oHN6TEIa0AK2mpeQ/almDO5OlaMxH6t765+fbbRaVQaVrntdIK5k/DhZPhejjav/qb39g/2q+p4VDsIk0hhqMfgYqoGphbcYKmg7n1O//4sf6Ctzk/4yimSOOtzRXDQHdBN8oG/+TPLr55dj0RBaE3o7ReMEwj6X/QMPB8SODeEqDk31uePNoeJWC0m8dCt7M8aVfZg/0eXnYU4vvYon77n+iQi7V+giJz8CXDFGCiK51c/euOe+lyuCbz+LH4DPMsaB8N1fYNdH4/dmj/9L7x9lpUNRRXFRa67smWuXICgY6zJsY7evjIiaOHIW5oZaciyw0+ANmkJkjSbG05vHoToi+T3RHZZ33QFDdGaNzHzvHBuIM4Q8tCh6DF5WhhYS2RmQuOmut5ViwXx5AFmcXJ/sl9hw5OFWGwN9A9CPV+Ozz27RNPnpkan+yDR991KgP946btOg7k3YbZA8YPTClg3jdNJGK0DTgPxtXzLEjgPhGg5N8nsDzsniMAo7HMzUOQnozvk458yBYowC39E8KPF0BeEEEOzYbaQvJl2VrZXd749l9dvzPrQZIzFXrvIxQN+gypG+pLnz49BcXHi1CKXtNN+BaURA/9KPLiHI1rvQC5AtOT1omjY1FrDqHuMn1PFhwM4e5HHNzsneBv//pmjomCTHJD8Xk5CKILkMC2HR7/YN0wnJSip8K9+O7s5aszUZRaBpr5Gl4TE5nC5vpGmviPn5o6drRdX0jN0GKw4wOxEM88v29iorC+uuw3EIPh1uvNRmsNZQqWltBbb35+PkpxmzTAQ6n/B9Dc8WDdFp7Nw06Akv+w30Ge/wNDAPot6+hD9RH8DZk3RLvALVz7spDcRzYE08Ouj7w7hPRLg75ASx4FaXyLa8lbb6ytryWYIiga4vVS9NODfxl98D53qvTY8TKc+lj9o37u9sFMIy85iuNqipFZcDUoISrQ/dwXpqb2IRhNmhJwGrI8gBZphoG+sT98dXF5A/V4cJ5wJEhbAgLjMXv4yKk9ME8NzIqMta3s3Pn5GzdXYAWBh15Jdct1TLCK1ycnjc9/4VABdXcEwho8AxWSOz00sXnmzAQ67iDWIUs0U68gYc9ydfRA2tgILl5cvnSlBgtLGxUkn778B+YDwBO5PwQo+feHK4+6xwhsNbDcxrpZg+rLxeL2ehGKm6GhrW7b75vR8c9tMHEWmaYOuc+wyBSyP3y9Kd740eziUpQkhuxrr6AdnmloMBVkphY989R4sYwYQD8It2Col29JIHVRGDdQAVAoKLzXbEXr2D89ZR9/zFHVCPF7sCLA8I95heHaSWbcueP/+O2FuieHxSthG4CRwTTRH7ftSniwbhli9dUbN5qX3lvfrEkTCMIQEHqXq37LX8rz1RPHK4891odUhaa3HCYtFCHq+MCUanywcOLkxNCwjZkTMic1DbMcZOeFSardmYvOXVheWIXkI82PX4YP1ieAZ3M/CPBTfj+o8ph7jsDSQgNd6rGyh8DDvC9j4iCrqIiD9n2mCTPyNpG2zV821svV9oISSfeotiet9cqd+fDvv3sLTneoPNbxOYLuhY1KO4ae9w9oX//6i8NDJdSTNayqZlXhkldNHFPXNOxEPVrLcgY0swAD/viE8fWvf94utNeuGdb+rhRPePBNLYjS7756+86cj4R++AdkVhoGh8FBRg8+aJu6vinOnV+YveMLrYh2urDk6zhTAItqIyPOC8+dGqoiVkGU3RFTH1JArdNDE5gWiNOnpk6dmoThpNVqxUm2WdsKo61SpRpEztlz8+ffnY1laj4KLeAnNxJ4lAlQ8h/lu8tr6xqBxfmtZiNGBB4S4VHdBcokLeo5GslnaCTvuq48E0wEpJtftO38beM8ssS07fZx+rXra2fPLgsjMuy8XSZPyyMTpXYdS9u/v1wticATQWKgbWwLnfh84aPnnqenqQFF9wKs9KHilURIoz+c3NUqvPUIy7PzvAirOArPoTiQ6iQ//vHStRsbiB+QjewRxN42OqDrTNdA/dQDabdvrp1He/uN1Cn26ZaWxi1dyxy3VHDLh6ePHjt8FB1+m3Us/p0ogKECyQ8dHs11FbUS+vvsYyfGCyVhWlp/fz8CG/1wbXBw0DL7r1xZPnfhZq2JWkkGJf+nvjt84cNK4GMuxof1InjeJNBrAgj/DvzUKRvtFbyUfGk5lylwJva0A8Kh+HLDmcLrDqVCpLyJ9TfEV6ib9WB+vra4GFaG0eU3QfG+LNfQaT5RMrOsDY8W/uj/vb1Zm8NswLCcoJmbOiwHeaO+bNoDquKsbdX6Bp1MaW5urAz1TwkUqimpEPIcHQFgT0hDFKpFXQDVVO/caaIaYCscqVgQPrgVRALbP2raPnCburi0eev2mu8rowMleOujVgTLxuoGCuj5Xiubn9mcvzm7vDg7MnRoYT7QKnBzdNhKaSG3A6uvWK+v1bbQQneg0j8E70oU10vVktdKb8++Nzu37AeJKD6A854OV8RdJPCzEKDk/yz0+N49R0CGvQV+0UZuPBLgUEMXBnPIe/Sv//2aM5ImyWzcwDo71RxDV/sLGrzk8WNHyqdPofh9U0QO8sR8LzbdlhlXYUve8q5V+0aSvPzqq+t/+Cdvomhs4Nuq6obo+gbvgIUCMvl6S//Wt5f/PJ3ZgfXWJ/Zfxx7FcJW8ijQ/hAg6qDaHWURagss7tlp/9K0L09MHfvGLBdOoN8P1sjadhsV2bsEnjtSFHZnYqm9UqgjD01qNvOhK0wTiGOYV4w+/fW5+SRnun8oiP1Ybqa1u5VoJUfzl0s3Z+u/9r3/zwdld/OBJh/8besn3fRhXpHvFmNBFvLW4VtCHynZ5ce6an+ZDE2NvvNH8D/9+5nf/29OmuSLEMI6C10dRBPNM2x4j8Hx70tZhAO4igYeKACX/obpdPNleE4AeObZ0zOdJhPg3w3T8UL14abXVQvVWAZFADn2GLnq5Gkeodo+ssMa+ycNFadjf7lvsryMAACMuSURBVNim2baBtX07FT4twNYMU34i5ubXkWuuqZZmBLAE4P0ICEDDXZn2J6vOpii7u6tLRx15BP1vvx3vlpEB7c0y3DDI7txZzdJCphm2U8DhFekT79GmiGKxrEgnfV4sIcdBIMJON7TXXl1aXm7luY4OeEna0KwUBY4we4ni2q5OFAn9cGsoiK+ANQUE8Fy25c3TMJXJCshi1LQ0Uhfm15aWs8kRFFmSGwwzH4Zf4J/bwt/+DX+QwMNNgJL/cN8/nn2XCeTCR+k9uMC90LOKcB+jVZ31t9+eC4IAOoH1aSoz7ExVNZCIh5w6t1g7+dhU21euyTa3Undg4ZeV+/Bawyyik/3FdxqXLs9HkWoYjlPIUKKn7fKHHGFmITvypWliuTId7affQs/H6WhyRIQTYKKS4fR0XfM822vWL1yceffy6BOnHETFYUGr6+9HF/70x79Xr8R0xzT0KA7xE6kHqE6UqwhKUP7qW5dXFiOkOqRKM4blxEEdHkQtaMYuOWCJrxhoIaijI0J7LiXTJxGlhxkGJlO4F5ilZaFy/frcuXO3xr56CLcQL5Nzg/aG5/h/+07cqyvmcUiglwQo+b2kz7EfOgIwlQehjZp3hSLUGi3ZlIuXlt98c1OWy9FMLOvjOLNM9NqBXKemZZw+3nf0UEVqN3TMUNMQSWLQGkSeoc0uYvmsVijefOv2e1cXk1TXLdSNX5NMMCeAKkGW5D/ww2qh8uxuNkNFsX3ZLxauAVnPByV9FdgJIsccaXmNS+/eefvs2OOnUJ3eEgrcBzh4b74KFBWnqGeoQyib/KH7DUwg4sKltQvnNoPArvS5aBmMhrgGet7HShqgXvHuOKCeDyZZWQoXi8yeQN0hyDkk39QwJ4NbRs6GNM2am1/40du3v/DioUEXtYnkEJgK4OdH5X83+PlaEnhACfTm7/wBhcHTIoHPImCq9lqzVnCrEKpUVC9eXfnBG3duz3u5g/62shAPytzA7xsnkR/WXNf60s8fGxmEsRohcrDTw0kcqZmlq06eyzZuqTCu3w7PXphfWgk0o4q1uCoKSMdvGwxQnk9G1cGqjD1BvDvDPmr4IGQP6gWzAiYZ2PBcBvHpUFdzaal24cLCzdtHD00ZutR7hCj05qsAvW4RTAejPaIdW17Ndodg4v/O311tNmCUsE1UJIhjxBmCaxSifVDklgY/6xZ97PfSbdFesktbBwwFiJRoF0NUMj+MfZlBEcXwp7R8/dLl1bcvhF95Hs0PdZDC6+VL2/f0Y0fkP0jgYSbQm7/zh5kYz31vE8gd2w5MB1VsrcUl6zvfXkMtFy+PUNkFlmkVq1Tos2U0vdU0bwwMlz7/wgFLh+S3U+Oh6Ij1Q6kd5NrL9Dit6YtzF+eu31yHacCx0QrGs61yW2ZQPA8G/hCSFMDrjAj+XbrbG+gpI43SiNtHpX1LQ9s/zEQMB6V7ZG+9OLpybeXts7Pjo/srNpazPSvFA2sH5NXWLbmglmds3J4RP3htQTEwK/KjzJO1iXMrCfQsjkrFPI1kzMRPv8URrCnSt4FjS9eGrKUP/0Fiujg+kiGVKPQttYgeffMLwXdfvfaV50/h9dtL/A9HYfjehyj45GEnQMl/2O8gz7+7BDJRLEE2mjPz/p/+yfIr36ktbQiE2KOtHazxiLtDYbs4aSVZc2TM/fkvPXFgsoDFumXJXrpYyOqGmkSymD7S9LC4XVj0z1+YXV1DKP8Q4sX8rfXURwdeVOeJkUHuuIYsv496u2mUB6i4t4utXLIhcDA5RGHq+zU/gAUbCYRGGjUqQ4MQu4WllbPnbj339ER5n65koXRE9GLLRAy7ugSSqcVCxU/E371ybXY2U50gDJtBiJwIU8uLeSxL5E5NF2ZuLezqNAtuEYv8tuLn6Lqj6wAZ1Ov1OBvDcRzLbmK1r+aFwlCztfTGG9du3nTHx8e3qyVicoYJ07aRYFeD8sUk8MASoOQ/sLeGJ/YgEog9YZRgBm9duDDzd9/euPKeaQ5YZhluYcSTa0mCXjgojYPUvXDq4NSXf3FKEU0Utde1Ii4miEKYqlEwDwqHIHnI3OaWf2d+pekno9USSviglXu57MAYb1rW6NjAwUOTY+ODUH1MAiwcZTdbC831dBPegMWFtZs35pYW16MQAqaiYJDtQGKt2fU7M7NL9Voo9rmyxHyPJB8RDwiug4M+j1LE1Te95EdvXg7DglpsJLkXw4kvHF0rYJ1eLFgHpkde+sLp3WBA4yDpkscqHxv0Gyv7zc3N1dXV7/1oDekQtm028gDSbpnuZl27Nbt67do16D1UH+/alnw8+YlF/65OgC8mgQeKACX/gbodPJn7RSBpWYpqm24pMdCuJlTyoJ2OhQL17bp4nxwWi3K5NkRRd2gS9BCNcOQ63Ss5b77V+qP/592r72L1XO0fhZu+ofmFtdYtu3B0YGRyeWljc/3Omcf7f+sXp8/sh7irtqWhnR1s+9AVHDJJZXX9AHFkmvjTb1157a3F4YnpRKyvr7cKeiHQiqtzN08cqPznv/T4N359HKeaCnjx+1Em/5Pn+Kl74kZzuVSsRsnE7/9+9gfvrGR2CYVrB6uTi8tzmlOoTBz44dmZP/izKydOPakYsZGhkG2CfrXtRS2uVBYM9oKmaw986ig/6y/T5oBZzFrRgusOhHnh3/y7i5dvN0NbrQQVlNSPs8Ao22mrljWWXn7q4P/4u89ZsjfhLjZoPK4IP+EigeTjnWtr9u3b4d+/djtLiloyiilYmtczY9l0U80Y/N//j5v/6l99FcTrG+sVa0AGOSDB0YQ3obyLUflSEnhQCVDyH9Q7w/O6pwRMG/nePkK4krQFYzIEDWFs7XS7zm7sMG2ZBmYDcLqjgr2Mt0fbm0Yj+bd/+sr1KyvXrjZbdQcRcpClVJE9XYaHj4YRVpAzWh6fOjny8ktTxw5PQKVhQldkfz1ZaR/SAyOzTL0T6P5eePdKOjuzaJkyXi/w6jI7zYA7H93e1LHR4v4D1fYrsdaEP363eo+BETCAXj4ZqutPHeobn6zeWQ2y2DZ0mCGiMAzdIlaz7uzMws1bjx+dLmIs2eZHTmtkoB9S+2CNcGyUDbi/myklPDVtB/Vu11bF3Nw6LBOmdO0jmgFNfu0sUuIwnBitHjoyehc9/3AtWKND9REPsX0llUpl3759h6aWZ29t+UFTLv1TFdMd/Bav8X3r8uXaxFiliKpA2+9ApcRdz7fuLzQenQTumgAl/67R8Y0PE4Fcg5McEo3FegKXdhBptaaoOGU0UOu4hWoSpkoS662GWFmJZm5v3r61vLJa+/6PV2W2WFJCYZgcse5qqMpGdrltjUHvm7XFQ9OFX3j5xK9+7YkjB7AbSfpWHKPdDpLFMJK0E6A2H0rjwIr9yvfOX7k6VyyMq7mKtvcu1E8z0yDtK1snTo0cPeZCfIOgpSiFu4imh/HBsitwQKD4zJNnxs+/u7T4yvXYS3VMVCBsYatULKMQ0JVrt1/5/rlD009L2zpy2WD91qD18FBgbat9KJMdEd2TnZqBFLxI12x4P86eX7x6bQEtbjH1SXMvDTNLKceBSIPgsccOPv3MIVXB/Gx3y3ys77fPE09wIyD/2EZGRl544djGyg+2NhdLpYFcNxG9j5ch97LZcn/wgyv79588eRi1CkLUUZQtiXKnXTrpnlwxD0ICvSRAye8lfY7dNQLt8nMoxoKINisIlKtXa9/+u1XXQOJX5+Q31VGbjWB1pb602FhcaqIS3MZay2vFRnEKrVcTEUaRh9kDVsYqmtVk6eL8BgryTe13n39u/MXPTx6aknov0kjAUY2Mffl3Jo0FeBsEFVlnN+fE669f3VgPJw6UoghSC2Wx01iNmq3Djw08dWZfsYj5QaBkimFZUrZ2mJrsBDBFg3nTiNJE1VpHjlYef2LktR9dX11HQ95cNdQ8SBMkvFnu0ryPmLWvfu3pQ8MIMJQ1gCD4MEUYhhUGqbSi73Lcnc5n5/0x5kCIiURnoNdev7a40DLsEbQTFEaSo3qOcKLIR3D9qZPjx47D6LIqxNDOh+rwm+10R/wCvnys+OXUq23ef/nnDr/9xo8WF1bccsW0HPQkRjoeuutmSflHP771+Of6jx8+jMlcmqN9X7WdXdHh4NxFAg8dAUr+Q3fLeMJ3QyBHvjsy5BQ7zU2vEbz55vzV9xaSuLkJX3mnzU4dH/lbfhjha1+mtluqUTKKeph7sBVgxYiIe8tEYl0RVoMgyta3Zk6eGP7iS0defnHy9HG43kMsmvMoVmxZ5rWdGZ4HYYD6rljRYqX/6g+Xbt7eNIwKutkHft1A1r6mheiUpwSfO3Hg9KlhWZMfMYFGEaIboberTC7bxSbXtjLWH2GCoSLCEyf69+8rra81UL3fsVzLxFgectx1rXLjZu0Hry0d+rVReWIiQHFfnEt7JAXpBwg4uL9bFhmag54/Z8/Vz52bDSPDKVpeq4agRVUz8iRHeeKp/cUTJwbQiAhhDbv9wtqW/O21PsQedot2JF/2xCn9+LGBdy7NpxliKh0l0aUJCI11DWd2YeHypZXmlw9XYNqHox9Tt0y/7xzuL2UenQTeJ7DbvyCCI4GHkkAcoZU9PLqKaVroZ7ux5S2uNKPYM0ojHa9HrUGLDd0oWzYq0cPEjUW6XARbMJUjNF+zTc1UhZYEie97YRh97oT90ov7f+Wrp0+ftKTew06e5hl0XGbkyfU91pkQHhkfkIlmQ7z62nvNQC9VBmFtzpLAcs0UWfhCjI2YZ87sHxmQeYBpoGqm9OLnKJAnoMe72GAwx4ZY9yxrqWp8YKryuccnb1x7p55pWO4iUj1owqMfF4rD9dba93947be+NOq4eL3t+TXXwVgJXNjwAexiyLt7qbRgGK0WlvjXF5ZC2xlO8hTXG+c26hvEgT9QTp97Zt+hgyXU4c8ye7eZBWC+vUnjykcux1bFM2em3vjRndXNto0FJZRkkB9sI7gf2pWrG+fPbb34+aoG306MDn78nry7u8t3PXAE7v+f9AN3yTyhvUgggy0795KkrqqhU1B0ZH45Vql/qOKaHR9j+8qj46X+YadYMRH+FWdxy/frzabUHXTEhavfy+vrm7WtBcfaPHxI/ef/9Plf+eqxx49aMvdOPvQ01zNknMukcPgOoOaymlt75S3efuvKpavzubBdpxD4HpaShpkjlMywDCxnT54YUYQvq8IhSlyG06EK/e6S8nGDNSNGtV5dtZXMgW2+7Iinnjk4PKQh/S+MfMxjUIUmaIUyvzAvvnN56fy5W+3TlhVx2jEHOGF49+//R0W1MN71643zF24lGXhUfL9loex9mhu6GUX1vv7s8z93aGhQxdzJEP13cUK4IszSPqr3eA4jyhNPTB87dgCl9lFpB+WAcGQULYrVmuHat2bqb7w54/lAYsIqIAP4uJHAI0GAs9dH4jbyIj6LgI2uNDkWjWgfiw4rTpzHCN7X3JLShHu4w+bDDx8lfpgmMkfPNqyCZaH1bTGPUA8OkmGhkK2l+cODxedfOPj5F0995aUyFuaKFHvYgZEMIFu5tHPpYRyXeo8xoDv4ubqSnX3r0sZWwzUGECEXhr5TUNHaPgi8cnl4ampobBRLWfjaEQYgpwhhgGJ/CC5DOd5dbHhfhqw0eBRywwu3TMs9dLCv0qfbgd1sbvRXygjPb7bCQrEP7ek2Nmtvvn4eHXVHxtHaB9eBs0UoH04bz++33En3wcL8+vzihmGOWJbtrzUKRTULdcU2UOegWLKPHB1UReg1w6KD89ndti32256VbZN+20gDd0VzYrw4MTmk/ng5iFCOL0ZYBiL7YgEjR2VjeeP6lWWvKUqOgZliN6Y+u7ssvpoE7pLA/f57vsvT4ttI4C4JJOiSYsLpm+giMw0PZfC8moJw/UDB0tyCeKPKvBdbiSjCjN3wsxy9bjs8NnIFgWRKqWghgL7qWlBlK0Gkv6r0xUFcq92wjGsvfcH87/7rM//iv3z2V18syykA1sT4e4IRGMlk6OaC4HINOfV1He3y/EJYR9bfeqTUL87X/uyHSNIvBlbUEBul8YFEG7p+qx7lrUL/6u/+N4+XDJSYLejucG7CE5CbNjLWRndLQ8lcHU4FdOxT1ZI1ZAm1amz8y39xKgj9OBErGw2r5PSN236+0u44o/5/b4QXlrdCZcsw1sK6n7YKtllOhbfTuIiyL5q3m3NzTjCtIEzQXYjDzAmc3OoXZnm79Y2KjAZMgOS28/eM0rx+E6GU1+cWUj8K0nR9rFrQW2pRP7h8+87jhwq/86tPD2nIlbQKxXJyV4EF23ovTwL1kNFMUDY8RAefUfRI+KWf3//ik8W0PuugZ1+lbymuGXE5S/LCUPnm6sa/+YMfrzeE6+ie/458CzcSePgJcJX/8N9DXsFHCaC0XQYzOFQTilso2/0tE9FZTmR1zr//6Fs/+rzP2I+adzEi7LEMj+Mci+52x/q+8p2D0wNPnH7q6TPTyL/ftw892TAU1vU7qVqcY8WK8rnWMFLmvKZ9+fyt9QU04qsgPx51efI4N4U5Uh2e2Lf/qScPfvQcfpbnbfv8xw5QrVaxzD20P5zX5gM/SoN2W7lMtTQsbq3Vee/yubWnjx+0XFg0CljnJ2g0rwKarBv4yS0zRXFov1NF2p+JKrlwZKDhEN4Z+muOhgL/MEsU5exHyFZD6ImL3gOfPAj2RKJ6dWZuYT3KMcPQnC0vzsPUyLXa1k3XDg8cGD0wNW60W/vGCQIpkb+3E+eOh99xp4KoRs06MNV39PDU2+camw0EC8IN0w+LDKwb6FZcz+LVpXBrTQwWCq5zZMcD8Rck8FAR6Px3+FBdAk+WBD5CQEXvOFSxN/xWGIcNLY+UJAzqeSA71+1i0xuI30N2nVpw9SJK0pTLpULRso2vffn0xOTokSMD1eq2yGdxhjBAv2x1DgPE1EPak1GET/rFC5ffWXjnrZthI3NsBAMiH6AVZA1Ld0u2um+w/+j+wV2c4i5fijVuf3//xMiGV9OXW+t+I40jWZDOQGhDnqP8wMW3bl066X7hmUlMYSD5KDsoZ047bIvrAk4PrO+DaLMZbmnCR80hwyiYyqZjhHFQi2LTkfKMvnXwnG+v9Tsca25FnHtnZmWtVqqU4OZI4oZuIlFQt7yFsQHt6JG+0bEP4haRXQhPxz3a4rSBuVqlbB06NDY2PLuxUQsaKFGco88ObhcyAxt+6/a1uXcuLE4MjDkomfDBWdyj8XkYEugNAUp+b7hz1PtFQEkRSI8HmrFMTurPP1etNYq6pWdK365GLDh1OHdR132grzw4VB0e6u+vFl3X3gdRbge1yQw4JHWJGK3cEXa308HbzXCdJEDKGcQfb42mp4qlwrBeRJgcOsdsIfMezVt1LT98pPLUqXsmLB9as3Fi2yVo8AQ7f/6l4f0T3soKAtMRLpCiJiBq8CETIWkVBwZbqojkSaJJABLjTVl2cKfNUsXjj5VhOVD0ghfahpEawiqY/X7U51gbI4MFmd0vNBS2kwVuZIxD521rfUEktSP7EUs5kGQIo0tdE+n4mlMaGqgYTz6xr4J6QsgyDAL01bmHPnXUHNo+oePHBn/hi4fGJlZhQVDNtGgYiNZDBr/f2MIkxDCRsS/QC/GezTU6Y+BeEugSAZmY0qWhOAwJdIEA6uMknm7AQGvUWvlWPTbQRsZS9M4Vd3Y8Ic3NIdLIsYMyqMhYkyH30n6tQSpQsgX2+BTSAIM9KsXKbScvcxShrI1cLSMSzTA1xAOurKZYDeOgsoouCvgLDeeKRL9COS2XUJu3s+p/VMJ3POmP/AIq/r7TGtkCqdRuHEHa2DWt6clucgjZRyQ7qvJifuR5yIzTk7g2PIR1uoHVv6FKfZUNgXYMmAuXl5pCrRgOusvLa0H9OgQP1FqYyPjHjjpa29kR+InlIOPdN1TET3bc4npdiyPVLuKNknXREXALbCFaPk+G+nUEXwA3TthGlCPyBjse4y52ytRJmZKQCx11GPHI1ShRWkWtqmgKSid5fh62aqODhWoBY6LUftu7cBcD8S0k8CARoOQ/SHeD5/KzE5Crb1Srl1/T0FmsV7EDR0X8166OnSgoqCvXlyoK8aDyaggzOFquRdX+ItLk8Ys8w+oVsoTm65BzAfd3x833hAOxUGAQ8FAYAK+BjR8/U4HcOUicD+lX3i8ii1g5L98hUu9nkfyPnlgqtqSuyg0/5fls/7MdjpC3d6HGPjwaRWCLAmHucF0Cx8HFywo1eCCzAG+VnPPMaR8Y1vFYUyzPi50CXuArYqcDrcvORqhoi7criACAuFois/IPcuhxilhzY7KCeHoM2PaPtM/6Z/yBaRa65poBGhzksoQ+6h+Cf0sTVQySwT4h6eSIv9TkKWG2dx99Lj/jpfDtJPDTE6Bh/6dnxVc+DAQUFFWVFXGxegtjZLpLT3KzEZnqju7kjleFQrdQWVl8VtqlhYXYLizNRUFOIBQVq3yom2yljl+Z+G3HY8idponaeVjfo3OrEQRI74MpHSl4MOlHKtrppR4ObOsFvxliVxGpczuuqnccouMvPlzi/8RvIz9GGjpcEXgBbPsGfB46eskENpbQqoPOQOg558CQjZlMinPdyXghWg09yRqVio3ERyg0auaFrVaSB4WCk6c+7kAQxAXHQlAc1FSupXfYWmHqIrFBTqNwg2LkRaaoD4iASxj5UZnAtHIFZZKV7ei/LAW0ewRInhOKJSWYcmWomYQqhUKDVwNrIM9raZZlIpMT1QHQOAlNk3y/sju/0A5Xy90k0GsCXOX3+g5w/HtKIM8bcWhifSmNwFghQk0QfA6bc+fA808Ze3s1LFeyOEw7IF/qXySc7TUydr6/TN6WM/y785Y0vXXXdRVh54mBovvSzg+9wZvhOQ99Bf5i2JG33eZYLcvlZYdtt6v87UNgrY0n2++FmMspCvT3gy3xc10mF7b/jZ/SZS7QxA7RdvJpK7Td/vd/+8FbPvx/1F5wQ6cjVBFGDV+ETqAirsg0XKEq+wzFCXwGDlwKmg71Xrf0zrXxsa4HCbwMDnwk3yNY3vd0JAjqQtbBESpqGalIa5BVDEUWhp6scHxPNoDBYh6joN5eZIG/ATMQ9qRqHKCcsmK1mypLG8/2Ddm+6/dkaB6EBHpHgJLfO/YcmQRIgARIgAS6SIBz1y7C5lAkQAIkQAIk0DsClPzesefIJEACJEACJNBFApT8LsLmUCRAAiRAAiTQOwKU/N6x58gkQAIkQAIk0EUClPwuwuZQJEACJEACJNA7ApT83rHnyCRAAiRAAiTQRQKU/C7C5lAkQAIkQAIk0DsClPzesefIJEACJEACJNBFApT8LsLmUCRAAiRAAiTQOwKU/N6x58gkQAIkQAIk0EUClPwuwuZQJEACJEACJNA7ApT83rHnyCRAAiRAAiTQRQKU/C7C5lAkQAIkQAIk0DsClPzesefIJEACJEACJNBFApT8LsLmUCRAAiRAAiTQOwKU/N6x58gkQAIkQAIk0EUClPwuwuZQJEACJEACJNA7ApT83rHnyCRAAiRAAiTQRQKU/C7C5lAkQAIkQAIk0DsClPzesefIJEACJEACJNBFApT8LsLmUCRAAiRAAiTQOwKU/N6x58gkQAIkQAIk0EUClPwuwuZQJEACJEACJNA7ApT83rHnyCRAAiRAAiTQRQKU/C7C5lAkQAIkQAIk0DsClPzesefIJEACJEACJNBFApT8LsLmUCRAAiRAAiTQOwKU/N6x58gkQAIkQAIk0EUClPwuwuZQJEACJEACJNA7ApT83rHnyCRAAiRAAiTQRQKU/C7C5lAkQAIkQAIk0DsClPzesefIJEACJEACJNBFApT8LsLmUCRAAiRAAiTQOwKU/N6x58gkQAIkQAIk0EUClPwuwuZQJEACJEACJNA7ApT83rHnyCRAAiRAAiTQRQKU/C7C5lAkQAIkQAIk0DsClPzesefIJEACJEACJNBFApT8LsLmUCRAAiRAAiTQOwKU/N6x58gkQAIkQAIk0EUClPwuwuZQJEACJEACJNA7ApT83rHnyCRAAiRAAiTQRQKU/C7C5lAkQAIkQAIk0DsClPzesefIJEACJEACJNBFApT8LsLmUCRAAiRAAiTQOwKU/N6x58gkQAIkQAIk0EUClPwuwuZQJEACJEACJNA7ApT83rHnyCRAAiRAAiTQRQKU/C7C5lAkQAIkQAIk0DsClPzesefIJEACJEACJNBFApT8LsLmUCRAAiRAAiTQOwKU/N6x58gkQAIkQAIk0EUClPwuwuZQJEACJEACJNA7ApT83rHnyCRAAiRAAiTQRQKU/C7C5lAkQAIkQAIk0DsClPzesefIJEACJEACJNBFApT8LsLmUCRAAiRAAiTQOwKU/N6x58gkQAIkQAIk0EUClPwuwuZQJEACJEACJNA7ApT83rHnyCRAAiRAAiTQRQKU/C7C5lAkQAIkQAIk0DsClPzesefIJEACJEACJNBFApT8LsLmUCRAAiRAAiTQOwKU/N6x58gkQAIkQAIk0EUClPwuwuZQJEACJEACJNA7ApT83rHnyCRAAiRAAiTQRQKU/C7C5lAkQAIkQAIk0DsClPzesefIJEACJEACJNBFApT8LsLmUCRAAiRAAiTQOwKU/N6x58gkQAIkQAIk0EUClPwuwuZQJEACJEACJNA7ApT83rHnyCRAAiRAAiTQRQKU/C7C5lAkQAIkQAIk0DsClPzesefIJEACJEACJNBFApT8LsLmUCRAAiRAAiTQOwKU/N6x58gkQAIkQAIk0EUClPwuwuZQJEACJEACJNA7ApT83rHnyCRAAiRAAiTQRQKU/C7C5lAkQAIkQAIk0DsClPzesefIJEACJEACJNBFApT8LsLmUCRAAiRAAiTQOwKU/N6x58gkQAIkQAIk0EUClPwuwuZQJEACJEACJNA7ApT83rHnyCRAAiRAAiTQRQKU/C7C5lAkQAIkQAIk0DsClPzesefIJEACJEACJNBFApT8LsLmUCRAAiRAAiTQOwKU/N6x58gkQAIkQAIk0EUClPwuwuZQJEACJEACJNA7ApT83rHnyCRAAiRAAiTQRQKU/C7C5lAkQAIkQAIk0DsClPzesefIJEACJEACJNBFApT8LsLmUCRAAiRAAiTQOwKU/N6x58gkQAIkQAIk0EUClPwuwuZQJEACJEACJNA7ApT83rHnyCRAAiRAAiTQRQKU/C7C5lAkQAIkQAIk0DsClPzesefIJEACJEACJNBFApT8LsLmUCRAAiRAAiTQOwKU/N6x58gkQAIkQAIk0EUClPwuwuZQJEACJEACJNA7ApT83rHnyCRAAiRAAiTQRQKU/C7C5lAkQAIkQAIk0DsClPzesefIJEACJEACJNBFApT8LsLmUCRAAiRAAiTQOwKU/N6x58gkQAIkQAIk0EUClPwuwuZQJEACJEACJNA7ApT83rHnyCRAAiRAAiTQRQKU/C7C5lAkQAIkQAIk0DsClPzesefIJEACJEACJNBFApT8LsLmUCRAAiRAAiTQOwKU/N6x58gkQAIkQAIk0EUClPwuwuZQJEACJEACJNA7ApT83rHnyCRAAiRAAiTQRQKU/C7C5lAkQAIkQAIk0DsClPzesefIJEACJEACJNBFApT8LsLmUCRAAiRAAiTQOwKU/N6x58gkQAIkQAIk0EUClPwuwuZQJEACJEACJNA7ApT83rHnyCRAAiRAAiTQRQKU/C7C5lAkQAIkQAIk0DsClPzesefIJEACJEACJNBFApT8LsLmUCRAAiRAAiTQOwKU/N6x58gkQAIkQAIk0EUClPwuwuZQJEACJEACJNA7ApT83rHnyCRAAiRAAiTQRQKU/C7C5lAkQAIkQAIk0DsClPzesefIJEACJEACJNBFApT8LsLmUCRAAiRAAiTQOwKU/N6x58gkQAIkQAIk0EUClPwuwuZQJEACJEACJNA7ApT83rHnyCRAAiRAAiTQRQKU/C7C5lAkQAIkQAIk0DsClPzesefIJEACJEACJNBFAv8/Wgox5L5Q/Q4AAAAASUVORK5CYII=;" vertex="1" parent="1">
          <mxGeometry x="1090" y="90" width="71.46" height="80" as="geometry" />
        </mxCell>
        <mxCell id="oIj8O1oQHdGCjc1uspGj-64" value="" style="shape=cylinder3;whiteSpace=wrap;html=1;boundedLbl=1;backgroundOutline=1;size=15;fillColor=#dae8fc;strokeColor=#6c8ebf;" vertex="1" parent="1">
          <mxGeometry x="1170" y="170" width="71" height="70" as="geometry" />
        </mxCell>
        <mxCell id="oIj8O1oQHdGCjc1uspGj-65" style="edgeStyle=orthogonalEdgeStyle;rounded=0;orthogonalLoop=1;jettySize=auto;html=1;entryX=0;entryY=0.5;entryDx=0;entryDy=0;entryPerimeter=0;fillColor=#dae8fc;strokeColor=#6c8ebf;strokeWidth=3;exitX=1.013;exitY=0.123;exitDx=0;exitDy=0;exitPerimeter=0;" edge="1" parent="1" source="oIj8O1oQHdGCjc1uspGj-1" target="oIj8O1oQHdGCjc1uspGj-64">
          <mxGeometry relative="1" as="geometry" />
        </mxCell>
        <mxCell id="oIj8O1oQHdGCjc1uspGj-69" value="" style="group" vertex="1" connectable="0" parent="1">
          <mxGeometry x="570" y="560" width="110" height="145" as="geometry" />
        </mxCell>
        <mxCell id="oIj8O1oQHdGCjc1uspGj-66" value="" style="sketch=0;points=[[0,0,0],[0.25,0,0],[0.5,0,0],[0.75,0,0],[1,0,0],[0,1,0],[0.25,1,0],[0.5,1,0],[0.75,1,0],[1,1,0],[0,0.25,0],[0,0.5,0],[0,0.75,0],[1,0.25,0],[1,0.5,0],[1,0.75,0]];points=[[0,0,0],[0.25,0,0],[0.5,0,0],[0.75,0,0],[1,0,0],[0,1,0],[0.25,1,0],[0.5,1,0],[0.75,1,0],[1,1,0],[0,0.25,0],[0,0.5,0],[0,0.75,0],[1,0.25,0],[1,0.5,0],[1,0.75,0]];outlineConnect=0;fontColor=#232F3E;fillColor=#E7157B;strokeColor=#ffffff;dashed=0;verticalLabelPosition=bottom;verticalAlign=top;align=center;html=1;fontSize=12;fontStyle=0;aspect=fixed;shape=mxgraph.aws4.resourceIcon;resIcon=mxgraph.aws4.cloudformation;" vertex="1" parent="oIj8O1oQHdGCjc1uspGj-69">
          <mxGeometry x="16" y="35" width="78" height="78" as="geometry" />
        </mxCell>
        <mxCell id="oIj8O1oQHdGCjc1uspGj-67" value="&lt;div&gt;リソース構築&lt;/div&gt;" style="text;html=1;align=center;verticalAlign=middle;resizable=0;points=[];autosize=1;strokeColor=none;fillColor=none;" vertex="1" parent="oIj8O1oQHdGCjc1uspGj-69">
          <mxGeometry x="10" y="5" width="90" height="30" as="geometry" />
        </mxCell>
        <mxCell id="oIj8O1oQHdGCjc1uspGj-68" value="CloudFormation" style="text;html=1;align=center;verticalAlign=middle;resizable=0;points=[];autosize=1;strokeColor=none;fillColor=none;" vertex="1" parent="oIj8O1oQHdGCjc1uspGj-69">
          <mxGeometry y="115" width="110" height="30" as="geometry" />
        </mxCell>
        <mxCell id="oIj8O1oQHdGCjc1uspGj-73" value="" style="group" vertex="1" connectable="0" parent="1">
          <mxGeometry x="922" y="390" width="78" height="136" as="geometry" />
        </mxCell>
        <mxCell id="oIj8O1oQHdGCjc1uspGj-70" value="" style="sketch=0;points=[[0,0,0],[0.25,0,0],[0.5,0,0],[0.75,0,0],[1,0,0],[0,1,0],[0.25,1,0],[0.5,1,0],[0.75,1,0],[1,1,0],[0,0.25,0],[0,0.5,0],[0,0.75,0],[1,0.25,0],[1,0.5,0],[1,0.75,0]];outlineConnect=0;fontColor=#232F3E;fillColor=#E7157B;strokeColor=#ffffff;dashed=0;verticalLabelPosition=bottom;verticalAlign=top;align=center;html=1;fontSize=12;fontStyle=0;aspect=fixed;shape=mxgraph.aws4.resourceIcon;resIcon=mxgraph.aws4.sns;" vertex="1" parent="oIj8O1oQHdGCjc1uspGj-73">
          <mxGeometry y="28" width="78" height="78" as="geometry" />
        </mxCell>
        <mxCell id="oIj8O1oQHdGCjc1uspGj-71" value="SNS" style="text;html=1;align=center;verticalAlign=middle;resizable=0;points=[];autosize=1;strokeColor=none;fillColor=none;" vertex="1" parent="oIj8O1oQHdGCjc1uspGj-73">
          <mxGeometry x="14" y="106" width="50" height="30" as="geometry" />
        </mxCell>
        <mxCell id="oIj8O1oQHdGCjc1uspGj-72" value="通知" style="text;html=1;align=center;verticalAlign=middle;resizable=0;points=[];autosize=1;strokeColor=none;fillColor=none;" vertex="1" parent="oIj8O1oQHdGCjc1uspGj-73">
          <mxGeometry x="14" width="50" height="30" as="geometry" />
        </mxCell>
        <mxCell id="oIj8O1oQHdGCjc1uspGj-74" style="edgeStyle=orthogonalEdgeStyle;rounded=0;orthogonalLoop=1;jettySize=auto;html=1;entryX=0;entryY=0.5;entryDx=0;entryDy=0;entryPerimeter=0;strokeWidth=3;" edge="1" parent="1" source="oIj8O1oQHdGCjc1uspGj-38" target="oIj8O1oQHdGCjc1uspGj-70">
          <mxGeometry relative="1" as="geometry" />
        </mxCell>
        <mxCell id="oIj8O1oQHdGCjc1uspGj-81" value="" style="group" vertex="1" connectable="0" parent="1">
          <mxGeometry x="1104" y="370" width="80" height="98" as="geometry" />
        </mxCell>
        <mxCell id="oIj8O1oQHdGCjc1uspGj-75" value="" style="shape=image;html=1;verticalAlign=top;verticalLabelPosition=bottom;labelBackgroundColor=#ffffff;imageAspect=0;aspect=fixed;image=https://cdn2.iconfinder.com/data/icons/social-media-2285/512/1_Slack_colored_svg-128.png" vertex="1" parent="oIj8O1oQHdGCjc1uspGj-81">
          <mxGeometry width="64.59090909090908" height="64.59090909090908" as="geometry" />
        </mxCell>
        <mxCell id="oIj8O1oQHdGCjc1uspGj-77" value="slack" style="text;html=1;align=center;verticalAlign=middle;resizable=0;points=[];autosize=1;strokeColor=none;fillColor=none;" vertex="1" parent="oIj8O1oQHdGCjc1uspGj-81">
          <mxGeometry x="5.517241379310345" y="64.59090909090908" width="50" height="30" as="geometry" />
        </mxCell>
        <mxCell id="oIj8O1oQHdGCjc1uspGj-82" value="" style="group" vertex="1" connectable="0" parent="1">
          <mxGeometry x="1109" y="510" width="70" height="85" as="geometry" />
        </mxCell>
        <mxCell id="oIj8O1oQHdGCjc1uspGj-76" value="" style="shape=mxgraph.signs.tech.mail;html=1;pointerEvents=1;fillColor=#000000;strokeColor=none;verticalLabelPosition=bottom;verticalAlign=top;align=center;" vertex="1" parent="oIj8O1oQHdGCjc1uspGj-82">
          <mxGeometry width="70" height="48.5" as="geometry" />
        </mxCell>
        <mxCell id="oIj8O1oQHdGCjc1uspGj-78" value="mail" style="text;html=1;align=center;verticalAlign=middle;resizable=0;points=[];autosize=1;strokeColor=none;fillColor=none;" vertex="1" parent="oIj8O1oQHdGCjc1uspGj-82">
          <mxGeometry x="10" y="48.5" width="50" height="30" as="geometry" />
        </mxCell>
        <mxCell id="oIj8O1oQHdGCjc1uspGj-83" style="edgeStyle=orthogonalEdgeStyle;rounded=0;orthogonalLoop=1;jettySize=auto;html=1;entryX=0;entryY=0.5;entryDx=0;entryDy=0;strokeWidth=3;" edge="1" parent="1" source="oIj8O1oQHdGCjc1uspGj-70" target="oIj8O1oQHdGCjc1uspGj-75">
          <mxGeometry relative="1" as="geometry" />
        </mxCell>
        <mxCell id="oIj8O1oQHdGCjc1uspGj-84" style="edgeStyle=orthogonalEdgeStyle;rounded=0;orthogonalLoop=1;jettySize=auto;html=1;entryX=-0.011;entryY=0.722;entryDx=0;entryDy=0;entryPerimeter=0;strokeWidth=3;" edge="1" parent="1" source="oIj8O1oQHdGCjc1uspGj-70" target="oIj8O1oQHdGCjc1uspGj-76">
          <mxGeometry relative="1" as="geometry">
            <Array as="points">
              <mxPoint x="1050" y="457" />
              <mxPoint x="1050" y="545" />
            </Array>
          </mxGeometry>
        </mxCell>
        <mxCell id="oIj8O1oQHdGCjc1uspGj-89" value="" style="sketch=0;points=[[0,0,0],[0.25,0,0],[0.5,0,0],[0.75,0,0],[1,0,0],[0,1,0],[0.25,1,0],[0.5,1,0],[0.75,1,0],[1,1,0],[0,0.25,0],[0,0.5,0],[0,0.75,0],[1,0.25,0],[1,0.5,0],[1,0.75,0]];points=[[0,0,0],[0.25,0,0],[0.5,0,0],[0.75,0,0],[1,0,0],[0,1,0],[0.25,1,0],[0.5,1,0],[0.75,1,0],[1,1,0],[0,0.25,0],[0,0.5,0],[0,0.75,0],[1,0.25,0],[1,0.5,0],[1,0.75,0]];outlineConnect=0;fontColor=#232F3E;fillColor=#E7157B;strokeColor=#ffffff;dashed=0;verticalLabelPosition=bottom;verticalAlign=top;align=center;html=1;fontSize=12;fontStyle=0;aspect=fixed;shape=mxgraph.aws4.resourceIcon;resIcon=mxgraph.aws4.config;" vertex="1" parent="1">
          <mxGeometry x="760" y="596" width="78" height="78" as="geometry" />
        </mxCell>
        <mxCell id="oIj8O1oQHdGCjc1uspGj-93" style="edgeStyle=orthogonalEdgeStyle;rounded=0;orthogonalLoop=1;jettySize=auto;html=1;fillColor=#fff2cc;strokeColor=#d6b656;strokeWidth=3;" edge="1" parent="1" source="oIj8O1oQHdGCjc1uspGj-90">
          <mxGeometry relative="1" as="geometry">
            <mxPoint x="857" y="360" as="targetPoint" />
          </mxGeometry>
        </mxCell>
        <mxCell id="oIj8O1oQHdGCjc1uspGj-90" value="&lt;div&gt;リソース変更検知&lt;/div&gt;" style="text;html=1;align=center;verticalAlign=middle;resizable=0;points=[];autosize=1;strokeColor=none;fillColor=none;" vertex="1" parent="1">
          <mxGeometry x="739" y="566" width="120" height="30" as="geometry" />
        </mxCell>
        <mxCell id="oIj8O1oQHdGCjc1uspGj-91" value="&lt;div&gt;Config&lt;/div&gt;" style="text;html=1;align=center;verticalAlign=middle;resizable=0;points=[];autosize=1;strokeColor=none;fillColor=none;" vertex="1" parent="1">
          <mxGeometry x="769" y="675" width="60" height="30" as="geometry" />
        </mxCell>
      </root>
    </mxGraphModel>
  </diagram>
</mxfile>
